<?xml version="1.0" encoding="utf-8"?>
<!-- Generator: Adobe Illustrator 21.0.0, SVG Export Plug-In . SVG Version: 6.00 Build 0)  -->
<svg version="1.1" xmlns="http://www.w3.org/2000/svg" xmlns:xlink="http://www.w3.org/1999/xlink" x="0px" y="0px"
	 viewBox="0 0 100 100" style="enable-background:new 0 0 100 100;" xml:space="preserve">
<style type="text/css">
	.st0{fill:none;stroke:#000000;stroke-miterlimit:10;}
	.st1{fill:none;stroke:#000000;stroke-linecap:round;stroke-linejoin:round;stroke-miterlimit:10;}
	.st2{fill:#CCCCCC;stroke:#000000;stroke-miterlimit:10;}
	.st3{fill:#FFFFFF;stroke:#000000;stroke-miterlimit:10;}
</style>
<g id="Calque_2">
	<path class="st0" d="M36.3,19.8L58,40.9"/>
	<line class="st0" x1="42.1" y1="67.4" x2="13.8" y2="56.1"/>
	<path class="st0" d="M87.7,75.7C82.9,83,75.4,86.6,71,83.6c-4.4-2.9-4.9-10.5-0.1-17.7c4.8-7.3,13-11.6,17.4-8.6
		C92.7,60.2,92.5,68.5,87.7,75.7z"/>
	<path class="st0" d="M71,83.6L42.2,67.5c0,0-5.5-21.4,15.9-26.5c27,14.8,30.7,16.6,30.7,16.6s-6.9-4.8-16.3,6.1
		C64.5,73,68.5,82.2,71,83.6z"/>
	<path class="st0" d="M49.6,44.7c0,0,23.6,13,25.9,14.9C77.1,61,62.6,70,69.5,82.8"/>
	<path class="st1" d="M55,58.8c0,0-2.6,2.5-1.8,2.9C53.8,62.1,55,58.8,55,58.8z"/>
	
		<ellipse transform="matrix(8.133696e-02 -0.9967 0.9967 8.133696e-02 -5.1065 107.6662)" class="st0" cx="55.9" cy="56.6" rx="2.2" ry="2.2"/>
	<path class="st1" d="M65.2,64.8c0,0-2.6,2.5-1.8,2.9C64,68.1,65.2,64.8,65.2,64.8z"/>
	
		<ellipse transform="matrix(8.133696e-02 -0.9967 0.9967 8.133696e-02 -1.9861 124.0961)" class="st0" cx="66.3" cy="63.1" rx="2.2" ry="2.2"/>
	<line class="st1" x1="23.2" y1="27.5" x2="48.7" y2="44.7"/>
	<line class="st1" x1="43.2" y1="51.5" x2="36.6" y2="48"/>
	<line class="st1" x1="41.7" y1="58.1" x2="35" y2="54.8"/>
</g>
<g id="Calque_1">
</g>
</svg>
