<svg xmlns="http://www.w3.org/2000/svg" width="14.03" height="14.031" viewBox="0 0 14.03 14.031">
  <defs>
    <style>
      .cls-1 {
        fill: #fff;
        fill-rule: evenodd;
      }
    </style>
  </defs>
  <path id="croix" class="cls-1" d="M1534.98,25l3.95-3.954a0.235,0.235,0,0,0,0-.33l-2.65-2.648a0.233,0.233,0,0,0-.33,0L1532,22.022l-3.95-3.954a0.233,0.233,0,0,0-.33,0l-2.65,2.648a0.235,0.235,0,0,0,0,.33L1529.02,25l-3.95,3.954a0.235,0.235,0,0,0,0,.33l2.65,2.648a0.233,0.233,0,0,0,.33,0l3.95-3.954,3.95,3.954a0.251,0.251,0,0,0,.17.068,0.212,0.212,0,0,0,.16-0.068l2.65-2.648a0.235,0.235,0,0,0,0-.33Z" transform="translate(-1525 -18)"/>
</svg>
