<?xml version="1.0" encoding="utf-8"?>
<!-- Generator: Adobe Illustrator 21.0.0, SVG Export Plug-In . SVG Version: 6.00 Build 0)  -->
<svg version="1.1" xmlns="http://www.w3.org/2000/svg" xmlns:xlink="http://www.w3.org/1999/xlink" x="0px" y="0px"
	 viewBox="0 0 100 100" style="enable-background:new 0 0 100 100;" xml:space="preserve">
<style type="text/css">
	.st0{fill:none;stroke:#000000;stroke-miterlimit:10;}
	.st1{fill:none;stroke:#000000;stroke-linecap:round;stroke-linejoin:round;stroke-miterlimit:10;}
	.st2{fill:#CCCCCC;stroke:#000000;stroke-miterlimit:10;}
	.st3{fill:#FFFFFF;stroke:#000000;stroke-miterlimit:10;}
</style>
<g id="Calque_2">
	<path class="st0" d="M33.5,17.3l21.7,21.2c0,0-20.6,3.7-15.9,26.5L10.9,53.7"/>
	<path class="st0" d="M84.8,73.3c-4.8,7.3-12.3,10.8-16.7,7.9c-4.4-2.9-4.9-10.5-0.1-17.7s13-11.6,17.4-8.6S89.6,66,84.8,73.3z"/>
	<path class="st3" d="M68.1,81.2L39.3,65c0,0-5.5-21.4,15.9-26.5c27,14.8,30.7,16.6,30.7,16.6s-6.9-4.8-16.3,6.1
		C61.7,70.6,65.6,79.8,68.1,81.2z"/>
	<path class="st0" d="M46.7,42.2c0,0,23.6,13,25.9,14.9c1.7,1.4-12.9,10.5-5.9,23.3"/>
	<path class="st1" d="M52.1,56.3c0,0-2.6,2.5-1.8,2.9C50.9,59.6,52.1,56.3,52.1,56.3z"/>
	
		<ellipse transform="matrix(8.133696e-02 -0.9967 0.9967 8.133696e-02 -5.289 102.5934)" class="st0" cx="53" cy="54.2" rx="2.2" ry="2.2"/>
	<path class="st1" d="M62.3,62.4c0,0-2.6,2.5-1.8,2.9C61.1,65.7,62.3,62.4,62.3,62.4z"/>
	
		<ellipse transform="matrix(8.133696e-02 -0.9967 0.9967 8.133696e-02 -2.1686 119.0233)" class="st0" cx="63.5" cy="60.7" rx="2.2" ry="2.2"/>
	<line class="st1" x1="20.4" y1="25.1" x2="45.9" y2="42.2"/>
	<line class="st1" x1="40.3" y1="49" x2="33.7" y2="45.6"/>
	<line class="st1" x1="38.9" y1="55.6" x2="32.2" y2="52.4"/>
</g>
<g id="Calque_1">
</g>
</svg>
