<svg xmlns="http://www.w3.org/2000/svg" width="24" height="24" viewBox="0 0 24 24">
  <defs>
    <style>
      .cls-1 {
        fill-rule: evenodd;
      }
    </style>
  </defs>
  <path id="Rectangle_1_copie_14" data-name="Rectangle 1 copie 14" class="cls-1" d="M23,0h1V1H23V0ZM22,1h1V2H22V1ZM21,2h1V3H21V2ZM20,3h1V4H20V3ZM19,4h1V5H19V4ZM18,5h1V6H18V5ZM17,6h1V7H17V6ZM16,7h1V8H16V7Zm7,1h1V9H23V8ZM22,9h1v1H22V9Zm-1,1h1v1H21V10Zm-1,1h1v1H20V11Zm-1,1h1v1H19V12Zm-1,1h1v1H18V13Zm-1,1h1v1H17V14Zm-1,1h1v1H16V15Zm7,1h1v1H23V16Zm-1,1h1v1H22V17Zm-1,1h1v1H21V18Zm-1,1h1v1H20V19Zm-1,1h1v1H19V20Zm-1,1h1v1H18V21Zm-1,1h1v1H17V22Zm-1,1h1v1H16V23Zm-1-7h1v1H15V16Zm-1,1h1v1H14V17Zm-1,1h1v1H13V18Zm-1,1h1v1H12V19Zm-1,1h1v1H11V20Zm-1,1h1v1H10V21ZM9,22h1v1H9V22ZM8,23H9v1H8V23ZM7,16H8v1H7V16ZM6,17H7v1H6V17ZM5,18H6v1H5V18ZM4,19H5v1H4V19ZM3,20H4v1H3V20ZM2,21H3v1H2V21ZM1,22H2v1H1V22ZM0,23H1v1H0V23ZM7,8H8V9H7V8ZM6,9H7v1H6V9ZM5,10H6v1H5V10ZM4,11H5v1H4V11ZM3,12H4v1H3V12ZM2,13H3v1H2V13ZM1,14H2v1H1V14ZM0,15H1v1H0V15ZM7,0H8V1H7V0ZM6,1H7V2H6V1ZM5,2H6V3H5V2ZM4,3H5V4H4V3ZM3,4H4V5H3V4ZM2,5H3V6H2V5ZM1,6H2V7H1V6ZM0,7H1V8H0V7ZM15,0h1V1H15V0ZM14,1h1V2H14V1ZM13,2h1V3H13V2ZM12,3h1V4H12V3ZM11,4h1V5H11V4ZM10,5h1V6H10V5ZM9,6h1V7H9V6ZM8,7H9V8H8V7Z"/>
</svg>
