<svg xmlns="http://www.w3.org/2000/svg" width="20" height="18.812" viewBox="0 0 20 18.812">
  <defs>
    <style>
      .cls-1 {
        fill: #21304e;
        fill-rule: evenodd;
      }
    </style>
  </defs>
  <path id="panier" class="cls-1" d="M1427,107.76l-3.53-6.167a0.981,0.981,0,0,0-1.35-.371h0a1.015,1.015,0,0,0-.37,1.383l2.94,5.155h-9.38l2.95-5.152a1.027,1.027,0,0,0-.36-1.379l-0.01,0a1,1,0,0,0-1.37.367L1413,107.76h-2a1.008,1.008,0,0,0-1,1.013h0a1.008,1.008,0,0,0,1,1.013h0.33l1.39,8.437a2.01,2.01,0,0,0,1.97,1.693h10.62a2.01,2.01,0,0,0,1.97-1.693l1.39-8.437H1429a1.008,1.008,0,0,0,1-1.013h0a1.008,1.008,0,0,0-1-1.013h-2Zm-2.52,10.13h-8.94a1.014,1.014,0,0,1-.99-0.847l-1.19-7.257h13.46l-1.36,7.279A1,1,0,0,1,1424.48,117.89Z" transform="translate(-1410 -101.094)"/>
</svg>
