<?xml version="1.0" encoding="utf-8"?>
<!-- Generator: Adobe Illustrator 20.1.0, SVG Export Plug-In . SVG Version: 6.00 Build 0)  -->
<svg version="1.1" id="Calque_1" xmlns="http://www.w3.org/2000/svg" xmlns:xlink="http://www.w3.org/1999/xlink" x="0px" y="0px"
	 viewBox="0 0 90 90" style="enable-background:new 0 0 90 90;" xml:space="preserve">
<style type="text/css">
	.st0{fill:#1A1A1A;}
</style>
<title>TG</title>
<path class="st0" d="M72.6,34.3c0-1.5-0.7-3.1-2-4.5c-4.2-4.3-14-7-26.3-7.2h-2.1c-12.2,0.1-22.1,2.8-26.3,7.2
	c-1.4,1.4-2.1,2.9-2.1,4.5l0,0c0,0.3-0.4,8.6,0.7,14.1c0.8,3.6,10.6,15.3,24.3,17l0.5,0.1l0.2-2.5l2.6,0.3l0-0.1l0.2,0.1
	c0.5-0.2,0.6-0.3-2-10.8l0-0.3l-0.3-0.2c-4.6-2.3-14.1-7.5-20-12c3.8-1.5,21.1-7.2,46,0.2c-6,4.4-15.2,9.5-19.8,11.8L46,52.3l0,0.3
	c-2.6,10.6-2.5,10.6-2,10.8l0.4,0.2l0.1-0.2l2.3-0.3l0.2,2.5l0.5-0.1c13.8-1.7,23.6-13.5,24.3-17C73,43,72.7,34.9,72.6,34.3z
	 M41.6,62.3l-2-0.2l0.5-6.4C41.1,59.8,41.5,61.6,41.6,62.3z M38.4,64.4c-12.8-1.9-22.2-12.9-22.9-16.2c-0.7-3.7-0.8-8.9-0.8-11.7
	c4.1,5.8,21.4,14.7,24.6,16.4L38.4,64.4z M19.2,39.5c-2.6-2-4.3-3.9-4.4-5.1c0-1.3,0.6-2.5,1.8-3.8c4-4.2,13.6-6.7,25.6-6.9h2.1
	c12,0.1,21.6,2.7,25.6,6.9c1.2,1.2,1.8,2.5,1.7,3.8c0,1.3-1.9,3.3-4.7,5.4l0-0.1C40,31.5,21.6,38.5,19.2,39.5z M44.8,62.3
	c0.1-0.7,0.5-2.5,1.5-6.6l0.5,6.4L44.8,62.3z M70.9,48.3c-0.7,3.3-10,14.3-22.9,16.2l-0.9-11.5c3.3-1.7,20.4-10.6,24.6-16.3
	C71.7,39.4,71.7,44.6,70.9,48.3z"/>
</svg>
