<?xml version="1.0" encoding="utf-8"?>
<!-- Generator: Adobe Illustrator 20.1.0, SVG Export Plug-In . SVG Version: 6.00 Build 0)  -->
<svg version="1.1" id="Calque_1" xmlns="http://www.w3.org/2000/svg" xmlns:xlink="http://www.w3.org/1999/xlink" x="0px" y="0px"
	 viewBox="0 0 90 90" style="enable-background:new 0 0 90 90;" xml:space="preserve">
<style type="text/css">
	.st0{fill:#FFFFFF;}
	.st1{fill:#1A1A1A;}
</style>
<path class="st0" d="M18.1,29.2c6-6,24.2-6.2,25.7-6.2c1.5,0,19.8,0.2,25.7,6.2c0.7,0.7,1.6,1.6,1.9,2.4c0,0.1-0.2,0.4-0.1,0.9
	c0,0.3,0.1,0.6,0.1,0.9c0,3.6-1.9,6.8-5.1,9.5c-26.3-6.6-42.2-0.6-44.3,0.3c-3.4-2.7-5.8-6-5.8-9.8c0-0.2,0-0.4,0-0.6
	c0.1-0.7,0.3-1.1,0.3-1.3C16.8,30.7,17.4,29.9,18.1,29.2z"/>
<path class="st0" d="M44,65.3c-1.4,0-2.8-0.2-4.2-0.4c-2.4-0.7-4.1-2.9-4.1-5.4c-0.3-5.1,4.5-7.2,5.2-7.5c0.8,0.1,1.6,0.2,2.3,0.2
	c0,0,0,0,0,0l1.1-0.1c7.7,0,25.3-6.3,27.7-16.4c0.9,3.6,1.9,8.3,1.9,9.7C74.1,49.9,59.9,64.9,44,65.3z"/>
<title>TG</title>
<g>
	<path class="st1" d="M75.1,45.4c0-2.1-2-10.2-2.7-13.1c-0.1-0.4-0.1-0.7-0.3-1.1c0,0,0,0,0,0l0,0c-0.3-1-0.9-1.9-1.8-2.7
		C64,22.2,46.2,22,43.9,22c0,0-0.1,0-0.1,0c0,0-0.1,0-0.1,0c-2.3,0-20.1,0.3-26.3,6.5c-0.8,0.8-1.4,1.8-1.8,2.7l0,0c0,0,0,0,0,0
		c-0.2,0.5-0.3,0.9-0.3,1.4c-0.7,3.2-2.4,10.7-2.4,12.8c0,4.5,11.9,17.9,26.8,20.5c0.4,0.1,0.7,0.2,1.1,0.2l0,0
		c0.8,0.1,1.7,0.2,2.5,0.2v0c0.2,0,0.4,0,0.6,0c0.2,0,0.4,0,0.6,0v0C61.2,65.5,75.1,50.2,75.1,45.4z M18.1,29.2
		c6-6,24.2-6.2,25.7-6.2c1.5,0,19.8,0.2,25.7,6.2c0.7,0.7,1.2,1.5,1.5,2.4c0,0.1,0.1,0.5,0.2,1c0,0.3,0.1,0.6,0.1,0.9
		c0,3.6-2.2,6.7-5.3,9.3C39.8,36,24.2,42.2,22,43.1c-3.4-2.7-5.8-6-5.8-9.8c0-0.2,0-0.4,0-0.6c0.1-0.7,0.3-1.1,0.3-1.3
		C16.8,30.7,17.4,29.9,18.1,29.2z M23,43.8c3.4-1.4,18.1-6.3,42.2-0.4C58.8,48.2,49.3,51,44.4,51l-1.2,0.1
		C38.4,51.1,29.3,48.4,23,43.8z M13.9,45.4c0-1.4,0.9-6,1.7-9.5c2.2,8.5,15.1,14.3,23.7,15.8c-1.8,1.1-4.8,3.5-4.5,7.8
		c0,1.8,0.8,3.5,2,4.7C24,60.5,13.9,49.2,13.9,45.4z M44,65.3c-1.4,0-2.8-0.2-4.2-0.4c-2.4-0.7-4.1-2.9-4.1-5.4
		c-0.3-5.1,4.5-7.2,5.2-7.5c0.8,0.1,1.6,0.2,2.3,0.2c0,0,0,0,0,0l1.1-0.1c7.7,0,25.3-6.3,27.7-16.4c0.9,3.6,1.9,8.3,1.9,9.7
		C74.1,49.9,59.9,64.9,44,65.3z"/>
	<path class="st1" d="M45.2,56.4c-2.1,0-3.7,1.1-3.7,2.6s1.6,2.6,3.7,2.6c2,0,3.5-1,3.7-2.3h0.9v-1.1h-1.1
		C48.3,57.2,46.9,56.4,45.2,56.4z M45.2,60.6c-1.5,0-2.7-0.7-2.7-1.6s1.3-1.6,2.7-1.6S48,58.1,48,59S46.7,60.6,45.2,60.6z"/>
	<ellipse class="st1" cx="45.2" cy="59.1" rx="0.7" ry="0.4"/>
</g>
<path class="st0" d="M13.9,45.4c0-1.4,0.9-6,1.7-9.5c2.2,8.5,15.1,14.3,23.7,15.8c-1.8,1.1-4.8,3.5-4.5,7.8c0,1.8,0.8,3.5,2,4.7
	C24,60.5,13.9,49.2,13.9,45.4z"/>
</svg>
