<?xml version="1.0" encoding="utf-8"?>
<!-- Generator: Adobe Illustrator 20.1.0, SVG Export Plug-In . SVG Version: 6.00 Build 0)  -->
<svg version="1.1" id="Calque_1" xmlns="http://www.w3.org/2000/svg" xmlns:xlink="http://www.w3.org/1999/xlink" x="0px" y="0px"
	 viewBox="0 0 90 90" style="enable-background:new 0 0 90 90;" xml:space="preserve">
<style type="text/css">
	.st0{fill:#FFFFFF;}
	.st1{fill:#1A1A1A;}
</style>
<path class="st0" d="M12.8,32.5L12.8,32.5c0-0.4,0.1-0.8,0.2-1.2c1.5-5.1,22.6-6.3,30.6-6.4h1.7c8,0.1,29.1,1.3,30.6,6.4
	c0.1,0.4,0.2,0.8,0.2,1.2c0,0.1-0.2,0.8-0.4,2c-0.2,0.4-0.4,0.7-0.6,1.1c-2.4,3.3-9.3,7.1-21.8,9c-13-2.3-17.4-0.3-18.7,0.5
	c-10.5-1.5-17.7-5.6-20.4-9.3c-0.5-0.6-0.8-1.2-1-1.9C12.9,33.1,12.8,32.5,12.8,32.5z"/>
<path class="st0" d="M18.1,53.3c-2-5-3.6-11.9-4.5-16.4c4.3,5.3,15,9.2,26.8,9.8C33.3,52.3,35.8,59.5,37,62
	C33.5,61.6,20.8,59.9,18.1,53.3z"/>
<path class="st0" d="M71.3,52.9c-2.9,10.8-31.1,9.3-33.1,9.2c-0.8-1.5-4.8-9.6,4-15.4c16.2-0.9,28.2-4.4,32.9-9.6
	C74.1,41.4,72.6,47.8,71.3,52.9z"/>
<title>TG</title>
<path class="st1" d="M76.8,31c-0.9-2.9-6.5-5-16.7-6.2C52.7,24,45.4,24,45.3,24h-1.8c-0.1,0-7.4,0.1-14.9,0.9
	C18.5,26,12.9,28.1,12,31c-0.3,1-0.3,2.1,0.1,3.2c0.7,3.7,2.5,13.1,5.1,19.4c3.4,8.2,19.9,9.4,20.6,9.4l1,0.1l0,0
	c1,0.1,2.8,0.1,5,0.1c9.2,0,26.1-1.2,28.4-10.1c1.7-6.2,3.5-14.6,4.4-18.4C77.1,33.5,77.2,32.3,76.8,31z M12.8,32.5L12.8,32.5
	c0-0.4,0.1-0.8,0.2-1.2c1.5-5.1,22.6-6.3,30.6-6.4h1.7c8,0.1,29.1,1.3,30.6,6.4c0.1,0.4,0.2,0.8,0.2,1.2c0,0.1-0.2,0.8-0.4,2
	c-0.2,0.4-0.4,0.7-0.6,1.1c-2.4,3.3-9.3,7.1-21.8,9c-13-2.3-17.4-0.3-18.7,0.5c-10.5-1.5-17.7-5.6-20.4-9.3c-0.5-0.6-0.8-1.2-1-1.9
	C12.9,33.1,12.8,32.5,12.8,32.5z M49.7,45c-2.6,0.3-5.5,0.5-8.6,0.7c-1.7-0.1-3.3-0.2-4.8-0.4C38.1,44.7,42,44,49.7,45z M18.1,53.3
	c-2-5-3.6-11.9-4.5-16.4c4.3,5.3,15,9.2,26.8,9.8C33.3,52.2,35.8,59.5,37,62C33.5,61.6,20.8,59.8,18.1,53.3z M71.3,52.9
	c-2.9,10.8-31.1,9.3-33.1,9.2c-0.8-1.5-4.8-9.6,4-15.4c16.2-0.9,28.2-4.4,32.9-9.6C74.1,41.4,72.6,47.8,71.3,52.9z"/>
</svg>
