<?xml version="1.0" encoding="utf-8"?>
<!-- Generator: Adobe Illustrator 20.1.0, SVG Export Plug-In . SVG Version: 6.00 Build 0)  -->
<svg version="1.1" id="Calque_1" xmlns="http://www.w3.org/2000/svg" xmlns:xlink="http://www.w3.org/1999/xlink" x="0px" y="0px"
	 viewBox="0 0 90 90" style="enable-background:new 0 0 90 90;" xml:space="preserve">
<style type="text/css">
	.st0{fill:#FFFFFF;}
	.st1{fill:none;stroke:#1A1A1A;stroke-miterlimit:10;}
	.st2{fill:#1A1A1A;}
	.st3{fill:none;stroke:#F27786;stroke-width:2;stroke-miterlimit:10;}
</style>
<path class="st0" d="M64.6,20.6c-2.2-3.2-9.3-3.6-11.5-3.7c0.2-1.1-0.1-2.2-0.9-3.1L50.4,12c-0.4-0.5-1-0.6-1.4-0.5h-8.6
	c-0.3,0-0.6,0.1-0.8,0.2l0,0l-0.1,0.1c-0.2,0.1-0.4,0.3-0.4,0.4l-1.8,1.7c-0.8,0.8-1.1,2-0.8,3.1c-2.3,0.1-9.7,0.8-11.5,3.7
	c-2,3.1-11.9,20.7-10.3,28.4c1.5,7.1,5.2,23.7,5.3,23.8l0.1,0.5l7.6-2l0,1.5l0.1,0.1c0.1,0.2,3.1,4,15,4.4v0h1v0c0.3,0,0.6,0,1,0
	l0.3,0v0c0.3,0,0.5,0,0.7,0v0h1v0c12.1-0.4,15.1-4.3,15.3-4.4l0.1-0.1l0-1.5l7.6,2l0.1-0.5c0-0.2,3.8-16.7,5.3-23.8
	C76.4,41.8,67.6,24.9,64.6,20.6z M27.7,66.9c0,0-3.4-15.5-3.8-19.1c-0.5-3.6,4.3-6.3,4.3-6.3L27.7,66.9z M65.5,47.4
	C65,51,61.6,66.5,61.6,66.5l-0.5-25.5C61.2,41.1,65.9,43.7,65.5,47.4z"/>
<title>TG</title>
<path class="st1" d="M44.4,18.9c0,0-7.8-7.4-4.1-7.4H49C49,11.5,53.6,11,44.4,18.9z"/>
<path class="st1" d="M44.4,18.9l-4.9,5c-0.1,0.1-0.2,0.1-0.3,0c0,0,0-0.1-0.1-0.1l-2.2-7.1c-0.4-1-0.1-2.2,0.7-3l2.3-2.3"/>
<path class="st1" d="M45,18.9l4.9,5c0.1,0.1,0.2,0.1,0.3,0c0,0,0-0.1,0.1-0.1l2.2-7.1c0.4-1,0.1-2.2-0.7-3l-2-2"/>
<path class="st1" d="M52.4,17c0,0,9.4,0,11.9,3.5c2.9,4.3,11.9,21.2,10.3,28.5s-5.3,24.2-5.3,24.2l-7.6-2c0,0,1.5-16,3.5-21.6
	c2-5.6-4.1-8.6-4.1-8.6l0.5,32.2c0,0-3.2,4.3-17,4.3h0.3c-13.8,0-17-4.3-17-4.3L28.3,41c0,0-6.1,3-4.1,8.7s3.5,21.6,3.5,21.6l-7.6,2
	c0,0-3.8-16.9-5.3-24.2S22.3,25,25.1,20.6C27.1,17.4,37,17,37,17"/>
<path class="st1" d="M25.1,20.6c0,0,2.7-0.5,3.2,20.4"/>
<path class="st1" d="M64.3,20.6c0,0-2.7-0.5-3.2,20.4"/>
<path class="st1" d="M26,21.5c0,0,1.7-2.8,11.3-3.4"/>
<path class="st1" d="M63.3,21.5c0,0-1.7-2.8-11.3-3.4"/>
<line class="st1" x1="43.1" y1="78" x2="43.1" y2="20"/>
<line class="st1" x1="46.1" y1="78" x2="46.1" y2="20"/>
<polygon class="st1" points="49.1,30.5 58.1,30.5 58.1,39 53.6,41.7 49.1,39.1 "/>
<line class="st1" x1="18.8" y1="67.8" x2="27.1" y2="66.4"/>
<line class="st1" x1="70.2" y1="67.8" x2="61.8" y2="66.4"/>
<circle class="st2" cx="44.5" cy="26.9" r="0.4"/>
<circle class="st2" cx="44.5" cy="36.9" r="0.4"/>
<circle class="st2" cx="44.5" cy="47.9" r="0.4"/>
<circle class="st2" cx="44.5" cy="58.9" r="0.4"/>
<circle class="st2" cx="44.5" cy="69.9" r="0.4"/>
<circle class="st3" cx="23" cy="69.5" r="5.5"/>
</svg>
