<?xml version="1.0" encoding="utf-8"?>
<!-- Generator: Adobe Illustrator 20.1.0, SVG Export Plug-In . SVG Version: 6.00 Build 0)  -->
<svg version="1.1" id="Calque_1" xmlns="http://www.w3.org/2000/svg" xmlns:xlink="http://www.w3.org/1999/xlink" x="0px" y="0px"
	 viewBox="0 0 90 90" style="enable-background:new 0 0 90 90;" xml:space="preserve">
<style type="text/css">
	.st0{fill:#FFFFFF;stroke:#1A1A1A;stroke-miterlimit:10;}
	.st1{fill:#1A1A1A;}
</style>
<title>TG</title>
<polygon class="st0" points="64,65.4 57.1,72.4 15.6,72.4 9,65.4 9,9.2 64,9.2 "/>
<g>
	<polygon class="st1" points="36.5,31.1 8.8,19.3 9.2,18.4 36.5,30 63.8,18.4 64.2,19.3 	"/>
</g>
<polygon class="st0" points="80,73.4 73.1,80.4 31.6,80.4 25,73.4 25,17.2 80,17.2 "/>
<g>
	<rect x="55.8" y="41" class="st1" width="1" height="32"/>
</g>
<g>
	<rect x="47.8" y="41" class="st1" width="1" height="32"/>
</g>
<g>
	<polygon class="st1" points="52.5,39.1 24.8,27.3 25.2,26.4 52.5,38 79.8,26.4 80.2,27.3 	"/>
</g>
<g>
	<path class="st1" d="M52.8,34.9c-2,0-3.6-1.6-3.6-3.6s1.6-3.6,3.6-3.6s3.6,1.6,3.6,3.6S54.8,34.9,52.8,34.9z M52.8,28.4
		c-1.6,0-2.9,1.3-2.9,2.9s1.3,2.9,2.9,2.9s2.9-1.3,2.9-2.9S54.4,28.4,52.8,28.4z"/>
</g>
<g>
	<path class="st1" d="M52.8,33.8c-1.4,0-2.6-1.2-2.6-2.6s1.2-2.6,2.6-2.6s2.6,1.2,2.6,2.6S54.2,33.8,52.8,33.8z M52.8,29.4
		c-1,0-1.8,0.8-1.8,1.8s0.8,1.8,1.8,1.8s1.8-0.8,1.8-1.8S53.8,29.4,52.8,29.4z"/>
</g>
<circle class="st1" cx="52.8" cy="31.3" r="0.6"/>
</svg>
