<?xml version="1.0" encoding="utf-8"?>
<!-- Generator: Adobe Illustrator 20.1.0, SVG Export Plug-In . SVG Version: 6.00 Build 0)  -->
<svg version="1.1" id="Calque_1" xmlns="http://www.w3.org/2000/svg" xmlns:xlink="http://www.w3.org/1999/xlink" x="0px" y="0px"
	 viewBox="0 0 90 90" style="enable-background:new 0 0 90 90;" xml:space="preserve">
<style type="text/css">
	.st0{fill:#1A1A1A;}
</style>
<title>TG</title>
<g>
	<path class="st0" d="M44.1,74.6c-9.1,0-17.5-0.9-18.2-1l-0.4,0l0-0.4c-0.1-1.3-2.1-31.1,1.3-41.5c0.6-1.8,1.7-3.3,3.3-4.5
		c-4.7-1.8-15.9-6.4-15-9.3c1-3.4,13.9-6.7,26.6-6.7c8.1,0,25.1,1.2,25.8,4.7c0,0.2,0,0.5,0,0.7h0c0,0.4,0.1,41.1,0,51.6l0,0.2
		C65.6,73.4,54.5,74.6,44.1,74.6z M26.4,72.6c1.9,0.2,10.3,1,18.8,1c12.5-0.1,19.9-2,21.2-5.5c0.1-9.6,0-43.5,0-50.3
		c-0.7,0.5-1.5,0.9-2.3,1.2c-4.1,1.7-9.5,2.5-14.7,3.4c-9.6,1.5-19.6,3.1-21.7,9.6C24.6,41.5,26.2,68.9,26.4,72.6z M41.6,12.2
		c-13.9,0-24.9,3.5-25.6,5.9c-0.4,1.5,7.4,5.5,15.1,8.3c4.4-2.9,11.4-4,18.3-5.1c5.2-0.8,10.5-1.7,14.5-3.3c2.1-0.8,2.7-1.6,2.6-1.9
		C66.1,14.1,54,12.2,41.6,12.2z"/>
</g>
<g>
	<path class="st0" d="M25.6,72.7c-4.7-0.1-10.2-4.2-10.4-4.3L15,68.2V18h1v49.8c1,0.7,5.7,3.9,9.6,4L25.6,72.7z"/>
</g>
<g>
	<path class="st0" d="M35.8,45.6c-3.5,0-6.3-2.8-6.3-6.3s2.8-6.3,6.3-6.3s6.3,2.8,6.3,6.3S39.2,45.6,35.8,45.6z M35.8,34.1
		c-2.9,0-5.3,2.4-5.3,5.3c0,2.9,2.4,5.3,5.3,5.3s5.3-2.4,5.3-5.3C41,36.4,38.7,34.1,35.8,34.1z"/>
</g>
<g>
	<path class="st0" d="M35.8,43.7c-2.4,0-4.4-2-4.4-4.4s2-4.4,4.4-4.4s4.4,2,4.4,4.4S38.2,43.7,35.8,43.7z M35.8,36
		c-1.9,0-3.4,1.5-3.4,3.4s1.5,3.4,3.4,3.4s3.4-1.5,3.4-3.4S37.6,36,35.8,36z"/>
</g>
<circle class="st0" cx="35.8" cy="39.3" r="1"/>
<g>
	<path class="st0" d="M35.8,65.5c-3.5,0-6.3-2.8-6.3-6.3s2.8-6.3,6.3-6.3s6.3,2.8,6.3,6.3S39.2,65.5,35.8,65.5z M35.8,53.9
		c-2.9,0-5.3,2.4-5.3,5.3s2.4,5.3,5.3,5.3s5.3-2.4,5.3-5.3S38.7,53.9,35.8,53.9z"/>
</g>
<g>
	<path class="st0" d="M35.8,63.6c-2.4,0-4.4-2-4.4-4.4s2-4.4,4.4-4.4s4.4,2,4.4,4.4S38.2,63.6,35.8,63.6z M35.8,55.8
		c-1.9,0-3.4,1.5-3.4,3.4s1.5,3.4,3.4,3.4s3.4-1.5,3.4-3.4S37.6,55.8,35.8,55.8z"/>
</g>
<circle class="st0" cx="35.8" cy="59.2" r="1"/>
</svg>
