<svg xmlns="http://www.w3.org/2000/svg" width="19.88" height="19.656" viewBox="0 0 19.88 19.656">
  <defs>
    <style>
      .cls-1 {
        fill: #21304e;
        fill-rule: evenodd;
      }
    </style>
  </defs>
  <path id="compte" class="cls-1" d="M1258.76,110.741a5.855,5.855,0,0,0,2.17-5.508,6.009,6.009,0,0,0-11.93.914,5.863,5.863,0,0,0,2.24,4.594,9.38,9.38,0,0,0-6.18,8.077,0.993,0.993,0,0,0,.99,1.091,0.979,0.979,0,0,0,.99-0.875c0.4-4.388,3.82-6.989,7.96-6.989s7.56,2.6,7.96,6.989a0.979,0.979,0,0,0,.99.875,0.993,0.993,0,0,0,.99-1.091A9.38,9.38,0,0,0,1258.76,110.741Zm-3.76-.662a3.933,3.933,0,1,1,4-3.932A3.975,3.975,0,0,1,1255,110.079Z" transform="translate(-1245.06 -100.25)"/>
</svg>
