<svg xmlns="http://www.w3.org/2000/svg" width="204.969" height="23.75" viewBox="0 0 204.969 23.75">
  <defs>
    <style>
      .cls-1 {
        fill: #21304e;
        fill-rule: evenodd;
      }
    </style>
  </defs>
  <path id="logo" class="cls-1" d="M955.492,119.2l-1.812-1.3a6.934,6.934,0,0,1-2.05,1.02,8.065,8.065,0,0,1-2.454.379,7.724,7.724,0,0,1-3.176-.638,7.482,7.482,0,0,1-2.483-1.75,8.105,8.105,0,0,1-1.623-2.6,8.785,8.785,0,0,1-.583-3.215,9.222,9.222,0,0,1,.6-3.272,8.787,8.787,0,0,1,1.675-2.8,8.238,8.238,0,0,1,2.58-1.961,7.329,7.329,0,0,1,3.286-.733,5.884,5.884,0,0,1,2.08.368,16.986,16.986,0,0,1,1.952.855,3.533,3.533,0,0,1,1.815-1.032,14.808,14.808,0,0,1,.855,5.588H955.3a7.113,7.113,0,0,0-1.967-3.494,5.018,5.018,0,0,0-3.572-1.331,4.942,4.942,0,0,0-2.6.629,5.05,5.05,0,0,0-1.726,1.657,7.222,7.222,0,0,0-.954,2.388,12.817,12.817,0,0,0-.294,2.771,11.855,11.855,0,0,0,.342,2.916,7.254,7.254,0,0,0,1.044,2.4,5.435,5.435,0,0,0,1.737,1.638,4.705,4.705,0,0,0,2.449.616,5.781,5.781,0,0,0,1.546-.2,3.7,3.7,0,0,0,1.271-.61,2.933,2.933,0,0,0,.873-1.067,3.68,3.68,0,0,0,.316-1.579,2.264,2.264,0,0,0-2.574-2.549v-0.73h7.2v0.73q-2.244,0-2.241,1.861V119.2h-0.658Zm4.287-.264v-0.741c1.543,0,2.313-.526,2.313-1.588v-11.1q0-2.055-2.492-2.054v-0.758h13.228l0.2,4.585-0.78.094a5.72,5.72,0,0,0-.688-2.058,2.96,2.96,0,0,0-1.091-1.093A3.617,3.617,0,0,0,969,103.8q-0.833-.057-1.814-0.057h-0.7c-1.278,0-1.914.363-1.914,1.105v4.381a0.6,0.6,0,0,0,.6.737h0.858a9.081,9.081,0,0,0,1.171-.066,2.284,2.284,0,0,0,.959-0.319,1.849,1.849,0,0,0,.677-0.778,4.181,4.181,0,0,0,.365-1.434h0.934v6.345H969.2a5.9,5.9,0,0,0-.3-1.441,1.78,1.78,0,0,0-.576-0.807,2.176,2.176,0,0,0-.935-0.367,9.275,9.275,0,0,0-1.36-.086h-0.306c-0.772,0-1.153.271-1.153,0.812v4.681c0,0.927.668,1.391,2.01,1.391h0.786a11.3,11.3,0,0,0,2.556-.23,3.885,3.885,0,0,0,1.576-.735,3.685,3.685,0,0,0,.967-1.263q0.363-.755.746-1.789l0.677,0.2-0.677,4.854H959.779Zm24.133,0.364a8.264,8.264,0,0,1-3.3-.649A7.953,7.953,0,0,1,978,116.862a8.2,8.2,0,0,1-1.711-2.672,8.69,8.69,0,0,1-.618-3.27,8.881,8.881,0,0,1,.578-3.147,8.479,8.479,0,0,1,1.664-2.716,8.363,8.363,0,0,1,2.611-1.915,7.8,7.8,0,0,1,3.386-.717,8.929,8.929,0,0,1,3.386.621,7.84,7.84,0,0,1,4.422,4.373,8.641,8.641,0,0,1,.028,6.414,8.987,8.987,0,0,1-1.7,2.762,8.569,8.569,0,0,1-2.657,1.958A8.012,8.012,0,0,1,983.912,119.3Zm0.2-.931a4.588,4.588,0,0,0,4.079-2.157,7.168,7.168,0,0,0,.973-2.364,13.118,13.118,0,0,0,.317-2.927,12.782,12.782,0,0,0-.317-2.837,7.679,7.679,0,0,0-1-2.441,5.3,5.3,0,0,0-1.774-1.716,5.144,5.144,0,0,0-2.658-.647,4.607,4.607,0,0,0-2.432.609,4.773,4.773,0,0,0-1.608,1.646,7.1,7.1,0,0,0-.887,2.373,14.8,14.8,0,0,0-.263,2.817,12.809,12.809,0,0,0,.329,3.012,7.537,7.537,0,0,0,1,2.426A4.831,4.831,0,0,0,984.112,118.368Zm26.448-1.566a2.355,2.355,0,0,1-.13.709,2.63,2.63,0,0,1-.44.785,3.039,3.039,0,0,1-.7.639,1.715,1.715,0,0,1-.94.264,4.079,4.079,0,0,1-2.27-.5,2.976,2.976,0,0,1-1.09-1.631c-0.2-.619-0.4-1.286-0.6-2a13.834,13.834,0,0,0-.71-1.962,5.342,5.342,0,0,0-1.03-1.491,2.06,2.06,0,0,0-1.51-.6h-0.75a0.777,0.777,0,0,0-.784.271v5.319c0,1.062.774,1.588,2.314,1.588v0.741h-7.1v-0.741c1.477,0,2.211-.526,2.211-1.588V105.019q0-1.567-2.39-1.568v-0.758h3.15c0.55,0,1.023,0,1.408-.018s0.762-.019,1.12-0.033,0.75-.032,1.16-0.037,0.92-.011,1.5-0.011a6.727,6.727,0,0,1,2.05.3,5.262,5.262,0,0,1,1.64.85,4.357,4.357,0,0,1,1.1,1.273,3.222,3.222,0,0,1,.4,1.588,3.325,3.325,0,0,1-.33,1.519,3.441,3.441,0,0,1-.92,1.155,5.827,5.827,0,0,1-1.39.834,9.814,9.814,0,0,1-1.79.537v0.072a6.564,6.564,0,0,1,2,1.406,4.769,4.769,0,0,1,1.07,1.632c0.1,0.326.22,0.718,0.35,1.174a11.42,11.42,0,0,0,.47,1.3,4.35,4.35,0,0,0,.62,1.039,1.05,1.05,0,0,0,.85.434,1.135,1.135,0,0,0,.89-1.105Zm-9.04-6.74a10.537,10.537,0,0,0,1.46-.093,3.187,3.187,0,0,0,1.26-.447,2.6,2.6,0,0,0,.9-0.975,3.836,3.836,0,0,0,.33-1.743,3.233,3.233,0,0,0-.33-1.542,2.864,2.864,0,0,0-.89-0.969,3.627,3.627,0,0,0-1.19-.5,6.184,6.184,0,0,0-1.29-.148h-1.2c-0.645,0-.964.464-0.964,1.374V109.7a0.531,0.531,0,0,0,.6.364h1.31Zm24.09,9.137-1.82-1.3a6.863,6.863,0,0,1-2.06,1.02,7.969,7.969,0,0,1-2.45.379,7.722,7.722,0,0,1-3.17-.638,7.369,7.369,0,0,1-2.48-1.75,8.089,8.089,0,0,1-1.63-2.6,8.784,8.784,0,0,1-.58-3.215,9.374,9.374,0,0,1,.59-3.272,8.874,8.874,0,0,1,1.68-2.8,8.181,8.181,0,0,1,2.58-1.961,7.37,7.37,0,0,1,3.29-.733,5.928,5.928,0,0,1,2.08.368,17.427,17.427,0,0,1,1.95.855,3.5,3.5,0,0,1,1.82-1.032,15.023,15.023,0,0,1,.85,5.588h-0.85a7.226,7.226,0,0,0-1.97-3.494,5.049,5.049,0,0,0-3.58-1.331,4.941,4.941,0,0,0-2.59.629,5.125,5.125,0,0,0-1.73,1.657,7.049,7.049,0,0,0-.95,2.388,12.753,12.753,0,0,0-.29,2.771,12.417,12.417,0,0,0,.33,2.916,7.141,7.141,0,0,0,1.05,2.4,5.455,5.455,0,0,0,1.74,1.638,4.69,4.69,0,0,0,2.44.616,5.79,5.79,0,0,0,1.55-.2,3.724,3.724,0,0,0,1.27-.61,2.9,2.9,0,0,0,.87-1.067,3.592,3.592,0,0,0,.32-1.579,2.262,2.262,0,0,0-2.57-2.549v-0.73h7.2v0.73c-1.49,0-2.24.621-2.24,1.861V119.2h-0.65Zm4.28-.264v-0.741c1.54,0,2.31-.526,2.31-1.588v-11.1q0-2.055-2.49-2.054v-0.758h13.22l0.21,4.585-0.78.094a5.869,5.869,0,0,0-.68-2.058,3.079,3.079,0,0,0-1.1-1.093,3.648,3.648,0,0,0-1.47-.418c-0.56-.038-1.16-0.057-1.82-0.057h-0.7c-1.28,0-1.91.363-1.91,1.105v4.381a0.6,0.6,0,0,0,.6.737h0.86a9.312,9.312,0,0,0,1.17-.066,2.25,2.25,0,0,0,.95-0.319,1.894,1.894,0,0,0,.69-0.778,4.382,4.382,0,0,0,.36-1.434h0.93v6.345h-0.93a5.948,5.948,0,0,0-.31-1.441,1.742,1.742,0,0,0-.57-0.807,2.157,2.157,0,0,0-.94-0.367,9.177,9.177,0,0,0-1.35-.086h-0.31c-0.77,0-1.15.271-1.15,0.812v4.681c0,0.927.66,1.391,2.01,1.391h0.78a11.351,11.351,0,0,0,2.56-.23,3.87,3.87,0,0,0,1.57-.735,3.73,3.73,0,0,0,.97-1.263c0.24-.5.49-1.1,0.74-1.789l0.68,0.2-0.68,4.854h-13.42Zm-172.135-2.286V105.36a1.145,1.145,0,0,1,.494-1.022c5.627-2,10.43-4.569,11.635-4.995,1.7-.6,1.371,2.357,1.371,2.357s3.65-3.934,1.333-5.136-4.789.9-10.736,4.356a34.275,34.275,0,0,1-15.988,4.806c-4.4.151-6.1-2.178-6.719-.975s1.159,1.426,1.159,1.426c1,0.376,4.325,1.352,10.813.15,0.937-.174,1.882-0.395,2.823-0.644,1.41-.13,1.346.525,1.346,0.525v10.441c0,1.506-.9,2.253-2.693,2.253v0.741h7.885V118.9C858.661,118.9,857.755,118.155,857.755,116.649Zm20.13,1.862a2.328,2.328,0,0,1-.555-0.635l-5.966-14.55-0.763-.293-6.044,14.008a3.275,3.275,0,0,1-.87,1.275,2.066,2.066,0,0,1-1.246.489v0.838h5.668v-0.838c-1.479,0-2.212-.375-2.212-1.125a1.6,1.6,0,0,1,.1-0.639l0.858-2.543a1.042,1.042,0,0,1,1.155-.641h3.753a1.519,1.519,0,0,1,1.544.641l1.128,3.011a1.429,1.429,0,0,1,.14.449,2.29,2.29,0,0,0,.038.285,0.319,0.319,0,0,1-.215.257,2.275,2.275,0,0,1-.53.185,6.6,6.6,0,0,1-.7.12c-0.261.032-.513,0.068-0.742,0.1v0.741h6.9V118.9c-0.442-.111-0.781-0.2-1.017-0.255A1.522,1.522,0,0,1,877.885,118.511Zm-6.047-5.681h-3.175c-0.617,0-.932-0.125-0.932-0.369a2.459,2.459,0,0,1,.275-0.834l2.22-5.143,2.092,5.24a4,4,0,0,1,.278.812C872.6,112.733,872.34,112.83,871.838,112.83Zm13.4,4.386v-10.9q0-2.157,2.316-2.155V103.4h-7.282v0.759q2.493,0,2.492,2.155v10.9c0,1.121-.8,1.686-2.389,1.686v0.741h7.279V118.9C886.047,118.9,885.242,118.337,885.242,117.216ZM901.288,118a5.979,5.979,0,0,1-1.461.455,11.3,11.3,0,0,1-2.016.156h-1.159c-1.09,0-1.638-.343-1.638-1.025V106.021q0-1.863,2.32-1.862V103.4H890.05v0.759q2.5,0,2.5,1.862v11.562q0,1.32-2.215,1.319v0.741H903.2l0.757-5.053-0.679-.092C902.69,116.441,902.023,117.6,901.288,118Zm17.723-12.5a7.893,7.893,0,0,0-2.672-1.738,8.944,8.944,0,0,0-3.392-.621,7.78,7.78,0,0,0-3.38.717,8.306,8.306,0,0,0-4.275,4.631,8.873,8.873,0,0,0-.576,3.146,8.674,8.674,0,0,0,.614,3.271,8.227,8.227,0,0,0,1.714,2.671,7.91,7.91,0,0,0,2.605,1.788,8.256,8.256,0,0,0,3.3.65,8,8,0,0,0,3.481-.746,8.479,8.479,0,0,0,2.655-1.958,8.978,8.978,0,0,0,1.7-2.762,8.508,8.508,0,0,0,.605-3.109,8.627,8.627,0,0,0-.625-3.306A7.986,7.986,0,0,0,919.011,105.492Zm-0.812,9.063a7.045,7.045,0,0,1-.967,2.364,4.591,4.591,0,0,1-4.079,2.157,5.083,5.083,0,0,1-2.494-.588,5.028,5.028,0,0,1-1.74-1.619,7.61,7.61,0,0,1-1.006-2.425,13.091,13.091,0,0,1-.324-3.012,14.638,14.638,0,0,1,.261-2.817,7.172,7.172,0,0,1,.885-2.374,4.79,4.79,0,0,1,1.611-1.646,4.588,4.588,0,0,1,2.427-.609,5.153,5.153,0,0,1,2.661.648,5.326,5.326,0,0,1,1.776,1.715,7.593,7.593,0,0,1,.989,2.442,12.317,12.317,0,0,1,.32,2.836A12.664,12.664,0,0,1,918.2,114.555Zm20.828,2.758a1.135,1.135,0,0,1-.885,1.106,1.071,1.071,0,0,1-.858-0.435,4.438,4.438,0,0,1-.617-1.038,9.965,9.965,0,0,1-.462-1.3c-0.136-.456-0.257-0.849-0.353-1.174a4.863,4.863,0,0,0-1.073-1.632,6.485,6.485,0,0,0-2-1.406V111.36a9.567,9.567,0,0,0,1.786-.537,5.665,5.665,0,0,0,1.4-.834,3.377,3.377,0,0,0,.919-1.155,3.339,3.339,0,0,0,.333-1.519,3.226,3.226,0,0,0-.4-1.588,4.2,4.2,0,0,0-1.092-1.273,5.356,5.356,0,0,0-1.651-.85,6.73,6.73,0,0,0-2.051-.3c-0.582,0-1.082,0-1.493.01s-0.8.02-1.158,0.038-0.735.029-1.124,0.033-0.856.017-1.4,0.017h-3.148v0.759c1.593,0,2.386.523,2.386,1.568v11.586c0,1.062-.741,1.589-2.212,1.589v0.741h7.1V118.9c-1.545,0-2.317-.527-2.317-1.589v-5.319a0.77,0.77,0,0,1,.776-0.27h0.757a2.052,2.052,0,0,1,1.511.6,5.113,5.113,0,0,1,1.018,1.49,13.8,13.8,0,0,1,.724,1.962c0.2,0.71.4,1.378,0.6,2a2.946,2.946,0,0,0,1.083,1.631,4.079,4.079,0,0,0,2.266.5,1.751,1.751,0,0,0,.945-0.264A3.309,3.309,0,0,0,939.04,119a2.515,2.515,0,0,0,.424-0.785,2.317,2.317,0,0,0,.14-0.71Zm-7.013-6.636a10.337,10.337,0,0,1-1.453.093h-1.314a0.533,0.533,0,0,1-.6-0.364v-4.679c0-.911.316-1.374,0.957-1.374h1.211a6.11,6.11,0,0,1,1.282.148,3.644,3.644,0,0,1,1.2.5,2.66,2.66,0,0,1,.876.969,3.117,3.117,0,0,1,.34,1.542,3.7,3.7,0,0,1-.34,1.743,2.426,2.426,0,0,1-.892.975A3.187,3.187,0,0,1,932.014,110.677Z" transform="translate(-839.031 -96.25)"/>
</svg>
