<?xml version="1.0" encoding="utf-8"?>
<!-- Generator: Adobe Illustrator 20.1.0, SVG Export Plug-In . SVG Version: 6.00 Build 0)  -->
<svg version="1.1" id="Calque_1" xmlns="http://www.w3.org/2000/svg" xmlns:xlink="http://www.w3.org/1999/xlink" x="0px" y="0px"
	 viewBox="0 0 90 90" style="enable-background:new 0 0 90 90;" xml:space="preserve">
<style type="text/css">
	.st0{fill:#FFFFFF;}
	.st1{fill:#1A1A1A;}
</style>
<path class="st0" d="M8.4,13.6v58.2c0,0,7,4.4,18.1-6.7c0,0,5.5-7.6,15.1-7.6s16.2,4.2,19.4,6.4s10,8.9,18.5,7.6
	c0-6.1,0-56.2,0-56.2S38.7,27,8.4,13.6z"/>
<title>TG</title>
<path class="st1" d="M79,15v56.1c-1.7,0.2-8.3,0.6-13.4-4.1c-7.1-6.5-15.9-10.1-23.8-9.9V20h-1v37.1c-5.6,0.4-10.4,2.8-14,6.9
	c-5.1,5.8-9.7,7.6-12.7,8c-2.5,0.4-4.3-0.1-5-0.3V13H8v59.3l0.3,0.1c0.1,0.1,1.6,0.7,3.9,0.7c3.5,0,9.1-1.4,15.3-8.5
	c3.5-4,8.2-6.3,13.6-6.6c7.8-0.4,16.7,3.2,23.8,9.6c6.3,5.7,14.4,4.4,14.7,4.3l0.4-0.1V15H79z"/>
</svg>
