<?xml version="1.0" encoding="utf-8"?>
<!-- Generator: Adobe Illustrator 20.1.0, SVG Export Plug-In . SVG Version: 6.00 Build 0)  -->
<svg version="1.1" id="Calque_1" xmlns="http://www.w3.org/2000/svg" xmlns:xlink="http://www.w3.org/1999/xlink" x="0px" y="0px"
	 viewBox="0 0 30 78.7" style="enable-background:new 0 0 30 78.7;" xml:space="preserve">
<style type="text/css">
	.st0{opacity:0.1;fill:#FFFFFF;stroke:#212121;stroke-width:0.5;stroke-miterlimit:10;enable-background:new    ;}
</style>
<path class="st0" d="M17.3,10.9h2.8l0,0h1c1,0,1.9-0.8,1.9-1.9s-0.8-1.9-1.9-1.9h-1l0,0h-2.8c-0.1,0-0.1-0.1-0.1-0.1l0.1-0.1h2.8
	l0,0h1c1,0,1.9-0.8,1.9-1.9s-0.8-1.9-1.9-1.9h-5h-1.8h-6c-1,0-1.9,0.8-1.9,1.9s0.8,1.9,1.9,1.9h1l0,0h2.8c0.1,0,0.1,0.1,0.1,0.1
	l-0.1,0.1H9.3l0,0h-1c-1,0-1.9,0.8-1.9,1.9s0.8,1.9,1.9,1.9h1l0,0h2.8c0.1,0,0.1,0.1,0.1,0.1l-0.1,0.1H9.3l0,0h-1
	c-1,0-1.9,0.8-1.9,1.9s0.8,1.9,1.9,1.9h1l0,0h2.8c0.1,0,0.1,0.1,0.1,0.1l-0.1,0.1H9.3l0,0h-1c-1,0-1.9,0.8-1.9,1.9s0.8,1.9,1.9,1.9
	h1l0,0h2.8c0.1,0,0.1,0.1,0.1,0.1l-0.1,0.1H9.3l0,0h-1c-1,0-1.9,0.8-1.9,1.9s0.8,1.9,1.9,1.9h1l0,0h2.8c0.1,0,0.1,0.1,0.1,0.1
	l-0.1,0.1H9.3l0,0h-1c-1,0-1.9,0.8-1.9,1.9s0.8,1.9,1.9,1.9h1l0,0h2.8c0.1,0,0.1,0.1,0.1,0.1l-0.1,0.1H9.3l0,0h-1
	c-1,0-1.9,0.8-1.9,1.9s0.8,1.9,1.9,1.9h1l0,0h2.8c0.1,0,0.1,0.1,0.1,0.1l-0.1,0.1H9.3l0,0h-1c-1,0-1.9,0.8-1.9,1.9
	c0,1.1,0.8,1.9,1.9,1.9h1l0,0h2.8c0.1,0,0.1,0.1,0.1,0.1l-0.1,0.1H9.3l0,0h-1c-1,0-1.9,0.8-1.9,1.9s0.8,1.9,1.9,1.9h1l0,0h2.8
	c0.1,0,0.1,0.1,0.1,0.1l-0.1,0.1H9.3l0,0h-1c-1,0-1.9,0.8-1.9,1.9s0.8,1.9,1.9,1.9h1l0,0h2.8c0.1,0,0.1,0.1,0.1,0.1l-0.1,0.1H9.3
	l0,0h-1c-1,0-1.9,0.8-1.9,1.9s0.8,1.9,1.9,1.9h1l0,0h2.8c0.1,0,0.1,0.1,0.1,0.1l-0.1,0.1H9.3l0,0h-1c-1,0-1.9,0.8-1.9,1.9
	s0.8,1.9,1.9,1.9h1l0,0h2.8c0.1,0,0.1,0.1,0.1,0.1l-0.1,0.1H9.3l0,0h-1c-1,0-1.9,0.8-1.9,1.9s0.8,1.9,1.9,1.9h1l0,0h2.8
	c0.1,0,0.1,0.1,0.1,0.1l-0.1,0.1H9.3l0,0h-1c-1,0-1.9,0.8-1.9,1.9s0.8,1.9,1.9,1.9h1l0,0h2.8c0.1,0,0.1,0.1,0.1,0.1l-0.1,0.1H9.3
	l0,0h-1c-1,0-1.9,0.8-1.9,1.9s0.8,1.9,1.9,1.9h1l0,0h2.8c0.1,0,0.1,0.1,0.1,0.1l-0.1,0.1H9.3l0,0h-1c-1,0-1.9,0.8-1.9,1.9
	c0,1.1,0.8,1.9,1.9,1.9h1l0,0h2.8c0.1,0,0.1,0.1,0.1,0.1l-0.1,0.1H9.3l0,0h-1c-1,0-1.9,0.8-1.9,1.9s0.8,1.9,1.9,1.9h1l0,0h2.8
	c0.1,0,0.1,0.1,0.1,0.1l-0.1,0.1H9.3l0,0h-1c-1,0-1.9,0.8-1.9,1.9s0.8,1.9,1.9,1.9h12.8c1,0,1.9-0.8,1.9-1.9s-0.8-1.9-1.9-1.9h-1
	l0,0h-2.8c-0.1,0-0.1-0.1-0.1-0.1l0.1-0.1h2.8l0,0h1c1,0,1.9-0.8,1.9-1.9s-0.8-1.9-1.9-1.9h-1l0,0h-2.8c-0.1,0-0.1-0.1-0.1-0.1
	l0.1-0.1h2.8l0,0h1c1,0,1.9-0.8,1.9-1.9s-0.8-1.9-1.9-1.9h-1l0,0h-2.8c-0.1,0-0.1-0.1-0.1-0.1l0.1-0.1h2.8l0,0h1
	c1,0,1.9-0.8,1.9-1.9s-0.8-1.9-1.9-1.9h-1l0,0h-2.8c-0.1,0-0.1-0.1-0.1-0.1l0.1-0.1h2.8l0,0h1c1,0,1.9-0.8,1.9-1.9s-0.8-1.9-1.9-1.9
	h-1l0,0h-2.8c-0.1,0-0.1-0.1-0.1-0.1l0.1-0.1h2.8l0,0h1c1,0,1.9-0.8,1.9-1.9s-0.8-1.9-1.9-1.9h-1l0,0h-2.8c-0.1,0-0.1-0.1-0.1-0.1
	l0.1-0.1h2.8l0,0h1c1,0,1.9-0.8,1.9-1.9s-0.8-1.9-1.9-1.9h-1l0,0h-2.8c-0.1,0-0.1-0.1-0.1-0.1l0.1-0.1h2.8l0,0h1
	c1,0,1.9-0.8,1.9-1.9s-0.8-1.9-1.9-1.9h-1l0,0h-2.8c-0.1,0-0.1-0.1-0.1-0.1l0.1-0.1h2.8l0,0h1c1,0,1.9-0.8,1.9-1.9s-0.8-1.9-1.9-1.9
	h-1l0,0h-2.8c-0.1,0-0.1-0.1-0.1-0.1l0.1-0.1h2.8l0,0h1c1,0,1.9-0.8,1.9-1.9s-0.8-1.9-1.9-1.9h-1l0,0h-2.8c-0.1,0-0.1-0.1-0.1-0.1
	l0.1-0.1h2.8l0,0h1c1,0,1.9-0.8,1.9-1.9s-0.8-1.9-1.9-1.9h-1l0,0h-2.8c-0.1,0-0.1-0.1-0.1-0.1l0.1-0.1h2.8l0,0h1
	c1,0,1.9-0.8,1.9-1.9s-0.8-1.9-1.9-1.9h-1l0,0h-2.8c-0.1,0-0.1-0.1-0.1-0.1l0.1-0.1h2.8l0,0h1c1,0,1.9-0.8,1.9-1.9s-0.8-1.9-1.9-1.9
	h-1l0,0h-2.8c-0.1,0-0.1-0.1-0.1-0.1l0.1-0.1h2.8l0,0h1c1,0,1.9-0.8,1.9-1.9s-0.8-1.9-1.9-1.9h-1l0,0h-2.8c-0.1,0-0.1-0.1-0.1-0.1
	l0.1-0.1h2.8l0,0h1c1,0,1.9-0.8,1.9-1.9s-0.8-1.9-1.9-1.9h-1l0,0h-2.8c-0.1,0-0.1-0.1-0.1-0.1l0.1-0.1h2.8l0,0h1
	c1,0,1.9-0.8,1.9-1.9s-0.8-1.9-1.9-1.9h-1l0,0h-2.8C17.2,11.1,17.2,11,17.3,10.9L17.3,10.9z M17.3,12.9h2l0,0h1.8
	c0.1,0,0.1,0.1,0.1,0.1l-0.1,0.1h-2.8l0,0h-1c-1,0-1.9,0.8-1.9,1.9s0.8,1.9,1.9,1.9h2l0,0h1.8c0.1,0,0.1,0.1,0.1,0.1l-0.1,0.1h-2.8
	l0,0h-1c-1,0-1.9,0.8-1.9,1.9s0.8,1.9,1.9,1.9h2l0,0h1.8c0.1,0,0.1,0.1,0.1,0.1l-0.1,0.1h-2.8l0,0h-1c-1,0-1.9,0.8-1.9,1.9
	s0.8,1.9,1.9,1.9h2l0,0h1.8c0.1,0,0.1,0.1,0.1,0.1l-0.1,0.1h-2.8l0,0h-1c-1,0-1.9,0.8-1.9,1.9s0.8,1.9,1.9,1.9h2l0,0h1.8
	c0.1,0,0.1,0.1,0.1,0.1l-0.1,0.1h-2.8l0,0h-1c-1,0-1.9,0.8-1.9,1.9c0,1.1,0.8,1.9,1.9,1.9h2l0,0h1.8c0.1,0,0.1,0.1,0.1,0.1l-0.1,0.1
	h-2.8l0,0h-1c-1,0-1.9,0.8-1.9,1.9s0.8,1.9,1.9,1.9h2l0,0h1.8c0.1,0,0.1,0.1,0.1,0.1l-0.1,0.1h-2.8l0,0h-1c-1,0-1.9,0.8-1.9,1.9
	s0.8,1.9,1.9,1.9h2l0,0h1.8c0.1,0,0.1,0.1,0.1,0.1l-0.1,0.1h-2.8l0,0h-1c-1,0-1.9,0.8-1.9,1.9s0.8,1.9,1.9,1.9h2l0,0h1.8
	c0.1,0,0.1,0.1,0.1,0.1l-0.1,0.1h-2.8l0,0h-1c-1,0-1.9,0.8-1.9,1.9s0.8,1.9,1.9,1.9h2l0,0h1.8c0.1,0,0.1,0.1,0.1,0.1l-0.1,0.1h-2.8
	l0,0h-1c-1,0-1.9,0.8-1.9,1.9s0.8,1.9,1.9,1.9h2l0,0h1.8c0.1,0,0.1,0.1,0.1,0.1l-0.1,0.1h-2.8l0,0h-1c-1,0-1.9,0.8-1.9,1.9
	s0.8,1.9,1.9,1.9h2l0,0h1.8c0.1,0,0.1,0.1,0.1,0.1l-0.1,0.1h-2.8l0,0h-1c-1,0-1.9,0.8-1.9,1.9s0.8,1.9,1.9,1.9h2l0,0h1.8
	c0.1,0,0.1,0.1,0.1,0.1l-0.1,0.1h-2.8l0,0h-1c-1,0-1.9,0.8-1.9,1.9c0,1.1,0.8,1.9,1.9,1.9h2l0,0h1.8c0.1,0,0.1,0.1,0.1,0.1l-0.1,0.1
	h-2.8l0,0h-1c-1,0-1.9,0.8-1.9,1.9s0.8,1.9,1.9,1.9h2l0,0h1.8c0.1,0,0.1,0.1,0.1,0.1l-0.1,0.1h-2.8l0,0h-1c-1,0-1.9,0.8-1.9,1.9
	s0.8,1.9,1.9,1.9h2l0,0h1.8c0.1,0,0.1,0.1,0.1,0.1l-0.1,0.1H8.3c-0.1,0-0.1-0.1-0.1-0.1l0.1-0.1h1.8l0,0h2c1,0,1.9-0.8,1.9-1.9
	s-0.8-1.9-1.9-1.9h-1l0,0H8.3c-0.1,0-0.1-0.1-0.1-0.1l0.1-0.1h1.8l0,0h2c1,0,1.9-0.8,1.9-1.9s-0.8-1.9-1.9-1.9h-1l0,0H8.3
	c-0.1,0-0.1-0.1-0.1-0.1l0.1-0.1h1.8l0,0h2c1,0,1.9-0.8,1.9-1.9s-0.8-1.9-1.9-1.9h-1l0,0H8.3c-0.1,0-0.1-0.1-0.1-0.1l0.1-0.1h1.8
	l0,0h2c1,0,1.9-0.8,1.9-1.9s-0.8-1.9-1.9-1.9h-1l0,0H8.3c-0.1,0-0.1-0.1-0.1-0.1l0.1-0.1h1.8l0,0h2c1,0,1.9-0.8,1.9-1.9
	s-0.8-1.9-1.9-1.9h-1l0,0H8.3c-0.1,0-0.1-0.1-0.1-0.1l0.1-0.1h1.8l0,0h2c1,0,1.9-0.8,1.9-1.9s-0.8-1.9-1.9-1.9h-1l0,0H8.3
	c-0.1,0-0.1-0.1-0.1-0.1l0.1-0.1h1.8l0,0h2c1,0,1.9-0.8,1.9-1.9s-0.8-1.9-1.9-1.9h-1l0,0H8.3c-0.1,0-0.1-0.1-0.1-0.1l0.1-0.1h1.8
	l0,0h2c1,0,1.9-0.8,1.9-1.9s-0.8-1.9-1.9-1.9h-1l0,0H8.3c-0.1,0-0.1-0.1-0.1-0.1l0.1-0.1h1.8l0,0h2c1,0,1.9-0.8,1.9-1.9
	s-0.8-1.9-1.9-1.9h-1l0,0H8.3c-0.1,0-0.1-0.1-0.1-0.1l0.1-0.1h1.8l0,0h2c1,0,1.9-0.8,1.9-1.9s-0.8-1.9-1.9-1.9h-1l0,0H8.3
	c-0.1,0-0.1-0.1-0.1-0.1l0.1-0.1h1.8l0,0h2c1,0,1.9-0.8,1.9-1.9s-0.8-1.9-1.9-1.9h-1l0,0H8.3c-0.1,0-0.1-0.1-0.1-0.1l0.1-0.1h1.8
	l0,0h2c1,0,1.9-0.8,1.9-1.9s-0.8-1.9-1.9-1.9h-1l0,0H8.3c-0.1,0-0.1-0.1-0.1-0.1l0.1-0.1h1.8l0,0h2c1,0,1.9-0.8,1.9-1.9
	s-0.8-1.9-1.9-1.9h-1l0,0H8.3c-0.1,0-0.1-0.1-0.1-0.1l0.1-0.1h1.8l0,0h2c1,0,1.9-0.8,1.9-1.9s-0.8-1.9-1.9-1.9h-1l0,0H8.3
	c-0.1,0-0.1-0.1-0.1-0.1l0.1-0.1h1.8l0,0h2c1,0,1.9-0.8,1.9-1.9s-0.8-1.9-1.9-1.9h-1l0,0H8.3c-0.1,0-0.1-0.1-0.1-0.1l0.1-0.1h1.8
	l0,0h2c1,0,1.9-0.8,1.9-1.9s-0.8-1.9-1.9-1.9h-1l0,0H8.3C8.2,9.1,8.2,9,8.2,9l0.1-0.1h1.8l0,0h2c1,0,1.9-0.8,1.9-1.9
	s-0.8-1.9-1.9-1.9h-2l0,0H8.3C8.2,5.1,8.2,5,8.2,5l0.1-0.1h6h1.8h5c0.1,0,0.1,0.1,0.1,0.1l-0.1,0.1h-1.8l0,0h-2
	c-1,0-1.9,0.8-1.9,1.9s0.8,1.9,1.9,1.9h2l0,0h1.8c0.1,0,0.1,0.1,0.1,0.1l-0.1,0.1h-2.8l0,0h-1c-1,0-1.9,0.8-1.9,1.9
	S16.3,12.9,17.3,12.9z"/>
</svg>
