<?xml version="1.0" encoding="utf-8"?>
<!-- Generator: Adobe Illustrator 20.1.0, SVG Export Plug-In . SVG Version: 6.00 Build 0)  -->
<svg version="1.1" id="Calque_1" xmlns="http://www.w3.org/2000/svg" xmlns:xlink="http://www.w3.org/1999/xlink" x="0px" y="0px"
	 viewBox="0 0 90 90" style="enable-background:new 0 0 90 90;" xml:space="preserve">
<style type="text/css">
	.st0{fill:#FFFFFF;}
	.st1{fill:#1A1A1A;}
	.st2{fill:none;stroke:#1A1A1A;stroke-miterlimit:10;}
</style>
<g>
	<path class="st0" d="M15.4,18.8c3.1-5.2,18.7-7.8,26.5-7.8h2.9c7.8,0,23.4,2.6,26.5,7.8c0.7,1.1,0.7,2.3,0,3.5
		c-1.4,2.7-4.8,5.5-8.5,8.1c-12.7-3.4-26.2-3.4-38.9,0c-3.8-2.5-7.1-5.3-8.5-8.1c-0.3-0.6-0.5-1.1-0.5-1.7c0-0.1,0-0.2,0-0.2l0,0
		C14.9,19.9,15.1,19.3,15.4,18.8z"/>
	<path class="st0" d="M20.5,75.5C12.1,63.4,8,55.1,8.4,50.9c0.5-5.2,4.6-22.3,6-28.3c0,0,0,0.1,0.1,0.1c3.9,7.5,20.7,15.2,23.9,16.6
		C36.3,43.3,23.1,68.5,20.5,75.5z"/>
	<path class="st0" d="M32.9,52c2.7-5.3,5.1-9.9,6.1-11.8c1.5,0.2,2.9,0.4,4.4,0.4c1.5,0,2.9-0.1,4.4-0.4c1,1.9,3.4,6.5,6.1,11.8
		C45.1,55.8,35.2,52.8,32.9,52z"/>
	<path class="st0" d="M66.3,75.5c-2.6-7-15.8-32.2-17.9-36.1c3.2-1.4,19.9-9.2,23.8-16.6c0-0.1,0.1-0.2,0.1-0.2
		c1.5,6,5.6,23.1,6,28.4C78.8,55.1,74.7,63.4,66.3,75.5z"/>
</g>
<title>TG</title>
<path class="st1" d="M79.4,50.8c-0.6-6.4-6.3-29.3-6.6-30.6c0-0.7-0.3-1.3-0.6-2C68.7,12.5,52.4,10,44.8,10h-2.9
	c-7.6,0-23.9,2.5-27.4,8.2c-0.4,0.7-0.7,1.5-0.7,2.3c-0.7,3-5.9,24.2-6.5,30.3c-0.4,4.5,3.9,13.3,12.9,26l0.6,0.9l0.3-1
	c0.8-3,6.5-14.4,11.3-23.8c1.4,0.5,6.1,2,11.7,2c3.2,0,6.8-0.5,10.2-2c4.8,9.4,10.5,20.8,11.3,23.8l0.3,1l0.6-0.9
	C75.5,64.1,79.8,55.4,79.4,50.8z M15.4,18.8c3.1-5.2,18.7-7.8,26.5-7.8h2.9c7.8,0,23.4,2.6,26.5,7.8c0.7,1.1,0.7,2.3,0,3.5
	c-1.4,2.7-4.8,5.5-8.5,8.1c-12.7-3.4-26.2-3.4-38.9,0c-3.8-2.5-7.1-5.3-8.5-8.1c-0.3-0.6-0.5-1.1-0.5-1.7c0-0.1,0-0.2,0-0.2l0,0
	C14.9,19.9,15.1,19.3,15.4,18.8z M47.5,38.6L47,38.9l0.2,0.5c-2.6,0.4-5.2,0.4-7.8,0l0.2-0.5l-0.5-0.2c-0.1-0.1-7.6-3.3-14.2-7.6
	c12-3,24.7-3,36.7,0C55.1,35.4,47.7,38.6,47.5,38.6z M20.5,75.5C12.1,63.4,8,55.1,8.4,50.9c0.5-5.2,4.6-22.3,6-28.3
	c0,0,0,0.1,0.1,0.1c3.9,7.5,20.7,15.2,23.9,16.6C36.3,43.3,23.1,68.5,20.5,75.5z M32.9,52c2.7-5.3,5.1-9.9,6.1-11.8
	c1.5,0.2,2.9,0.4,4.4,0.4c1.5,0,2.9-0.1,4.4-0.4c1,1.9,3.4,6.5,6.1,11.8C45.1,55.8,35.2,52.8,32.9,52z M66.3,75.5
	c-2.6-7-15.8-32.2-17.9-36.1c3.2-1.4,19.9-9.2,23.8-16.6c0-0.1,0.1-0.2,0.1-0.2c1.5,6,5.6,23.1,6,28.4
	C78.8,55.1,74.7,63.4,66.3,75.5z"/>
<ellipse class="st2" cx="43.2" cy="48" rx="3.2" ry="2.1"/>
<ellipse class="st1" cx="43.2" cy="48.1" rx="0.7" ry="0.4"/>
<ellipse class="st2" cx="20.2" cy="69" rx="1.7" ry="1.4"/>
<ellipse class="st1" cx="20.2" cy="69.1" rx="0.7" ry="0.4"/>
<ellipse class="st2" cx="66.2" cy="69" rx="1.7" ry="1.4"/>
<ellipse class="st1" cx="66.2" cy="69.1" rx="0.7" ry="0.4"/>
<rect x="46.5" y="47.2" class="st1" width="1.3" height="1.1"/>
</svg>
