<?xml version="1.0" encoding="utf-8"?>
<!-- Generator: Adobe Illustrator 20.1.0, SVG Export Plug-In . SVG Version: 6.00 Build 0)  -->
<svg version="1.1" id="Calque_1" xmlns="http://www.w3.org/2000/svg" xmlns:xlink="http://www.w3.org/1999/xlink" x="0px" y="0px"
	 viewBox="0 0 90 90" style="enable-background:new 0 0 90 90;" xml:space="preserve">
<style type="text/css">
	.st0{fill:#FFFFFF;}
	.st1{fill:none;stroke:#1A1A1A;stroke-miterlimit:10;}
	.st2{fill:#1A1A1A;}
</style>
<g>
	<path class="st0" d="M15.4,18.8c3.1-5.2,18.7-7.8,26.5-7.8h2.9c7.8,0,23.4,2.6,26.5,7.8c0.7,1.1,0.7,2.3,0,3.5
		c-1.4,2.7-4.8,5.5-8.5,8.1c-12.7-3.4-26.2-3.4-38.9,0c-3.8-2.5-7.1-5.3-8.5-8.1c-0.3-0.6-0.5-1.1-0.5-1.7c0-0.1,0-0.2,0-0.2l0,0
		C14.9,19.9,15,19.3,15.4,18.8z"/>
	<path class="st0" d="M20.5,75.5C12,63.4,7.9,55.1,8.3,50.9c0.5-5.2,4.6-22.3,6-28.3c0,0,0,0.1,0.1,0.1c3.9,7.5,20.7,15.2,23.9,16.6
		C36.3,43.3,23,68.5,20.5,75.5z"/>
	<path class="st0" d="M30.2,57.3c1.3-2.5,2.6-5,3.7-7.3v7.9C32.6,57.9,31.4,57.7,30.2,57.3z"/>
	<path class="st0" d="M34.9,58.5V48.1c1.8-3.5,3.3-6.4,4.1-7.8c1.5,0.2,2.9,0.4,4.4,0.4c1.5,0,2.9-0.1,4.4-0.4
		c1.3,2.5,5.2,9.9,9,17.4C50.1,59.7,37.5,58.8,34.9,58.5z"/>
	<path class="st0" d="M66.3,75.5c-2.6-7-15.8-32.2-17.9-36.1c3.2-1.4,19.9-9.2,23.8-16.6c0-0.1,0.1-0.2,0.1-0.2
		c1.5,6,5.6,23.1,6,28.4C78.8,55.1,74.7,63.4,66.3,75.5z"/>
</g>
<title>TG</title>
<ellipse class="st1" cx="20.2" cy="69" rx="1.7" ry="1.4"/>
<ellipse class="st2" cx="20.2" cy="69.1" rx="0.7" ry="0.4"/>
<ellipse class="st1" cx="66.2" cy="69" rx="1.7" ry="1.4"/>
<ellipse class="st2" cx="66.2" cy="69.1" rx="0.7" ry="0.4"/>
<ellipse class="st1" cx="42.2" cy="47" rx="3.2" ry="2.1"/>
<ellipse class="st2" cx="42.2" cy="47.1" rx="0.7" ry="0.4"/>
<rect x="45.5" y="46.2" class="st2" width="1.3" height="1.1"/>
<ellipse class="st1" cx="47.2" cy="54" rx="3.2" ry="2.1"/>
<ellipse class="st2" cx="47.2" cy="54.1" rx="0.7" ry="0.4"/>
<rect x="50.5" y="53.2" class="st2" width="1.3" height="1.1"/>
<path class="st2" d="M79.4,50.8c-0.6-6.4-6.3-29.3-6.6-30.6c0-0.7-0.3-1.3-0.6-2C68.7,12.5,52.4,10,44.8,10h-2.9
	c-7.6,0-23.9,2.5-27.4,8.2c-0.4,0.7-0.7,1.5-0.7,2.3c-0.7,3-5.9,24.2-6.5,30.3c-0.4,4.5,3.9,13.3,12.9,26l0.6,0.9l0.3-1
	c0.7-2.5,4.6-10.5,8.6-18.5c1.3,0.4,2.6,0.7,3.9,0.7c0.1,0,0.2,0,0.3,0v0.6l0.5,0c0.3,0,4.9,0.5,10.2,0.5c4.4,0,9.2-0.3,12.6-1.4
	c4,7.9,7.8,15.7,8.4,18.1l0.3,1l0.6-0.9C75.5,64.1,79.8,55.4,79.4,50.8z M15.4,18.8c3.1-5.2,18.7-7.8,26.5-7.8h2.9
	c7.8,0,23.4,2.6,26.5,7.8c0.7,1.1,0.7,2.3,0,3.5c-1.4,2.7-4.8,5.5-8.5,8.1c-12.7-3.4-26.2-3.4-38.9,0c-3.8-2.5-7.1-5.3-8.5-8.1
	c-0.3-0.6-0.5-1.1-0.5-1.7c0-0.1,0-0.2,0-0.2l0,0C14.9,19.9,15.1,19.3,15.4,18.8z M47.5,38.6L47,38.9l0.2,0.5
	c-2.6,0.4-5.2,0.4-7.8,0l0.2-0.5l-0.5-0.2c-0.1-0.1-7.6-3.3-14.2-7.6c12-3,24.7-3,36.7,0C55.1,35.4,47.7,38.6,47.5,38.6z M20.5,75.5
	C12.1,63.4,8,55.1,8.4,50.9c0.5-5.2,4.6-22.3,6-28.3c0,0,0,0.1,0.1,0.1c3.9,7.5,20.7,15.2,23.9,16.6C36.3,43.3,23.1,68.5,20.5,75.5z
	 M30.2,57.3c1.3-2.5,2.6-5,3.7-7.3v7.9C32.7,57.9,31.4,57.7,30.2,57.3z M34.9,58.5V48.1c1.8-3.5,3.3-6.4,4.1-7.8
	c1.5,0.2,2.9,0.4,4.4,0.4c1.5,0,2.9-0.1,4.4-0.4c1.3,2.5,5.2,9.9,9,17.4C50.1,59.7,37.5,58.8,34.9,58.5z M66.3,75.5
	c-2.6-7-15.8-32.2-17.9-36.1c3.2-1.4,19.9-9.2,23.8-16.6c0-0.1,0.1-0.2,0.1-0.2c1.5,6,5.6,23.1,6,28.4
	C78.8,55.1,74.7,63.4,66.3,75.5z"/>
</svg>
