<?xml version="1.0" encoding="utf-8"?>
<!-- Generator: Adobe Illustrator 20.1.0, SVG Export Plug-In . SVG Version: 6.00 Build 0)  -->
<svg version="1.1" id="Calque_1" xmlns="http://www.w3.org/2000/svg" xmlns:xlink="http://www.w3.org/1999/xlink" x="0px" y="0px"
	 viewBox="0 0 90 90" style="enable-background:new 0 0 90 90;" xml:space="preserve">
<style type="text/css">
	.st0{fill:#FFFFFF;}
	.st1{fill:none;stroke:#1A1A1A;stroke-miterlimit:10;}
	.st2{fill:#1A1A1A;}
</style>
<g>
	<path class="st0" d="M42.9,11l0.6,0c7.6,0.3,27.5,2.3,27.6,8.3c0.1,3.1-4.2,7.2-9.1,10.9c-20-4.5-35.7-0.6-37.7,0
		c-5.3-4-9.1-8-9.1-10.9C15.4,13.3,35.3,11.3,42.9,11z"/>
	<path class="st0" d="M21.2,74.9c-2.3-3.3-11.1-16.2-12.6-20.1c-1.3-3.4,3.6-23.6,6.1-33.3c2.9,7.2,19.5,16.5,23,18.4
		c0.3,0.2,0.6,0.3,0.9,0.4C32.9,46.9,23.2,70,21.2,74.9z"/>
	<path class="st0" d="M31.9,53.6c2.8-5.7,5.7-10.8,7.9-13.1c0.1,0,0.2,0,0.2,0l6.4,0c0.1,0,0.2,0,0.3,0c2.1,2.2,5,7.3,7.9,13
		C40.8,55.5,33.2,53.9,31.9,53.6z"/>
	<path class="st0" d="M77.9,54.9c-1.5,3.9-10.3,16.8-12.6,20c-2-4.9-11.8-28.1-17.5-34.7c0.3-0.1,0.5-0.2,0.8-0.3
		c5.1-2.8,20.5-11.7,23.1-18.6C74.3,31,79.2,51.4,77.9,54.9z"/>
</g>
<title>TG</title>
<ellipse class="st1" cx="42.5" cy="48.6" rx="3.2" ry="2.1"/>
<ellipse class="st2" cx="42.5" cy="48.7" rx="0.7" ry="0.4"/>
<rect x="45.8" y="47.8" class="st2" width="1.3" height="1.1"/>
<path class="st2" d="M72.2,19.2l-0.1,0c-0.2-3.5-5-6.1-14.5-7.7c-7-1.2-14-1.5-14.1-1.5l-0.7,0c-0.1,0-7.1,0.3-14.1,1.5
	c-9.5,1.7-14.3,4.3-14.5,7.7c-0.4,1.4-8.4,31.3-6.6,36c1.7,4.6,12.7,20.4,13.2,21l0.5,0.8l0.3-0.9c0.1-0.2,4.7-11.6,9.7-21.6
	c0.5,0.1,3.8,1,10.2,1c3.5,0,8-0.3,13.4-1.1c5,10.1,9.6,21.5,9.7,21.7l0.3,0.8l0.5-0.8c0.5-0.7,11.5-16.4,13.2-21
	C80.6,50.5,72.6,20.5,72.2,19.2z M42.9,11l0.6,0c7.6,0.3,27.5,2.3,27.6,8.3c0.1,3.1-4.2,7.2-9.1,10.9c-20-4.5-35.7-0.6-37.7,0
	c-5.3-4-9.1-8-9.1-10.9C15.4,13.3,35.3,11.3,42.9,11z M46.4,39.5l-6.4,0c-0.6,0-1.2-0.2-1.8-0.5c-4.3-2.4-8.9-5.2-12.9-8
	c3.7-0.9,17.8-3.8,35.6,0c-5.2,3.8-10.9,6.9-12.8,8C47.6,39.3,47,39.4,46.4,39.5z M21.2,74.9c-2.3-3.3-11.1-16.2-12.6-20.1
	c-1.3-3.4,3.6-23.6,6.1-33.3c2.9,7.2,19.5,16.5,23,18.4c0.3,0.2,0.6,0.3,0.9,0.4C32.9,46.9,23.2,70,21.2,74.9z M31.9,53.6
	c2.8-5.7,5.7-10.8,7.9-13.1c0.1,0,0.2,0,0.2,0l6.4,0c0.1,0,0.2,0,0.3,0c2.1,2.2,5,7.3,7.9,13C40.8,55.5,33.2,53.9,31.9,53.6z
	 M77.9,54.9c-1.5,3.9-10.3,16.8-12.6,20c-2-4.9-11.8-28.1-17.5-34.7c0.3-0.1,0.5-0.2,0.8-0.3c5.1-2.8,20.5-11.7,23.1-18.6
	C74.3,31,79.2,51.4,77.9,54.9z"/>
</svg>
