<?xml version="1.0" encoding="utf-8"?>
<!-- Generator: Adobe Illustrator 20.1.0, SVG Export Plug-In . SVG Version: 6.00 Build 0)  -->
<svg version="1.1" id="Calque_1" xmlns="http://www.w3.org/2000/svg" xmlns:xlink="http://www.w3.org/1999/xlink" x="0px" y="0px"
	 viewBox="0 0 90 90" style="enable-background:new 0 0 90 90;" xml:space="preserve">
<style type="text/css">
	.st0{fill:#FFFFFF;}
	.st1{fill:#1A1A1A;}
	.st2{fill:none;stroke:#1A1A1A;stroke-miterlimit:10;}
</style>
<path class="st0" d="M43,17.6h3.1c8.2,0.1,29.6,2,29.7,8.8c0.1,2.4-2.3,5.5-6.9,9.1l0-0.1c-24.3-6.9-46.4-0.8-49-0.1
	c-4.4-3.5-6.7-6.6-6.7-8.9C13.5,19.6,34.8,17.8,43,17.6z"/>
<path class="st0" d="M27.8,59.2C21,66.4,18.7,68,15.3,69.7c-1.3,0.7-2.9,0.2-3.6-1.1c0-0.1-0.1-0.2-0.1-0.3
	C9.8,63.8,7.7,52.7,12.9,29c3.8,7.9,23.2,17.7,27.7,19.8C35.9,51.7,31.6,55.2,27.8,59.2z"/>
<path class="st0" d="M38,51.7v8.2c-3.4-0.6-6.1-1.6-7.4-2.1C32.9,55.5,35.4,53.5,38,51.7z"/>
<path class="st0" d="M39,60.1v-9c1-0.6,1.9-1.2,2.9-1.8l0.6-0.3h4.2l0.6,0.3c4.1,2.3,7.9,5.2,11.3,8.5C51.4,60.9,44.3,60.9,39,60.1z
	"/>
<path class="st0" d="M77.5,68.3c-0.5,1.4-2.1,2.1-3.5,1.5c-0.1,0-0.2-0.1-0.3-0.1c-3.4-1.7-5.7-3.3-12.5-10.5
	c-3.8-4-8.1-7.5-12.8-10.3c4.4-2.1,23.8-11.9,27.7-19.8C81.4,52.7,79.3,63.8,77.5,68.3z"/>
<title>TG</title>
<path class="st1" d="M76.8,27.3L76.8,27.3c0-0.3,0-0.6,0-0.9c-0.2-9.2-29.5-9.8-30.7-9.8H43c-0.1,0-7.6,0.1-15.1,1.4
	c-10.3,1.7-15.5,4.5-15.6,8.4c0,0.3,0,0.6,0.1,0.9l-0.1,0c-5.7,25-3.5,36.6-1.6,41.3c0,0.1,0.1,0.2,0.2,0.4c0.9,1.8,3.2,2.5,5,1.6
	c3.5-1.8,5.9-3.4,12.8-10.7c0.4-0.5,0.9-0.9,1.3-1.4c1.9,0.8,7.8,3,15.2,3c4.4,0,9.3-0.8,14.2-3.1c0.5,0.5,0.9,0.9,1.4,1.4
	c6.9,7.3,9.3,8.9,12.8,10.7c0.1,0.1,0.2,0.1,0.4,0.2c0.4,0.2,0.9,0.3,1.3,0.3c1.5,0,2.9-0.9,3.4-2.3C80.3,63.9,82.5,52.2,76.8,27.3z
	 M43,17.6h3.1c8.2,0.1,29.6,2,29.7,8.8c0.1,2.4-2.3,5.5-6.9,9.1l0-0.1c-24.3-6.9-46.4-0.8-49-0.1c-4.4-3.5-6.7-6.6-6.7-8.9
	C13.5,19.6,34.8,17.8,43,17.6z M41,48L41,48c-2.1-1-7.9-3.9-13.6-7.4c-2.5-1.5-4.6-3-6.5-4.4c4.5-1.2,24.8-6,47.1,0.1
	c-1.8,1.4-3.9,2.8-6.3,4.3C55.9,44.1,50.1,47,48,48V48H41z M27.8,59.2C21,66.4,18.7,68,15.3,69.7c-1.3,0.7-2.9,0.2-3.6-1.1
	c0-0.1-0.1-0.2-0.1-0.3C9.8,63.8,7.7,52.7,12.9,29c3.8,7.9,23.2,17.7,27.7,19.8C35.9,51.7,31.6,55.2,27.8,59.2z M38,51.7v8.2
	c-3.4-0.6-6.1-1.6-7.4-2.1C32.9,55.5,35.4,53.5,38,51.7z M39,60.1v-9c1-0.6,1.9-1.2,2.9-1.8l0.6-0.3h4.2l0.6,0.3
	c4.1,2.3,7.9,5.2,11.3,8.5C51.4,60.9,44.3,60.9,39,60.1z M77.5,68.3c-0.5,1.4-2.1,2.1-3.5,1.5c-0.1,0-0.2-0.1-0.3-0.1
	c-3.4-1.7-5.7-3.3-12.5-10.5c-3.8-4-8.1-7.5-12.8-10.3c4.4-2.1,23.8-11.9,27.7-19.8C81.4,52.7,79.3,63.8,77.5,68.3z"/>
<ellipse class="st2" cx="44.2" cy="55" rx="3.2" ry="2.1"/>
<ellipse class="st1" cx="44.2" cy="55.1" rx="0.7" ry="0.4"/>
<rect x="47.5" y="54.2" class="st1" width="1.3" height="1.1"/>
</svg>
