<?xml version="1.0" encoding="utf-8"?>
<!-- Generator: Adobe Illustrator 20.1.0, SVG Export Plug-In . SVG Version: 6.00 Build 0)  -->
<svg version="1.1" id="Calque_1" xmlns="http://www.w3.org/2000/svg" xmlns:xlink="http://www.w3.org/1999/xlink" x="0px" y="0px"
	 viewBox="0 0 90 90" style="enable-background:new 0 0 90 90;" xml:space="preserve">
<style type="text/css">
	.st0{fill:#FFFFFF;}
	.st1{fill:#1A1A1A;}
	.st2{fill:none;stroke:#1A1A1A;stroke-miterlimit:10;}
</style>
<path class="st0" d="M8.3,37.2l17.8-6v-8c0,0,1.4-8.5,17.2-8.5s17.2,8.5,17.2,8.5v8c0,0,16.8,4.6,20.1,7c0,0-0.7,37-37.8,37
	S8.3,37.2,8.3,37.2z"/>
<title>TG</title>
<circle class="st1" cx="43.2" cy="46" r="1.9"/>
<circle class="st1" cx="43.2" cy="57" r="1.9"/>
<circle class="st1" cx="43.2" cy="68" r="1.9"/>
<path class="st2" d="M60.8,22.7c0,0,0.1,6,0.1,8.4s-12,10.6-12,10.6L46.7,30c0,0,17.1-2,13.7-8.4c-3.8-7.2-16.3-7.1-16.3-7.1h-1.1
	c0,0-12.5-0.1-16.3,7.1c-3.4,6.4,12.7,8.5,12.7,8.5l-2.2,11.7c0,0-11-8.2-11-10.7s0.1-8.4,0.1-8.4"/>
<path class="st2" d="M30.4,27.8c8.3-4.7,18.4-4.7,26.8-0.2"/>
<path class="st2" d="M60.9,31.1c0,0,13.6,3.5,20.4,7.5"/>
<line class="st2" x1="8.6" y1="37.1" x2="26.3" y2="31.1"/>
<line class="st2" x1="39.7" y1="30.5" x2="46.7" y2="30.5"/>
<line class="st2" x1="37.7" y1="38.5" x2="48.7" y2="38.5"/>
<circle class="st1" cx="43.2" cy="35" r="1.9"/>
<line class="st2" x1="46.2" y1="39" x2="46.2" y2="75"/>
<line class="st2" x1="40.2" y1="39" x2="40.2" y2="75"/>
</svg>
