<?xml version="1.0" encoding="utf-8"?>
<!-- Generator: Adobe Illustrator 20.1.0, SVG Export Plug-In . SVG Version: 6.00 Build 0)  -->
<svg version="1.1" id="Calque_1" xmlns="http://www.w3.org/2000/svg" xmlns:xlink="http://www.w3.org/1999/xlink" x="0px" y="0px"
	 viewBox="0 0 90 90" style="enable-background:new 0 0 90 90;" xml:space="preserve">
<style type="text/css">
	.st0{fill:#FFFFFF;}
	.st1{fill:#1A1A1A;}
</style>
<path class="st0" d="M18.9,19.6c0,0-0.1-8.2,25.8-6.9c24.5,1.3,27,2,26.9,8.1c-0.1,6.2,0,50,0,50l-3.5-2.7c0,0,2.2,5.6-21.3,7.3
	c-10.4,0.3-10.4,0.3-10.4,0.3l0.2-1.1c0,0-12.2-1.2-15.7-6c0-0.9-1.4-0.1-1.5-0.5C18.4,36.7,18.9,19.6,18.9,19.6z"/>
<title>TG</title>
<path class="st1" d="M71.9,17.2c-0.5-3.2-12.2-5-31.2-4.9c-12,0.1-18.9,1.4-20.5,3.9c-2.8,1.1-2.8,14.5-1.9,39.9
	c0.2,5,0.3,9.3,0.3,12v0.6l0.5-0.1c0.3,0,0.5-0.1,0.8-0.1c4.5,5.6,13.6,6.5,15.9,6.7v1.3h0.5c0.1,0,8,0,15.9-1
	c9.7-1.2,15.1-3.3,16.1-6.3c1.6,1.5,2.6,2.2,2.7,2.2l0.8,0.5L71.9,17.2L71.9,17.2z M40.7,13.3c0.5,0,1,0,1.4,0
	c20.6,0,28.5,2.4,28.8,4.1v0.1c0,0.4-0.6,1.5-5.5,2.9c-3.3,0.9-6.2,1.7-8.8,2.4c-7.1,1.9-11.9,3.2-15.8,5.5c-0.9-0.7-4-2.9-10.9-4.8
	c-4.5-1.2-9.4-4.1-9.1-6.2C20.9,16.2,23.2,13.4,40.7,13.3z M19.3,56.1c-0.3-7.9-0.6-17.8-0.5-25.6c0.1-7.6,0.7-10.8,1.1-12.3
	c0.8,2.7,5.9,5.3,9.8,6.3c2.6,0.7,4.6,1.4,6.1,2.1c-1,2-4.8,10-7.3,21.7c-2.8,13.2-5.2,18.4-8.9,19.2C19.6,64.8,19.5,60.7,19.3,56.1
	z M21,68.2c3.5-1.6,5.8-7.1,8.5-19.6C32,36.9,35.7,29,36.7,27c2.3,1.1,3.4,2,3.6,2.2C39,30.6,37.5,32.5,36,35l-0.1,0.1v39.1
	C33.6,74,25.2,73.1,21,68.2z M36.9,75.5V35.4c3.2-5.2,6.1-7.7,8.5-7.3c3.1,0.5,5.8,5.4,8.2,14.7c2.7,10.6,7.3,17.9,10.7,22
	c1.2,1.5,2.3,2.7,3.3,3.6C67.1,74.1,45.8,75.4,36.9,75.5z M54.5,42.5c-2.5-9.7-5.4-14.8-8.9-15.4c3-1.2,6.6-2.1,11.2-3.3
	c2.6-0.7,5.5-1.5,8.8-2.4c2.5-0.7,4.3-1.5,5.3-2.3V70C68.2,67.8,58.8,59.5,54.5,42.5z"/>
<g>
	<path class="st1" d="M44.7,44.8c-2.9,0-5.3-2.4-5.3-5.3s2.4-5.3,5.3-5.3s5.3,2.4,5.3,5.3S47.6,44.8,44.7,44.8z M44.7,35.1
		c-2.4,0-4.4,2-4.4,4.4s2,4.4,4.4,4.4s4.4-2,4.4-4.4S47.1,35.1,44.7,35.1z"/>
</g>
<g>
	<path class="st1" d="M44.7,43.2c-2,0-3.7-1.7-3.7-3.7c0-2,1.7-3.7,3.7-3.7c2,0,3.7,1.7,3.7,3.7C48.4,41.6,46.7,43.2,44.7,43.2z
		 M44.7,36.7c-1.6,0-2.8,1.3-2.8,2.8s1.3,2.8,2.8,2.8s2.8-1.3,2.8-2.8S46.2,36.7,44.7,36.7z"/>
</g>
<circle class="st1" cx="44.7" cy="39.5" r="0.9"/>
<g>
	<path class="st1" d="M44.7,62.8c-2.9,0-5.3-2.4-5.3-5.3s2.4-5.3,5.3-5.3s5.3,2.4,5.3,5.3S47.6,62.8,44.7,62.8z M44.7,53.1
		c-2.4,0-4.4,2-4.4,4.4s2,4.4,4.4,4.4s4.4-2,4.4-4.4S47.1,53.1,44.7,53.1z"/>
</g>
<g>
	<path class="st1" d="M44.7,61.2c-2,0-3.7-1.7-3.7-3.7s1.7-3.7,3.7-3.7c2,0,3.7,1.7,3.7,3.7S46.7,61.2,44.7,61.2z M44.7,54.7
		c-1.6,0-2.8,1.3-2.8,2.8s1.3,2.8,2.8,2.8s2.8-1.3,2.8-2.8S46.2,54.7,44.7,54.7z"/>
</g>
<circle class="st1" cx="44.7" cy="57.5" r="0.9"/>
</svg>
