<?xml version="1.0" encoding="utf-8"?>
<!-- Generator: Adobe Illustrator 20.1.0, SVG Export Plug-In . SVG Version: 6.00 Build 0)  -->
<svg version="1.1" id="Calque_1" xmlns="http://www.w3.org/2000/svg" xmlns:xlink="http://www.w3.org/1999/xlink" x="0px" y="0px"
	 viewBox="0 0 30 78.7" style="enable-background:new 0 0 30 78.7;" xml:space="preserve">
<style type="text/css">
	.st0{fill:#2A4B98;}
</style>
<path class="st0" d="M17.3,11.8h2.8l0,0h1c1,0,1.9-0.8,1.9-1.9S22.2,8,21.1,8h-1l0,0h-2.8c-0.1,0-0.1-0.1-0.1-0.1l0.1-0.1h2.8l0,0h1
	c1,0,1.9-0.8,1.9-1.9S22.2,4,21.1,4h-5h-1.8h-6c-1,0-1.9,0.8-1.9,1.9s0.8,1.9,1.9,1.9h1l0,0h2.8c0.1,0,0.1,0.1,0.1,0.1L12.1,8H9.3
	l0,0h-1c-1,0-1.9,0.8-1.9,1.9s0.8,1.9,1.9,1.9h1l0,0h2.8c0.1,0,0.1,0.1,0.1,0.1L12.1,12H9.3l0,0h-1c-1,0-1.9,0.8-1.9,1.9
	s0.8,1.9,1.9,1.9h1l0,0h2.8c0.1,0,0.1,0.1,0.1,0.1L12.1,16H9.3l0,0h-1c-1,0-1.9,0.8-1.9,1.9s0.8,1.9,1.9,1.9h1l0,0h2.8
	c0.1,0,0.1,0.1,0.1,0.1L12.1,20H9.3l0,0h-1c-1,0-1.9,0.8-1.9,1.9s0.8,1.9,1.9,1.9h1l0,0h2.8c0.1,0,0.1,0.1,0.1,0.1L12.1,24H9.3l0,0
	h-1c-1,0-1.9,0.8-1.9,1.9s0.8,1.9,1.9,1.9h1l0,0h2.8c0.1,0,0.1,0.1,0.1,0.1L12.1,28H9.3l0,0h-1c-1,0-1.9,0.8-1.9,1.9
	s0.8,1.9,1.9,1.9h1l0,0h2.8c0.1,0,0.1,0.1,0.1,0.1L12.1,32H9.3l0,0h-1c-1,0-1.9,0.8-1.9,1.9s0.8,1.9,1.9,1.9h1l0,0h2.8
	c0.1,0,0.1,0.1,0.1,0.1L12.1,36H9.3l0,0h-1c-1,0-1.9,0.8-1.9,1.9s0.8,1.9,1.9,1.9h1l0,0h2.8c0.1,0,0.1,0.1,0.1,0.1L12.1,40H9.3l0,0
	h-1c-1,0-1.9,0.8-1.9,1.9s0.8,1.9,1.9,1.9h1l0,0h2.8c0.1,0,0.1,0.1,0.1,0.1L12.1,44H9.3l0,0h-1c-1,0-1.9,0.8-1.9,1.9
	s0.8,1.9,1.9,1.9h1l0,0h2.8c0.1,0,0.1,0.1,0.1,0.1L12.1,48H9.3l0,0h-1c-1,0-1.9,0.8-1.9,1.9s0.8,1.9,1.9,1.9h1l0,0h2.8
	c0.1,0,0.1,0.1,0.1,0.1L12.1,52H9.3l0,0h-1c-1,0-1.9,0.8-1.9,1.9s0.8,1.9,1.9,1.9h1l0,0h2.8c0.1,0,0.1,0.1,0.1,0.1L12.1,56H9.3l0,0
	h-1c-1,0-1.9,0.8-1.9,1.9s0.8,1.9,1.9,1.9h1l0,0h2.8c0.1,0,0.1,0.1,0.1,0.1L12.1,60H9.3l0,0h-1c-1,0-1.9,0.8-1.9,1.9
	s0.8,1.9,1.9,1.9h1l0,0h2.8c0.1,0,0.1,0.1,0.1,0.1L12.1,64H9.3l0,0h-1c-1,0-1.9,0.8-1.9,1.9s0.8,1.9,1.9,1.9h1l0,0h2.8
	c0.1,0,0.1,0.1,0.1,0.1L12.1,68H9.3l0,0h-1c-1,0-1.9,0.8-1.9,1.9s0.8,1.9,1.9,1.9h1l0,0h2.8c0.1,0,0.1,0.1,0.1,0.1L12.1,72H9.3l0,0
	h-1c-1,0-1.9,0.8-1.9,1.9s0.8,1.9,1.9,1.9h12.8c1,0,1.9-0.8,1.9-1.9S22.2,72,21.1,72h-1l0,0h-2.8c-0.1,0-0.1-0.1-0.1-0.1l0.1-0.1
	h2.8l0,0h1c1,0,1.9-0.8,1.9-1.9S22.2,68,21.1,68h-1l0,0h-2.8c-0.1,0-0.1-0.1-0.1-0.1l0.1-0.1h2.8l0,0h1c1,0,1.9-0.8,1.9-1.9
	S22.2,64,21.1,64h-1l0,0h-2.8c-0.1,0-0.1-0.1-0.1-0.1l0.1-0.1h2.8l0,0h1c1,0,1.9-0.8,1.9-1.9S22.2,60,21.1,60h-1l0,0h-2.8
	c-0.1,0-0.1-0.1-0.1-0.1l0.1-0.1h2.8l0,0h1c1,0,1.9-0.8,1.9-1.9S22.2,56,21.1,56h-1l0,0h-2.8c-0.1,0-0.1-0.1-0.1-0.1l0.1-0.1h2.8
	l0,0h1c1,0,1.9-0.8,1.9-1.9S22.2,52,21.1,52h-1l0,0h-2.8c-0.1,0-0.1-0.1-0.1-0.1l0.1-0.1h2.8l0,0h1c1,0,1.9-0.8,1.9-1.9
	S22.2,48,21.1,48h-1l0,0h-2.8c-0.1,0-0.1-0.1-0.1-0.1l0.1-0.1h2.8l0,0h1c1,0,1.9-0.8,1.9-1.9S22.2,44,21.1,44h-1l0,0h-2.8
	c-0.1,0-0.1-0.1-0.1-0.1l0.1-0.1h2.8l0,0h1c1,0,1.9-0.8,1.9-1.9S22.2,40,21.1,40h-1l0,0h-2.8c-0.1,0-0.1-0.1-0.1-0.1l0.1-0.1h2.8
	l0,0h1c1,0,1.9-0.8,1.9-1.9S22.2,36,21.1,36h-1l0,0h-2.8c-0.1,0-0.1-0.1-0.1-0.1l0.1-0.1h2.8l0,0h1c1,0,1.9-0.8,1.9-1.9
	S22.2,32,21.1,32h-1l0,0h-2.8c-0.1,0-0.1-0.1-0.1-0.1l0.1-0.1h2.8l0,0h1c1,0,1.9-0.8,1.9-1.9S22.2,28,21.1,28h-1l0,0h-2.8
	c-0.1,0-0.1-0.1-0.1-0.1l0.1-0.1h2.8l0,0h1c1,0,1.9-0.8,1.9-1.9S22.2,24,21.1,24h-1l0,0h-2.8c-0.1,0-0.1-0.1-0.1-0.1l0.1-0.1h2.8
	l0,0h1c1,0,1.9-0.8,1.9-1.9S22.2,20,21.1,20h-1l0,0h-2.8c-0.1,0-0.1-0.1-0.1-0.1l0.1-0.1h2.8l0,0h1c1,0,1.9-0.8,1.9-1.9
	S22.2,16,21.1,16h-1l0,0h-2.8c-0.1,0-0.1-0.1-0.1-0.1l0.1-0.1h2.8l0,0h1c1,0,1.9-0.8,1.9-1.9S22.2,12,21.1,12h-1l0,0h-2.8
	C17.2,12,17.2,11.9,17.3,11.8L17.3,11.8z M17.3,13.8h2l0,0h1.8c0.1,0,0.1,0.1,0.1,0.1L21.1,14h-2.8l0,0h-1c-1,0-1.9,0.8-1.9,1.9
	s0.8,1.9,1.9,1.9h2l0,0h1.8c0.1,0,0.1,0.1,0.1,0.1L21.1,18h-2.8l0,0h-1c-1,0-1.9,0.8-1.9,1.9s0.8,1.9,1.9,1.9h2l0,0h1.8
	c0.1,0,0.1,0.1,0.1,0.1L21.1,22h-2.8l0,0h-1c-1,0-1.9,0.8-1.9,1.9s0.8,1.9,1.9,1.9h2l0,0h1.8c0.1,0,0.1,0.1,0.1,0.1L21.1,26h-2.8
	l0,0h-1c-1,0-1.9,0.8-1.9,1.9s0.8,1.9,1.9,1.9h2l0,0h1.8c0.1,0,0.1,0.1,0.1,0.1L21.1,30h-2.8l0,0h-1c-1,0-1.9,0.8-1.9,1.9
	s0.8,1.9,1.9,1.9h2l0,0h1.8c0.1,0,0.1,0.1,0.1,0.1L21.1,34h-2.8l0,0h-1c-1,0-1.9,0.8-1.9,1.9s0.8,1.9,1.9,1.9h2l0,0h1.8
	c0.1,0,0.1,0.1,0.1,0.1L21.1,38h-2.8l0,0h-1c-1,0-1.9,0.8-1.9,1.9s0.8,1.9,1.9,1.9h2l0,0h1.8c0.1,0,0.1,0.1,0.1,0.1L21.1,42h-2.8
	l0,0h-1c-1,0-1.9,0.8-1.9,1.9s0.8,1.9,1.9,1.9h2l0,0h1.8c0.1,0,0.1,0.1,0.1,0.1L21.1,46h-2.8l0,0h-1c-1,0-1.9,0.8-1.9,1.9
	s0.8,1.9,1.9,1.9h2l0,0h1.8c0.1,0,0.1,0.1,0.1,0.1L21.1,50h-2.8l0,0h-1c-1,0-1.9,0.8-1.9,1.9s0.8,1.9,1.9,1.9h2l0,0h1.8
	c0.1,0,0.1,0.1,0.1,0.1L21.1,54h-2.8l0,0h-1c-1,0-1.9,0.8-1.9,1.9s0.8,1.9,1.9,1.9h2l0,0h1.8c0.1,0,0.1,0.1,0.1,0.1L21.1,58h-2.8
	l0,0h-1c-1,0-1.9,0.8-1.9,1.9s0.8,1.9,1.9,1.9h2l0,0h1.8c0.1,0,0.1,0.1,0.1,0.1L21.1,62h-2.8l0,0h-1c-1,0-1.9,0.8-1.9,1.9
	c0,1.1,0.8,1.9,1.9,1.9h2l0,0h1.8c0.1,0,0.1,0.1,0.1,0.1L21.1,66h-2.8l0,0h-1c-1,0-1.9,0.8-1.9,1.9s0.8,1.9,1.9,1.9h2l0,0h1.8
	c0.1,0,0.1,0.1,0.1,0.1L21.1,70h-2.8l0,0h-1c-1,0-1.9,0.8-1.9,1.9s0.8,1.9,1.9,1.9h2l0,0h1.8c0.1,0,0.1,0.1,0.1,0.1L21.1,74H8.3
	c-0.1,0-0.1-0.1-0.1-0.1l0.1-0.1h1.8l0,0h2c1,0,1.9-0.8,1.9-1.9S13.2,70,12.1,70h-1l0,0H8.3c-0.1,0-0.1-0.1-0.1-0.1l0.1-0.1h1.8l0,0
	h2c1,0,1.9-0.8,1.9-1.9S13.2,66,12.1,66h-1l0,0H8.3c-0.1,0-0.1-0.1-0.1-0.1l0.1-0.1h1.8l0,0h2c1,0,1.9-0.8,1.9-1.9S13.2,62,12.1,62
	h-1l0,0H8.3c-0.1,0-0.1-0.1-0.1-0.1l0.1-0.1h1.8l0,0h2c1,0,1.9-0.8,1.9-1.9S13.2,58,12.1,58h-1l0,0H8.3c-0.1,0-0.1-0.1-0.1-0.1
	l0.1-0.1h1.8l0,0h2c1,0,1.9-0.8,1.9-1.9S13.2,54,12.1,54h-1l0,0H8.3c-0.1,0-0.1-0.1-0.1-0.1l0.1-0.1h1.8l0,0h2c1,0,1.9-0.8,1.9-1.9
	S13.2,50,12.1,50h-1l0,0H8.3c-0.1,0-0.1-0.1-0.1-0.1l0.1-0.1h1.8l0,0h2c1,0,1.9-0.8,1.9-1.9S13.2,46,12.1,46h-1l0,0H8.3
	c-0.1,0-0.1-0.1-0.1-0.1l0.1-0.1h1.8l0,0h2c1,0,1.9-0.8,1.9-1.9S13.2,42,12.1,42h-1l0,0H8.3c-0.1,0-0.1-0.1-0.1-0.1l0.1-0.1h1.8l0,0
	h2c1,0,1.9-0.8,1.9-1.9S13.2,38,12.1,38h-1l0,0H8.3c-0.1,0-0.1-0.1-0.1-0.1l0.1-0.1h1.8l0,0h2c1,0,1.9-0.8,1.9-1.9S13.2,34,12.1,34
	h-1l0,0H8.3c-0.1,0-0.1-0.1-0.1-0.1l0.1-0.1h1.8l0,0h2c1,0,1.9-0.8,1.9-1.9S13.2,30,12.1,30h-1l0,0H8.3c-0.1,0-0.1-0.1-0.1-0.1
	l0.1-0.1h1.8l0,0h2c1,0,1.9-0.8,1.9-1.9S13.2,26,12.1,26h-1l0,0H8.3c-0.1,0-0.1-0.1-0.1-0.1l0.1-0.1h1.8l0,0h2c1,0,1.9-0.8,1.9-1.9
	S13.2,22,12.1,22h-1l0,0H8.3c-0.1,0-0.1-0.1-0.1-0.1l0.1-0.1h1.8l0,0h2c1,0,1.9-0.8,1.9-1.9S13.2,18,12.1,18h-1l0,0H8.3
	c-0.1,0-0.1-0.1-0.1-0.1l0.1-0.1h1.8l0,0h2c1,0,1.9-0.8,1.9-1.9S13.2,14,12.1,14h-1l0,0H8.3c-0.1,0-0.1-0.1-0.1-0.1l0.1-0.1h1.8l0,0
	h2c1,0,1.9-0.8,1.9-1.9S13.2,10,12.1,10h-1l0,0H8.3c-0.1,0-0.1-0.1-0.1-0.1l0.1-0.1h1.8l0,0h2c1,0,1.9-0.8,1.9-1.9S13.2,6,12.1,6h-2
	l0,0H8.3C8.2,6,8.2,5.9,8.2,5.9l0.1-0.1h6h1.8h5c0.1,0,0.1,0.1,0.1,0.1L21.1,6h-1.8l0,0h-2c-1,0-1.9,0.8-1.9,1.9s0.8,1.9,1.9,1.9h2
	l0,0h1.8c0.1,0,0.1,0.1,0.1,0.1L21.1,10h-2.8l0,0h-1c-1,0-1.9,0.8-1.9,1.9C15.4,13,16.3,13.8,17.3,13.8z"/>
</svg>
