<?xml version="1.0" encoding="utf-8"?>
<!-- Generator: Adobe Illustrator 20.1.0, SVG Export Plug-In . SVG Version: 6.00 Build 0)  -->
<svg version="1.1" id="Calque_1" xmlns="http://www.w3.org/2000/svg" xmlns:xlink="http://www.w3.org/1999/xlink" x="0px" y="0px"
	 viewBox="0 0 90 90" style="enable-background:new 0 0 90 90;" xml:space="preserve">
<style type="text/css">
	.st0{fill:#FFFFFF;}
	.st1{fill:none;stroke:#1A1A1A;stroke-miterlimit:10;}
	.st2{fill:#1A1A1A;}
</style>
<g>
	<path class="st0" d="M14.9,28.7c4.7-5.7,25.6-6.6,29.3-6.7c3.8,0.1,24.5,1,29.3,6.7c0.8,0.9,1,1.9,0.9,3c-0.5,2.7-3,5.7-6.4,8.4
		c-15.5-4.6-31.9-4.6-47.5,0c-3.4-2.8-6-5.7-6.4-8.4C13.9,30.6,14.2,29.6,14.9,28.7z"/>
	<path class="st0" d="M12.5,58.3c-1.8-1.4-2.5-3.4-2.3-5.9c0.6-5.6,2.4-14.7,3.3-19.2c3.3,8.5,22.6,17.8,27.3,20
		c-0.4,0.2-1,0.4-1.6,0.7H39V54c-3.9,1.7-10.7,4.7-13.4,5.6C20.8,61.2,15.4,60.6,12.5,58.3z"/>
	<path class="st0" d="M39,55.1V62c-5.1-0.5-9.4-1.5-11.6-2C30.5,58.9,35.6,56.6,39,55.1z"/>
	<path class="st0" d="M40,62.1v-7.5c1.1-0.5,1.8-0.8,2.1-0.9l4.3-0.1c1,0.5,8.8,4,13.5,5.9C53.7,62.3,46.3,62.6,40,62.1z"/>
	<path class="st0" d="M76,58.2c-2.9,2.4-8.3,2.9-13.2,1.3c-3.1-1-12.1-5-15.1-6.4c4.7-2.2,24-11.4,27.3-20
		c0.9,4.5,2.7,13.6,3.3,19.2C78.5,54.8,77.7,56.8,76,58.2z"/>
</g>
<title>TG</title>
<ellipse class="st1" cx="44.2" cy="58" rx="3.2" ry="2.1"/>
<ellipse class="st2" cx="44.2" cy="58.1" rx="0.7" ry="0.4"/>
<rect x="47.5" y="57.2" class="st2" width="1.3" height="1.1"/>
<path class="st2" d="M79.2,52.3c-0.8-7.8-3.8-21.9-3.9-22l0,0c-0.1-0.8-0.5-1.5-1.1-2.2c-4.9-5.9-24.5-6.9-29.5-7l-1.1,0v0
	c-5,0.2-24.6,1.2-29.5,7.1c-0.6,0.7-0.9,1.4-1.1,2.2l0,0c0,0.1-3,14.3-3.9,22.1c-0.3,2.8,0.6,5.1,2.7,6.8c2,1.6,4.9,2.5,8.1,2.5
	c1.9,0,3.8-0.3,5.8-0.9c1.1,0.3,9.6,2.7,19.1,2.7c5.5,0,11.3-0.8,16.3-3.2c0.5,0.2,0.9,0.3,1.3,0.5c5.2,1.7,10.9,1.1,14.1-1.5
	C78.6,57.4,79.5,55.1,79.2,52.3z M14.9,28.7c4.7-5.7,25.6-6.6,29.3-6.7c3.8,0.1,24.5,1,29.3,6.7c0.8,0.9,1,1.9,0.9,3
	c-0.5,2.7-3,5.7-6.4,8.4c-15.5-4.6-31.9-4.6-47.5,0c-3.4-2.8-6-5.7-6.4-8.4C13.9,30.6,14.2,29.6,14.9,28.7z M46.4,52.7l-4.2,0.1
	c-1-0.4-12.7-5.7-20.7-11.9c14.9-4.3,30.6-4.3,45.5,0C59.1,47,47.5,52.2,46.4,52.7z M12.5,58.3c-1.8-1.4-2.5-3.4-2.3-5.9
	c0.6-5.6,2.4-14.7,3.3-19.2c3.3,8.5,22.6,17.8,27.3,20c-0.4,0.2-1,0.4-1.6,0.7H39V54c-3.9,1.7-10.7,4.7-13.4,5.6
	C20.8,61.2,15.4,60.6,12.5,58.3z M39,55.1v6.9c-5.1-0.5-9.4-1.5-11.6-2C30.5,58.9,35.7,56.6,39,55.1z M40,62.1v-7.5
	c1.1-0.5,1.8-0.8,2.1-0.9l4.3-0.1c1,0.5,8.8,4,13.5,5.9C53.7,62.3,46.3,62.6,40,62.1z M76,58.3c-2.9,2.4-8.3,2.9-13.2,1.3
	c-3.1-1-12.1-5-15.1-6.4c4.7-2.2,24-11.4,27.3-20c0.9,4.5,2.7,13.6,3.3,19.2C78.5,54.8,77.7,56.8,76,58.3z"/>
</svg>
