<?xml version="1.0" encoding="utf-8"?>
<!-- Generator: Adobe Illustrator 20.1.0, SVG Export Plug-In . SVG Version: 6.00 Build 0)  -->
<svg version="1.1" id="Calque_1" xmlns="http://www.w3.org/2000/svg" xmlns:xlink="http://www.w3.org/1999/xlink" x="0px" y="0px"
	 viewBox="0 0 90 90" style="enable-background:new 0 0 90 90;" xml:space="preserve">
<style type="text/css">
	.st0{fill:#1A1A1A;}
	.st1{fill:#FFFFFF;}
</style>
<title>TG</title>
<path class="st0" d="M75.3,27.5c0.1-1.3-0.4-2.4-1.3-3.5c-5.7-6.3-28.7-7-29.7-7h-0.3c-1,0-23.9,0.7-29.6,7c-0.9,1-1.4,2.1-1.4,3.3
	C7.3,45,7,48,14.2,59.9c3,5,6.2,7.4,9.5,7.4c4.4-0.1,7.2-4.8,7.9-6.2c0.1-0.3,0.3-0.5,0.4-0.8c1.5,0.5,6.5,2.1,12.8,2.1
	c3.6,0,7.5-0.5,11.4-2.1c0.1,0.2,0.3,0.5,0.4,0.7c0.7,1.4,3.4,6,7.9,6.2c0.1,0,0.1,0,0.2,0c3.3,0,6.4-2.5,9.3-7.4
	C81.1,48.1,80.9,45.1,75.3,27.5z M15.1,24.6c5.5-6,28.7-6.7,28.9-6.7h0.3c0.2,0,23.5,0.7,28.9,6.7c0.8,0.9,1.1,1.8,1.1,2.8
	c0,0,0,0.1,0,0.1l0,0c0,0,0,0,0,0c-0.3,2.7-2.9,5.9-6.5,8.9c-22.9-6.5-45.1-0.7-47.4,0c-3.6-3.1-6.3-6.2-6.4-9
	C13.9,26.4,14.3,25.5,15.1,24.6z M47.7,49.4L47.7,49.4c-2.4,0.5-4.7,0.5-7.1,0c-1.2-0.6-11.8-6.1-19.2-12.1c4.3-1.1,24.5-5.8,45.5,0
	C59.4,43.3,48.9,48.8,47.7,49.4z M23.6,66.3c-2.9,0.1-5.8-2.2-8.6-6.9C8.2,48,8.4,45.1,13.4,29.3C16.4,37.7,35.7,48,39.6,50
	c-1.7,1.5-6.5,6.2-8.9,10.7C29.3,63.3,26.7,66.2,23.6,66.3z M37.9,53v7.8c-2.5-0.5-4.4-1-5.4-1.4C34.1,57.1,36.2,54.7,37.9,53z
	 M38.8,61h0.1v-9c0.8-0.8,1.4-1.4,1.7-1.6c1.1,0.2,2.3,0.4,3.4,0.4c1.2,0,2.3-0.1,3.5-0.4c0.8,0.7,5.4,4.9,8.1,9.1
	C49.6,61.9,43.3,61.7,38.8,61z M73.2,59.4c-2.8,4.6-5.8,7-8.7,6.9c-3.1-0.1-5.7-3-7-5.6c-2.3-4.5-7.2-9.2-8.9-10.7
	c3.9-2,23-12.2,26.2-20.6C79.8,45.2,80,48.1,73.2,59.4z"/>
<g>
	<path class="st0" d="M43.2,58.6c-2.1,0-3.7-1.1-3.7-2.6s1.6-2.6,3.7-2.6c2.1,0,3.7,1.1,3.7,2.6S45.3,58.6,43.2,58.6z M43.2,54.4
		c-1.5,0-2.7,0.7-2.7,1.6s1.3,1.6,2.7,1.6S46,56.9,46,56S44.7,54.4,43.2,54.4z"/>
</g>
<ellipse class="st0" cx="43.2" cy="56.1" rx="0.7" ry="0.4"/>
<rect x="46.5" y="55.2" class="st0" width="1.3" height="1.1"/>
<path class="st1" d="M15.1,24.6c5.5-6,28.7-6.7,28.9-6.7h0.3c0.2,0,23.5,0.7,28.9,6.7c0.8,0.9,1.1,1.8,1.1,2.8c0,0,0,0.1,0,0.1l0,0
	c0,0,0,0,0,0c-0.3,2.7-2.9,5.9-6.5,8.9c-22.9-6.5-45.1-0.7-47.4,0c-3.6-3.1-6.3-6.2-6.4-9C13.9,26.4,14.3,25.5,15.1,24.6z"/>
<path class="st1" d="M23.6,66.3c-2.9,0.1-5.8-2.2-8.6-6.9C8.2,48,8.4,45.1,13.4,29.3C16.4,37.7,35.7,48,39.6,50
	c-1.7,1.5-6.5,6.2-8.9,10.7C29.3,63.3,26.7,66.2,23.6,66.3z"/>
<path class="st1" d="M37.9,53v7.8c-2.5-0.5-4.4-1-5.4-1.4C34.1,57.1,36.2,54.7,37.9,53z"/>
<path class="st1" d="M38.8,61H39v-9c0.8-0.8,1.4-1.4,1.7-1.6c1.1,0.2,2.3,0.4,3.4,0.4c1.2,0,2.3-0.1,3.5-0.4
	c0.8,0.7,5.4,4.9,8.1,9.1C49.6,61.9,43.4,61.7,38.8,61z"/>
<path class="st1" d="M73.3,59.4c-2.8,4.6-5.8,7-8.7,6.9c-3.1-0.1-5.7-3-7-5.6c-2.3-4.5-7.2-9.2-8.9-10.7c3.9-2,23-12.2,26.2-20.6
	C79.8,45.2,80,48.1,73.3,59.4z"/>
</svg>
