<?xml version="1.0" encoding="utf-8"?>
<!-- Generator: Adobe Illustrator 20.1.0, SVG Export Plug-In . SVG Version: 6.00 Build 0)  -->
<svg version="1.1" id="Calque_1" xmlns="http://www.w3.org/2000/svg" xmlns:xlink="http://www.w3.org/1999/xlink" x="0px" y="0px"
	 viewBox="0 0 90 90" style="enable-background:new 0 0 90 90;" xml:space="preserve">
<style type="text/css">
	.st0{fill:#FFFFFF;}
	.st1{fill:none;stroke:#1A1A1A;stroke-miterlimit:10;}
	.st2{fill:#1A1A1A;}
</style>
<path class="st0" d="M29.6,13.1c6.1-1,12.2-1.2,13.9-1.2c3.3,0,21.2,0.6,26.6,5.9c1,1,1.4,2,1.4,3.2c0,4-4.7,8-10,11.2l0,0
	c-0.2,0-18.5-4.1-35.3,0.4c-5.6-3.3-10.7-7.4-10.7-11.6C15.5,16.4,23.2,14.2,29.6,13.1z"/>
<path class="st0" d="M2.8,62c0.3-2.5,9.6-31.6,12-39.1c1.2,4,6.1,7.8,11.3,10.8l0,0c0,0,0,0,0,0c4.3,2.5,8.7,4.4,11.6,5.6
	c0.4,0.2,0.8,0.3,1.3,0.4L4.5,73.9C3.9,71.4,2.5,64.2,2.8,62z"/>
<path class="st0" d="M24.3,55.7l8.7-8.6v10.7C29.3,58,25.7,56.4,24.3,55.7z"/>
<path class="st0" d="M34,58.6V46.1l6.1-6.1L40,39.9c0.6,0.1,1.3,0.2,1.9,0.2l3.1,0.1h0c0,0,0,0,0,0c0.6,0,1.3-0.1,1.9-0.2l0,0
	l16,15.8C50.3,60.7,36.5,59,34,58.6z"/>
<path class="st0" d="M82.6,73.9L48.1,39.8c0.4-0.1,0.9-0.3,1.3-0.4c6.4-2.6,20.7-9.1,22.8-16.5c2.4,7.4,11.6,36.6,12,39.1
	C84.5,64.2,83.1,71.4,82.6,73.9z"/>
<title>TG</title>
<ellipse class="st1" cx="42.2" cy="48" rx="3.2" ry="2.1"/>
<ellipse class="st2" cx="42.2" cy="48" rx="0.7" ry="0.4"/>
<rect x="45.5" y="47.2" class="st2" width="1.3" height="1.1"/>
<ellipse class="st1" cx="47.2" cy="54" rx="3.2" ry="2.1"/>
<ellipse class="st2" cx="47.2" cy="54" rx="0.7" ry="0.4"/>
<rect x="50.5" y="53.2" class="st2" width="1.3" height="1.1"/>
<path class="st2" d="M85.2,61.8c-0.4-2.9-12.1-39.4-12.6-41l-0.1,0c0-1.4-0.6-2.7-1.7-3.8C65.3,11.7,48.4,11,44,11l-1,0c0,0,0,0,0,0
	v0c-5.2,0.1-28.3,1-28.5,9.9l-0.1,0c-0.5,1.6-12.1,38.1-12.6,41C1.4,64.8,3.6,74.6,3.7,75l0.2,0.9l19.7-19.5
	c1.1,0.6,4.7,2.4,8.6,2.4c0.3,0,0.5,0,0.8,0v0.7l0.4,0.1c0.1,0,4.1,0.7,9.8,0.7c5.8,0,13.4-0.7,20.5-3.6l19.4,19.2l0.2-0.9
	C83.4,74.6,85.6,64.8,85.2,61.8z M29.6,13.1c6.1-1,12.2-1.2,13.9-1.2c3.3,0,21.2,0.6,26.6,5.9c1,1,1.4,2,1.4,3.2c0,4-4.7,8-10,11.2
	l0,0c-0.2,0-18.5-4.1-35.3,0.4c-5.6-3.3-10.7-7.4-10.7-11.6C15.5,16.4,23.2,14.2,29.6,13.1z M60.3,33c-4.4,2.5-9,4.5-11.3,5.4
	c-1.3,0.5-2.6,0.8-4,0.8c0,0,0,0,0,0l-3.1-0.1c-1.3,0-2.6-0.3-3.8-0.7c-2.2-0.9-6.4-2.7-10.6-5C41.5,29.9,56.3,32.2,60.3,33z
	 M2.8,62c0.3-2.5,9.6-31.6,12-39.1c1.2,4,6.1,7.8,11.3,10.8l0,0c0,0,0,0,0,0c4.3,2.5,8.7,4.4,11.6,5.6c0.4,0.2,0.8,0.3,1.3,0.4
	L4.5,73.9C3.9,71.4,2.5,64.2,2.8,62z M24.3,55.7l8.7-8.6v10.7C29.3,58,25.7,56.4,24.3,55.7z M34,58.6V46.1l6.1-6.1L40,39.9
	c0.6,0.1,1.3,0.2,1.9,0.2l3.1,0.1h0c0,0,0,0,0,0c0.6,0,1.3-0.1,1.9-0.2l0,0l16,15.8C50.3,60.7,36.5,59,34,58.6z M82.6,73.9
	L48.1,39.8c0.4-0.1,0.9-0.3,1.3-0.4c6.4-2.6,20.7-9.1,22.8-16.5c2.4,7.4,11.6,36.6,12,39.1C84.5,64.2,83.1,71.4,82.6,73.9z"/>
</svg>
