<?xml version="1.0" encoding="utf-8"?>
<!-- Generator: Adobe Illustrator 20.1.0, SVG Export Plug-In . SVG Version: 6.00 Build 0)  -->
<svg version="1.1" id="Calque_1" xmlns="http://www.w3.org/2000/svg" xmlns:xlink="http://www.w3.org/1999/xlink" x="0px" y="0px"
	 viewBox="0 0 90 90" style="enable-background:new 0 0 90 90;" xml:space="preserve">
<style type="text/css">
	.st0{fill:#FFFFFF;}
	.st1{fill:none;stroke:#1A1A1A;stroke-miterlimit:10;}
	.st2{fill:#1A1A1A;}
</style>
<g>
	<path class="st0" d="M15.3,29.3c5-6,26.2-6.3,29.4-6.3c3.1,0,24.3,0.3,29.3,6.3c0.9,1.1,1.2,2.2,1,3.5c-0.5,2.6-2.6,5.2-5.6,7.6
		c-2.1-0.5-14.7-3.6-25.1-3.6c-10.5,0-22,3.4-23.8,4c-3.3-2.5-5.7-5.3-6.2-8C14.1,31.5,14.4,30.4,15.3,29.3z"/>
	<path class="st0" d="M17.3,59.5c-2.5-2-7.1-7.3-6.5-13.2c0.4-4.2,1.9-9.6,2.7-12.7c2.5,8.4,20.2,16.4,27.9,19.4
		c-2.2-0.1-4.5,0-6.7,0.4c-3.2,0.4-6.9,2.2-10.2,3.8C21.4,58.8,18.3,60.3,17.3,59.5z"/>
	<path class="st0" d="M24.9,58.2c3.2-1.6,6.8-3.3,9.9-3.7c2.7-0.4,5.4-0.5,8.1-0.2c-6.1,2.8-7.8,8.7-8.1,10.5c-4.6-1.1-9-2.8-13.2-5
		C22.6,59.3,23.7,58.8,24.9,58.2z"/>
	<path class="st0" d="M46.2,66.2c-3.5,0-7-0.4-10.4-1.2c0.3-1.8,2.1-8.4,9.5-10.6c0.4-0.1,3.3-0.8,9.2-0.1c3,0.4,6.6,2.1,9.8,3.7
		c1.6,0.8,3,1.5,4.2,1.9C66.1,61.6,58.1,66.2,46.2,66.2z"/>
	<path class="st0" d="M71.9,59.5c-1,0.8-4.1-0.8-7.2-2.3c-3.2-1.6-6.9-3.4-10.1-3.8c-2-0.2-3.7-0.3-5.1-0.3c-0.2,0-0.5,0-0.7,0
		c7.5-3.1,24.5-10.9,27-19.3c0.9,3,2.3,8.4,2.7,12.6C79,52.2,74.4,57.5,71.9,59.5z"/>
</g>
<title>TG</title>
<ellipse class="st1" cx="44.2" cy="60" rx="3.2" ry="2.1"/>
<ellipse class="st2" cx="44.2" cy="60.1" rx="0.7" ry="0.4"/>
<rect x="47.5" y="59.2" class="st2" width="1.3" height="1.1"/>
<path class="st2" d="M79.4,46.3C78.8,40,76,31.2,75.9,31.1l0,0c-0.2-0.9-0.6-1.7-1.2-2.4C69.5,22.4,49.3,22,45,22v0
	c-0.1,0-0.2,0-0.4,0c-0.2,0-0.3,0-0.4,0v0c-4.3,0-24.5,0.5-29.7,6.7c-0.6,0.8-1,1.6-1.2,2.4l-0.1,0c0,0.1-2.9,8.9-3.5,15.2
	c-0.6,6.3,4.3,11.9,6.9,14.1c0.4,0.3,0.8,0.4,1.3,0.4c0.7,0,1.4-0.2,2.3-0.5c7.8,4.5,16.8,6.9,25.8,7c13.6,0,22.1-5.7,23.5-6.7
	c1.2,0.4,2.2,0.4,2.9-0.1C72.8,60,80.2,54.1,79.4,46.3z M15.3,29.3c5-6,26.2-6.3,29.4-6.3c3.1,0,24.3,0.3,29.3,6.3
	c0.9,1.1,1.2,2.2,1,3.5c-0.5,2.6-2.6,5.2-5.6,7.6c-2.1-0.5-14.7-3.6-25.1-3.6c-10.5,0-22,3.4-23.8,4c-3.3-2.5-5.7-5.3-6.2-8
	C14.1,31.5,14.4,30.4,15.3,29.3z M45,53.5c-1.7-0.6-15-5.6-23.5-11.9c3.1-0.9,13.4-3.7,22.8-3.7c9.4,0,20.7,2.5,24.1,3.4
	C60,47.7,46.7,52.8,45,53.5z M17.3,59.5c-2.5-2-7.1-7.3-6.5-13.2c0.4-4.2,1.9-9.6,2.7-12.7c2.5,8.4,20.2,16.4,27.9,19.4
	c-2.2-0.1-4.5,0-6.7,0.4c-3.2,0.4-6.9,2.2-10.2,3.8C21.4,58.8,18.3,60.3,17.3,59.5z M24.9,58.2c3.2-1.6,6.8-3.3,9.9-3.7
	c2.7-0.4,5.4-0.5,8.1-0.2c-6.1,2.8-7.8,8.7-8.1,10.5c-4.6-1.1-9-2.8-13.2-5C22.6,59.3,23.7,58.8,24.9,58.2z M46.2,66.2
	c-3.5,0-7-0.4-10.4-1.2c0.3-1.8,2.1-8.4,9.5-10.6c0.4-0.1,3.3-0.8,9.2-0.1c3,0.4,6.6,2.1,9.8,3.7c1.6,0.8,3,1.5,4.2,1.9
	C66.1,61.6,58.1,66.2,46.2,66.2z M71.9,59.5c-1,0.8-4.1-0.8-7.2-2.3c-3.2-1.6-6.9-3.4-10.1-3.8c-2-0.2-3.7-0.3-5.1-0.3
	c-0.2,0-0.5,0-0.7,0c7.5-3.1,24.5-10.9,27-19.3c0.9,3,2.3,8.4,2.7,12.6C79,52.2,74.4,57.5,71.9,59.5z"/>
</svg>
