<?xml version="1.0" encoding="utf-8"?>
<!-- Generator: Adobe Illustrator 20.1.0, SVG Export Plug-In . SVG Version: 6.00 Build 0)  -->
<svg version="1.1" id="Calque_1" xmlns="http://www.w3.org/2000/svg" xmlns:xlink="http://www.w3.org/1999/xlink" x="0px" y="0px"
	 viewBox="0 0 25 25" style="enable-background:new 0 0 25 25;" xml:space="preserve">
<style type="text/css">
	.st0{fill:#DDCD21;}
	.st1{opacity:0.2;}
	.st2{fill:#707070;}
</style>
<g>
	<g>
		<g>
			<path class="st0" d="M10.8,22.1c-0.3,0-0.6-0.2-0.8-0.5c-0.3-0.5-0.2-1.1,0.3-1.4c3.5-2.3,7.4-5.1,8.8-6.6
				c-1.2,0.4-3.3,1.5-4.6,2.2c-3.9,2.1-6.8,3.6-7.8,1.8c-1.1-1.8,1.7-3.8,5.2-6.2c0.9-0.6,2.1-1.4,3-2.1c-1,0.3-2.2,0.9-3.1,1.3
				c-3.8,1.7-7.1,3.2-8.2,1.1c-0.4-0.8-1.1-2.2,10-8.7c0.5-0.3,1.1-0.1,1.4,0.4s0.1,1.1-0.4,1.4c-3.5,2.1-7.4,4.7-8.8,6
				c1.2-0.2,3.6-1.3,5.1-1.9c3.4-1.5,5.7-2.6,6.7-1.1c1.1,1.6-1.2,3.1-4.6,5.4c-1.3,0.9-3.4,2.3-4.2,3.2c1.2-0.4,3.4-1.5,4.8-2.2
				c3.8-2,5.9-3,7.2-2.3c0.5,0.3,0.8,0.7,0.8,1.3c0,0.5,0.2,2.1-10.2,8.9C11.1,22.1,10.9,22.1,10.8,22.1z"/>
		</g>
	</g>
	<g class="st1">
		<g>
			<path class="st2" d="M10.8,22.1c-0.3,0-0.6-0.2-0.8-0.5c-0.3-0.5-0.2-1.1,0.3-1.4c3.5-2.3,7.4-5.1,8.8-6.6
				c-1.2,0.4-3.3,1.5-4.6,2.2c-3.9,2.1-6.8,3.6-7.8,1.8c-1.1-1.8,1.7-3.8,5.2-6.2c0.9-0.6,2.1-1.4,3-2.1c-1,0.3-2.2,0.9-3.1,1.3
				c-3.8,1.7-7.1,3.2-8.2,1.1c-0.4-0.8-1.1-2.2,10-8.7c0.5-0.3,1.1-0.1,1.4,0.4s0.1,1.1-0.4,1.4c-3.5,2.1-7.4,4.7-8.8,6
				c1.2-0.2,3.6-1.3,5.1-1.9c3.4-1.5,5.7-2.6,6.7-1.1c1.1,1.6-1.2,3.1-4.6,5.4c-1.3,0.9-3.4,2.3-4.2,3.2c1.2-0.4,3.4-1.5,4.8-2.2
				c3.8-2,5.9-3,7.2-2.3c0.5,0.3,0.8,0.7,0.8,1.3c0,0.5,0.2,2.1-10.2,8.9C11.1,22.1,10.9,22.1,10.8,22.1z"/>
		</g>
	</g>
</g>
</svg>
