<?xml version="1.0" encoding="utf-8"?>
<!-- Generator: Adobe Illustrator 20.1.0, SVG Export Plug-In . SVG Version: 6.00 Build 0)  -->
<svg version="1.1" id="Calque_1" xmlns="http://www.w3.org/2000/svg" xmlns:xlink="http://www.w3.org/1999/xlink" x="0px" y="0px"
	 viewBox="0 0 90 90" style="enable-background:new 0 0 90 90;" xml:space="preserve">
<style type="text/css">
	.st0{fill:#FFFFFF;}
	.st1{fill:#1A1A1A;}
</style>
<path class="st0" d="M10.6,35v26.9c0,0,5.5-2.1,5.8-3.2c0.3-1.1,0,12.7,0,12.7s29.7,8.2,56,0c0-7.2,0-12.1,0-12.1s3.6,3,5.8,2.5
	c0-5.4,0-27.8,0-27.8s-5.3-6.1-11.1-6.1c-5.8,0-12.8-1-11.8-6.1C55.1,18,55.1,18,55.1,18H34.2v5.1c0,0-0.3,4.2-10.9,4.8
	C15.9,29.4,12.2,31.7,10.6,35z"/>
<title>TG</title>
<path class="st1" d="M78.7,34.6l0.8-0.6c-3.4-4.5-8.2-6.9-14.2-7.1c-7-0.3-9.1-2.8-9.8-3.9h0.2v-6h-22v6h0.1
	c-0.6,1.2-2.8,3.6-9.8,3.9c-5.8,0.2-11.2,3-14.7,7.7l0.8,0.6c2.5-3.3,6-5.6,9.9-6.7V48c0.1,3.9-1.5,7.7-4.3,10.3
	c-1.3,1.2-2.9,2.1-4.7,2.5l0.2,1c1.8-0.4,3.5-1.3,4.9-2.6L16,71l1,0l0.1-12.8c2.5-2.8,4-6.5,3.9-10.3V33h46.6v14.9
	c-0.1,4.1,1.6,8.1,4.5,10.9L72,71l1,0l0.1-11.3c1.3,1,2.7,1.7,4.3,2.1l0.2-1c-1.7-0.4-3.4-1.3-4.7-2.5c-2.8-2.7-4.4-6.4-4.4-10.3
	V28.3C72.7,29.2,76.1,31.3,78.7,34.6z M34.7,18h20v4h-20V18z M67.6,32H21v-3.7c1-0.2,2-0.3,3-0.4c8.4-0.4,10.4-3.7,10.8-4.9h19.5
	c0.5,1.2,2.5,4.6,10.8,4.9c0.8,0,1.6,0.1,2.4,0.2V32z"/>
</svg>
