<?xml version="1.0" encoding="utf-8"?>
<!-- Generator: Adobe Illustrator 20.1.0, SVG Export Plug-In . SVG Version: 6.00 Build 0)  -->
<svg version="1.1" id="Calque_1" xmlns="http://www.w3.org/2000/svg" xmlns:xlink="http://www.w3.org/1999/xlink" x="0px" y="0px"
	 viewBox="0 0 90 90" style="enable-background:new 0 0 90 90;" xml:space="preserve">
<style type="text/css">
	.st0{fill:#FFFFFF;}
	.st1{fill:none;stroke:#1A1A1A;stroke-miterlimit:10;}
</style>
<path class="st0" d="M10.8,34.5v26.9c0,0,5.5-2.1,5.8-3.2c0.3-1.1,0,12.7,0,12.7s29.7,8.2,56,0c0-7.2,0-12.1,0-12.1s3.3,2.7,5.5,2.3
	c0-5.4,0.4-26.9,0.4-26.9s-5.2-5.9-10.8-6.5c-5.8-0.6-13.2-1.2-12.2-6.3c-0.1-3.8-0.1-3.8-0.1-3.8H34.4v5.1c0,0-0.3,4.2-10.9,4.8
	C16.1,28.9,12.4,31.2,10.8,34.5z"/>
<title>TG</title>
<rect x="34.2" y="17.5" class="st1" width="21" height="5"/>
<path class="st1" d="M9.7,34.9c3.4-4.5,8.6-7.3,14.3-7.5c9.7-0.4,10.5-4.9,10.5-4.9"/>
<path class="st1" d="M79.5,34.9c-3.4-4.5-8.6-7.3-14.3-7.5c-9.7-0.4-10.5-4.9-10.5-4.9"/>
<path class="st1" d="M20.5,28v20c0.1,4-1.6,7.9-4.5,10.7c-1.4,1.3-3.1,2.2-4.9,2.7"/>
<path class="st1" d="M68.1,28v20c-0.1,4,1.6,7.9,4.5,10.7c1.4,1.3,3.1,2.2,4.9,2.7"/>
<line class="st1" x1="20.6" y1="32.5" x2="67.7" y2="32.5"/>
<line class="st1" x1="72.6" y1="58.7" x2="72.5" y2="71"/>
<line class="st1" x1="16.6" y1="57.8" x2="16.5" y2="71"/>
<line class="st1" x1="26.1" y1="32" x2="26.1" y2="43"/>
<line class="st1" x1="61.2" y1="32" x2="61.2" y2="43"/>
</svg>
