<?xml version="1.0" encoding="utf-8"?>
<!-- Generator: Adobe Illustrator 20.1.0, SVG Export Plug-In . SVG Version: 6.00 Build 0)  -->
<svg version="1.1" id="Calque_1" xmlns="http://www.w3.org/2000/svg" xmlns:xlink="http://www.w3.org/1999/xlink" x="0px" y="0px"
	 viewBox="0 0 90 90" style="enable-background:new 0 0 90 90;" xml:space="preserve">
<style type="text/css">
	.st0{fill:#FFFFFF;}
	.st1{fill:#1A1A1A;}
	.st2{fill:none;stroke:#F27786;stroke-width:2;stroke-miterlimit:10;}
</style>
<path class="st0" d="M64.7,20.3c-2.2-3.2-9.4-3.7-11.6-3.7c0.2-1.1-0.1-2.3-0.9-3.1l-1.8-1.8C50,11.1,49.4,11,49,11h-8.7
	c-0.4,0-0.6,0.1-0.8,0.2l0,0l-0.1,0.1c-0.2,0.1-0.4,0.3-0.4,0.4l-1.8,1.8c-0.8,0.8-1.1,2-0.9,3.1c-2.3,0.1-9.7,0.8-11.6,3.8
	c-2,3.2-12,21-10.4,28.9c1.5,7.2,5.3,24,5.3,24.2l0.1,0.5l7.7-2l0,1.5l0.1,0.1c0.1,0.2,3.1,4.1,15.2,4.5v0h1v0c0.3,0,0.7,0,1,0
	l0.3,0v0c0.3,0,0.5,0,0.7,0v0h1v0c12.2-0.4,15.3-4.3,15.4-4.5l0.1-0.1l0-1.5l7.6,2l0.1-0.5c0-0.2,3.8-17,5.3-24.2
	C76.7,41.7,67.8,24.7,64.7,20.3z M27.6,67.3c0,0-3.4-15.7-3.9-19.4c-0.5-3.7,4.3-6.4,4.3-6.4L27.6,67.3z M65.6,47.4
	c-0.5,3.7-3.9,19.4-3.9,19.4L61.3,41C61.3,41,66.1,43.7,65.6,47.4z"/>
<title>TG</title>
<g>
	<path class="st1" d="M64.7,20.3c-2.2-3.2-9.4-3.7-11.6-3.7c0.2-1.1-0.1-2.3-0.9-3.1l-1.8-1.8C50,11.1,49.4,11,49,11h-8.7
		c-0.4,0-0.6,0.1-0.8,0.2l0,0l-0.1,0.1c-0.2,0.1-0.4,0.3-0.4,0.4l-1.8,1.8c-0.8,0.8-1.1,2-0.9,3.1c-2.3,0.1-9.7,0.8-11.6,3.8
		c-2,3.2-12,21-10.4,28.9c1.5,7.2,5.3,24,5.3,24.2l0.1,0.5l7.7-2l0,1.5l0.1,0.1c0.1,0.2,3.1,4.1,15.2,4.5v0h1v0c0.3,0,0.7,0,1,0
		l0.3,0v0c0.3,0,0.5,0,0.7,0v0h1v0c12.2-0.4,15.3-4.3,15.4-4.5l0.1-0.1l0-1.5l7.6,2l0.1-0.5c0-0.2,3.8-17,5.3-24.2
		C76.7,41.7,67.8,24.7,64.7,20.3z M63.6,20.4c-0.1,0.1-0.2,0.2-0.3,0.3c-1-0.9-3.7-2.5-10.5-3l0.1-0.2
		C54.5,17.5,61.2,17.9,63.6,20.4z M52.1,16.6L50,23.2l-4.5-4.6c3.3-2.9,4.6-4.6,5-5.6l1.1,1.1C52.2,14.8,52.4,15.7,52.1,16.6z
		 M49.1,12C49.1,12,49.1,12,49.1,12c0.2,0,0.4,0,0.5,0.1l0,0l0.1,0.1c0,0.3-0.2,1.7-5.2,6c-2.4-2.4-4.7-5.2-4.6-6L40,12
		c0.1,0,0.2,0,0.3,0L49.1,12z M37.9,14.1L39,13c0.7,1.9,3.4,4.6,4.7,5.9l-1,1.1h0v0l-3.2,3.2l-2.1-6.7C37,15.7,37.2,14.8,37.9,14.1z
		 M36.6,17.5l0.1,0.2c-6.8,0.5-9.6,2.1-10.6,3c-0.1-0.1-0.2-0.2-0.2-0.3C27.8,18.4,33.8,17.7,36.6,17.5z M25.3,21.3
		c0.6,0.8,2.2,4.2,2.5,19.4c-1.2,0.7-5.9,3.9-4.1,9.1c1.2,3.5,2.3,11.1,2.9,16.2l-7.4,1.2c-1.2-5.6-3.1-13.7-4-18.2
		C13.8,42.3,21.9,26.6,25.3,21.3z M20.4,72.6c-0.2-0.8-0.5-2.4-1-4.5l7.3-1.2c0.2,1.8,0.4,3.2,0.4,3.8L20.4,72.6z M27.5,64.9
		c-0.6-5.1-1.6-12-2.8-15.4c-1.4-4.1,1.6-6.6,3.1-7.6L27.5,64.9z M28.4,73l0.4-32.8l0,0c-0.2-9.4-1-15.8-2.2-18.6
		c0.6-0.6,2.9-2.4,10.4-2.9l1.7,5.3c0,0.1,0.1,0.2,0.2,0.3c0.1,0.1,0.3,0.2,0.5,0.2c0.2,0,0.4-0.1,0.5-0.2l2.8-2.8V77
		C32.3,76.6,28.9,73.6,28.4,73z M44.7,77c-0.4,0-0.7,0-1.1,0V20.5l1.1-1.1l0.9,0.9V77C45.3,77,45,77,44.7,77z M46.6,77V21.3l3,3
		c0.1,0.1,0.3,0.2,0.5,0.2c0.2,0,0.4-0.1,0.5-0.2c0.1-0.1,0.2-0.2,0.2-0.3l1.7-5.3c7.5,0.5,9.8,2.4,10.3,3c-1.2,2.9-2,9.6-2.2,19.3
		l0,0l0.5,32C60.5,73.6,57.1,76.6,46.6,77z M61.6,41.9c1.5,1,4.5,3.6,3.1,7.6c-1.2,3.3-2.2,10.1-2.8,15.2L61.6,41.9z M69,72.6
		l-6.7-1.8c0.1-0.6,0.2-2,0.4-3.7l7.3,1.2C69.5,70.2,69.1,71.8,69,72.6z M74.2,48.9c-0.9,4.5-2.8,12.7-4,18.3l-7.4-1.2
		c0.6-5.2,1.7-12.8,2.9-16.3c1.9-5.3-3-8.4-4.1-9.1c0.4-15.7,2-18.9,2.6-19.5C67.4,26,75.6,42,74.2,48.9z"/>
	<path class="st1" d="M48.6,39.4l5,2.9l5-3V30h-10V39.4z M49.6,31h8v7.7l-4,2.4l-4-2.3V31z"/>
</g>
<circle class="st1" cx="44.5" cy="26.9" r="0.4"/>
<circle class="st1" cx="44.5" cy="36.9" r="0.4"/>
<circle class="st1" cx="44.5" cy="47.9" r="0.4"/>
<circle class="st1" cx="44.5" cy="58.9" r="0.4"/>
<circle class="st1" cx="44.5" cy="69.9" r="0.4"/>
<circle class="st2" cx="66" cy="69.5" r="5.5"/>
</svg>
