<svg id="Calque_1" data-name="Calque 1" xmlns="http://www.w3.org/2000/svg" viewBox="0 0 90 90"><defs><style>.cls-1{fill:none;}.cls-1,.cls-2{stroke:#1a1a1a;stroke-miterlimit:10;}.cls-2{fill:#fff;}</style></defs><title>TG</title><path class="cls-1" d="M9,11.2H64a0,0,0,0,1,0,0V61.68a9.68,9.68,0,0,1-9.68,9.68H18.68A9.68,9.68,0,0,1,9,61.68V11.2A0,0,0,0,1,9,11.2Z"/><path class="cls-2" d="M25,18.2H80a0,0,0,0,1,0,0V68.68a9.68,9.68,0,0,1-9.68,9.68H34.68A9.68,9.68,0,0,1,25,68.68V18.2A0,0,0,0,1,25,18.2Z"/><line class="cls-1" x1="8.84" y1="25.5" x2="12.84" y2="25.5"/><line class="cls-1" x1="18.84" y1="25.5" x2="22.84" y2="25.5"/><line class="cls-1" x1="24.84" y1="32.5" x2="28.84" y2="32.5"/><line class="cls-1" x1="34.84" y1="32.5" x2="38.84" y2="32.5"/><line class="cls-1" x1="44.84" y1="32.5" x2="48.84" y2="32.5"/><line class="cls-1" x1="55.84" y1="32.5" x2="59.84" y2="32.5"/><line class="cls-1" x1="65.84" y1="32.5" x2="69.84" y2="32.5"/><line class="cls-1" x1="75.84" y1="32.5" x2="79.84" y2="32.5"/></svg>