<?xml version="1.0" encoding="utf-8"?>
<!-- Generator: Adobe Illustrator 20.1.0, SVG Export Plug-In . SVG Version: 6.00 Build 0)  -->
<svg version="1.1" id="Calque_1" xmlns="http://www.w3.org/2000/svg" xmlns:xlink="http://www.w3.org/1999/xlink" x="0px" y="0px"
	 viewBox="0 0 90 90" style="enable-background:new 0 0 90 90;" xml:space="preserve">
<style type="text/css">
	.st0{fill:#FFFFFF;}
	.st1{fill:#1A1A1A;}
</style>
<path class="st0" d="M14.3,69.7V19.9c0,0,0.6-6.6,27.4-6.6s25.8,4.6,25.8,4.6v50c0,0-1.1,7.2-9.5,7.2S25.4,75,25.4,75l0.2-1.2
	C25.6,73.8,16.2,72.9,14.3,69.7z"/>
<title>TG</title>
<path class="st1" d="M43.8,12.8c-20.1,0-26.9,3-29.1,5.4c-0.9,1.1-0.8,1.9-0.8,1.9v50l0.2,0.1c0.1,0.1,3.5,3.2,10.9,3.8v1.4l0.5,0
	c0.2,0,22.9,0.1,32,0.1c9.6,0,10.5-7.5,10.5-7.6V18.3c0-0.2,0-0.3,0-0.5C67.7,14.6,59.2,12.8,43.8,12.8z M25,39.3v33.9
	c-6.1-0.5-9.3-2.8-10-3.4l0-48.8l21.3,11L25,39.3z M57.5,74.6c-8.4,0-28.1-0.1-31.5-0.1V39.8l25.8-16.6c0.8-0.1,5.5-0.8,11.4-1.7
	c1.5-0.2,2.9-0.8,3.9-1.6l0,48.1C66.9,68.2,66.1,74.6,57.5,74.6z M67,18.2c-0.2,1-2,2-4,2.3c-6.4,1-11.5,1.7-11.5,1.7l-14.3,9.2
	L15,19.9c0.1-0.2,0.2-0.6,0.6-1.1c1.7-1.9,7.7-5,28.2-5c21.7,0,23.1,3.4,23.1,4.1c0,0,0,0,0,0L67,18.2z"/>
<g>
	<path class="st1" d="M35.4,72.2c-3.5,0-6.3-2.8-6.3-6.3s2.8-6.3,6.3-6.3s6.3,2.8,6.3,6.3S38.9,72.2,35.4,72.2z M35.4,60.6
		c-2.9,0-5.3,2.4-5.3,5.3s2.4,5.3,5.3,5.3c2.9,0,5.3-2.4,5.3-5.3S38.3,60.6,35.4,60.6z"/>
</g>
<g>
	<path class="st1" d="M35.4,70.3c-2.4,0-4.4-2-4.4-4.4s2-4.4,4.4-4.4c2.4,0,4.4,2,4.4,4.4S37.8,70.3,35.4,70.3z M35.4,62.5
		c-1.9,0-3.4,1.5-3.4,3.4s1.5,3.4,3.4,3.4s3.4-1.5,3.4-3.4S37.3,62.5,35.4,62.5z"/>
</g>
<circle class="st1" cx="35.4" cy="65.9" r="1.1"/>
<g>
	<path class="st1" d="M35.4,53.3c-3.5,0-6.3-2.8-6.3-6.3s2.8-6.3,6.3-6.3s6.3,2.8,6.3,6.3S38.9,53.3,35.4,53.3z M35.4,41.7
		c-2.9,0-5.3,2.4-5.3,5.3s2.4,5.3,5.3,5.3c2.9,0,5.3-2.4,5.3-5.3S38.3,41.7,35.4,41.7z"/>
</g>
<g>
	<path class="st1" d="M35.4,51.4c-2.4,0-4.4-2-4.4-4.4s2-4.4,4.4-4.4c2.4,0,4.4,2,4.4,4.4S37.8,51.4,35.4,51.4z M35.4,43.6
		c-1.9,0-3.4,1.5-3.4,3.4s1.5,3.4,3.4,3.4s3.4-1.5,3.4-3.4S37.3,43.6,35.4,43.6z"/>
</g>
<circle class="st1" cx="35.4" cy="47" r="1"/>
</svg>
