<?xml version="1.0" encoding="utf-8"?>
<!-- Generator: Adobe Illustrator 20.1.0, SVG Export Plug-In . SVG Version: 6.00 Build 0)  -->
<svg version="1.1" id="Calque_1" xmlns="http://www.w3.org/2000/svg" xmlns:xlink="http://www.w3.org/1999/xlink" x="0px" y="0px"
	 viewBox="0 0 90 90" style="enable-background:new 0 0 90 90;" xml:space="preserve">
<style type="text/css">
	.st0{fill:#FFFFFF;}
	.st1{fill:#1A1A1A;}
</style>
<path class="st0" d="M15.5,18.4c0,0,0-5.8,27.2-6.7c23.8-0.8,24.1,4.2,24.1,4.2v52.3c0,0-0.5,9.1-40.5,4.9c-0.7-0.8-0.7-0.8-0.7-0.8
	s-6.8-1.1-10.2-4.3C15.5,63.2,15.5,18.4,15.5,18.4z"/>
<title>TG</title>
<path class="st1" d="M67.5,16.6L67.5,16.6c0-0.2,0-0.4,0-0.7c-0.7-3.6-17.7-4.7-25.8-4.7c-12.7,0-25.6,3.2-26.6,6.7c0,0,0,0.1,0,0.1
	h0v0c0,0.1,0,0.3,0,0.4v49.8l0.2,0.1c0.2,0.2,5.7,3.9,10.2,4.3c0,0.2,0,0.3,0,0.4l0,0.4l0.4,0c0.7,0.1,9.2,1,18.2,1
	c10.3,0,21.5-1.2,23.3-6.3l0-0.2C67.5,57.7,67.5,17,67.5,16.6z M41.6,12.2c12.4,0,24.5,1.9,24.9,3.9c0.1,0.4-0.6,1.1-2.6,1.9
	c-4,1.6-9.3,2.5-14.5,3.3c-6.8,1.1-13.8,2.2-18.3,5.1c-7.1-2.7-14.5-6.3-15-8v-0.4C16.8,15.7,27.8,12.2,41.6,12.2z M16,67.7V20
	c2.8,2.7,10.4,5.8,14.1,7.2c-1.5,1.2-2.7,2.7-3.3,4.5c-3,9.3-1.8,33.8-1.4,40.1C21.6,71.3,17,68.4,16,67.7z M66.5,68
	c-1.3,3.5-8.7,5.4-21.2,5.5c-8.5,0.1-16.9-0.8-18.8-1c-0.2-3.7-1.8-31.1,1.3-40.7c2.1-6.5,12.1-8.1,21.7-9.6
	c5.2-0.8,10.7-1.7,14.7-3.4c0.7-0.3,1.6-0.7,2.3-1.2C66.5,24.6,66.5,58.5,66.5,68z"/>
<g>
	<path class="st1" d="M39.7,57.8c-3.5,0-6.3-2.8-6.3-6.3s2.8-6.3,6.3-6.3s6.3,2.8,6.3,6.3S43.1,57.8,39.7,57.8z M39.7,46.2
		c-2.9,0-5.3,2.4-5.3,5.3s2.4,5.3,5.3,5.3s5.3-2.4,5.3-5.3S42.6,46.2,39.7,46.2z"/>
</g>
<g>
	<path class="st1" d="M39.7,55.9c-2.4,0-4.4-2-4.4-4.4s2-4.4,4.4-4.4c2.4,0,4.4,2,4.4,4.4S42.1,55.9,39.7,55.9z M39.7,48.1
		c-1.9,0-3.4,1.5-3.4,3.4s1.5,3.4,3.4,3.4s3.4-1.5,3.4-3.4S41.5,48.1,39.7,48.1z"/>
</g>
<circle class="st1" cx="39.7" cy="51.5" r="1"/>
</svg>
