<?xml version="1.0" encoding="utf-8"?>
<!-- Generator: Adobe Illustrator 21.0.0, SVG Export Plug-In . SVG Version: 6.00 Build 0)  -->
<svg version="1.1" xmlns="http://www.w3.org/2000/svg" xmlns:xlink="http://www.w3.org/1999/xlink" x="0px" y="0px"
	 viewBox="0 0 100 100" style="enable-background:new 0 0 100 100;" xml:space="preserve">
<style type="text/css">
	.st0{fill:none;stroke:#000000;stroke-miterlimit:10;}
	.st1{fill:none;stroke:#000000;stroke-linecap:round;stroke-linejoin:round;stroke-miterlimit:10;}
	.st2{fill:#CCCCCC;stroke:#000000;stroke-miterlimit:10;}
	.st3{fill:#FFFFFF;stroke:#000000;stroke-miterlimit:10;}
</style>
<g id="Calque_2">
	<path class="st0" d="M36.7,16l21.7,21.2"/>
	<line class="st0" x1="42.5" y1="63.6" x2="14.2" y2="52.3"/>
	<path class="st2" d="M88.1,72c-4.8,7.3-12.3,10.8-16.7,7.9c-4.4-2.9-4.9-10.5-0.1-17.7s13-11.6,17.4-8.6S92.8,64.7,88.1,72z"/>
	<path class="st2" d="M71.4,79.9L42.5,63.7c0,0-5.5-21.4,15.9-26.5c27,14.8,30.7,16.6,30.7,16.6s-6.9-4.8-16.3,6.1
		C64.9,69.3,68.9,78.5,71.4,79.9z"/>
	<path class="st0" d="M49.9,40.9c0,0,23.6,13,25.9,14.9c1.7,1.4-12.9,10.5-5.9,23.3"/>
	<path class="st1" d="M55.4,55c0,0-2.6,2.5-1.8,2.9C54.2,58.3,55.4,55,55.4,55z"/>
	
		<ellipse transform="matrix(8.133696e-02 -0.9967 0.9967 8.133696e-02 -0.9953 104.5833)" class="st3" cx="56.2" cy="52.8" rx="2.2" ry="2.2"/>
	<path class="st1" d="M65.5,61c0,0-2.6,2.5-1.8,2.9C64.3,64.3,65.5,61,65.5,61z"/>
	
		<ellipse transform="matrix(8.133696e-02 -0.9967 0.9967 8.133696e-02 2.1252 121.0132)" class="st3" cx="66.7" cy="59.4" rx="2.2" ry="2.2"/>
	<line class="st1" x1="23.6" y1="23.7" x2="49.1" y2="40.9"/>
	<line class="st1" x1="43.6" y1="47.7" x2="37" y2="44.3"/>
	<line class="st1" x1="42.1" y1="54.3" x2="35.4" y2="51.1"/>
</g>
<g id="Calque_1">
</g>
</svg>
