<?xml version="1.0" encoding="utf-8"?>
<!-- Generator: Adobe Illustrator 21.0.0, SVG Export Plug-In . SVG Version: 6.00 Build 0)  -->
<svg version="1.1" xmlns="http://www.w3.org/2000/svg" xmlns:xlink="http://www.w3.org/1999/xlink" x="0px" y="0px"
	 viewBox="0 0 100 100" style="enable-background:new 0 0 100 100;" xml:space="preserve">
<style type="text/css">
	.st0{fill:none;stroke:#000000;stroke-miterlimit:10;}
	.st1{fill:none;stroke:#000000;stroke-linecap:round;stroke-linejoin:round;stroke-miterlimit:10;}
	.st2{fill:#CCCCCC;stroke:#000000;stroke-miterlimit:10;}
	.st3{fill:#FFFFFF;stroke:#000000;stroke-miterlimit:10;}
</style>
<g id="Calque_2">
	<path class="st0" d="M33.3,16l21.7,21.2"/>
	<line class="st0" x1="39" y1="63.6" x2="10.7" y2="52.3"/>
	<path class="st2" d="M84.6,72c-4.8,7.3-12.3,10.8-16.7,7.9C63.5,77,63,69.4,67.8,62.1s13-11.6,17.4-8.6S89.4,64.7,84.6,72z"/>
	<path class="st0" d="M67.9,79.9L39.1,63.7c0,0-5.5-21.4,15.9-26.5c27,14.8,30.7,16.6,30.7,16.6s-6.9-4.8-16.3,6.1
		C61.5,69.3,65.4,78.5,67.9,79.9z"/>
	<path class="st0" d="M46.5,40.9c0,0,23.6,13,25.9,14.9c1.7,1.4-12.9,10.5-5.9,23.3"/>
	<path class="st1" d="M51.9,55c0,0-2.6,2.5-1.8,2.9C50.7,58.3,51.9,55,51.9,55z"/>
	
		<ellipse transform="matrix(8.133696e-02 -0.9967 0.9967 8.133696e-02 -4.1774 101.131)" class="st0" cx="52.8" cy="52.8" rx="2.2" ry="2.2"/>
	<path class="st1" d="M62.1,61c0,0-2.6,2.5-1.8,2.9C60.9,64.3,62.1,61,62.1,61z"/>
	
		<ellipse transform="matrix(8.133696e-02 -0.9967 0.9967 8.133696e-02 -1.0569 117.5609)" class="st0" cx="63.2" cy="59.4" rx="2.2" ry="2.2"/>
	<line class="st1" x1="20.1" y1="23.7" x2="45.6" y2="40.9"/>
	<line class="st1" x1="40.1" y1="47.7" x2="33.5" y2="44.3"/>
	<line class="st1" x1="38.7" y1="54.3" x2="31.9" y2="51.1"/>
</g>
<g id="Calque_1">
</g>
</svg>
