<svg xmlns="http://www.w3.org/2000/svg" width="30" height="25" viewBox="0 0 30 25">
  <defs>
    <style>
      .cls-1 {
        fill: #fff;
        fill-rule: evenodd;
      }
    </style>
  </defs>
  <path id="Forme_1" data-name="Forme 1" class="cls-1" d="M293.5,98h-3.226a0.132,0.132,0,0,0-.13.116l-0.422,3.386a1.9,1.9,0,0,1-.048.217l-1.7,11.91A3.18,3.18,0,0,1,288,114a1.97,1.97,0,0,1-1.211,1.947l-0.105.053h-17.77a0.5,0.5,0,1,1,0-1h17.528a0.976,0.976,0,0,0,.558-1,0.917,0.917,0,0,0-.5-1H268.536a2.139,2.139,0,0,1-.287.019,2.309,2.309,0,0,1-2.171-1.568l-1.97-6.3a2.4,2.4,0,0,1,.355-2.129A2.563,2.563,0,0,1,266.355,102h21.724a0.663,0.663,0,0,0,.609-0.46l0.066-.464c0-.019.014-0.033,0.018-0.051l0.379-3.034A1.134,1.134,0,0,1,290.273,97H293.5A0.5,0.5,0,1,1,293.5,98Zm-22,19a2.5,2.5,0,1,1-2.5,2.5A2.5,2.5,0,0,1,271.5,117Zm14,0a2.5,2.5,0,1,1-2.5,2.5A2.5,2.5,0,0,1,285.5,117Z" transform="translate(-264 -97)"/>
</svg>
