<?xml version="1.0" encoding="utf-8"?>
<!-- Generator: Adobe Illustrator 21.0.0, SVG Export Plug-In . SVG Version: 6.00 Build 0)  -->
<svg version="1.1" xmlns="http://www.w3.org/2000/svg" xmlns:xlink="http://www.w3.org/1999/xlink" x="0px" y="0px"
	 viewBox="0 0 100 100" style="enable-background:new 0 0 100 100;" xml:space="preserve">
<style type="text/css">
	.st0{fill:none;stroke:#000000;stroke-miterlimit:10;}
	.st1{fill:none;stroke:#000000;stroke-linecap:round;stroke-linejoin:round;stroke-miterlimit:10;}
	.st2{fill:#CCCCCC;stroke:#000000;stroke-miterlimit:10;}
	.st3{fill:#FFFFFF;stroke:#000000;stroke-miterlimit:10;}
</style>
<g id="Calque_2">
</g>
<g id="Calque_1">
	<line class="st0" x1="89.6" y1="46" x2="73.3" y2="39.8"/>
	<line class="st0" x1="27.1" y1="39.8" x2="9.7" y2="44.9"/>
	<path class="st2" d="M57.7,47.8c0,0-2.2,0.5-7.1,0.5c-3.1,0-7.8-0.6-7.8-0.6c2-7.4,4.3-11.3,4.3-11.3h6.3
		C55.6,39.7,57.7,47.8,57.7,47.8z"/>
	<g>
		<path class="st2" d="M50.2,19.9c-12.8,0-23.1,3.7-23.1,8.3c0,2,2,3.8,5.3,5.3c0,0,16.6-7.1,35.7,0c3.3-1.4,5.3-3.3,5.3-5.3
			C73.4,23.6,63,19.9,50.2,19.9z"/>
	</g>
	<path class="st2" d="M27.1,39.5V28.2c0,0,0.2,6.8,20,8.2c-3.3,5.9-4.4,12.1-5,13.8c-0.2,0.5-0.8,0.7-1.3,0.4
		C40.8,50.6,30,44.3,27.1,39.5z"/>
	<path class="st2" d="M73.3,39.5V28.2c0,0-0.2,6.8-20,8.2c3.3,5.9,4.4,12.1,5,13.8c0.2,0.5,0.8,0.7,1.3,0.4
		C59.6,50.6,70.4,44.3,73.3,39.5z"/>
	<line class="st0" x1="47.1" y1="48.4" x2="47.1" y2="80"/>
	<circle class="st0" cx="50.3" cy="44.7" r="1.2"/>
	<circle class="st0" cx="52.6" cy="64.9" r="1.2"/>
</g>
</svg>
