<?xml version="1.0" encoding="utf-8"?>
<!-- Generator: Adobe Illustrator 20.1.0, SVG Export Plug-In . SVG Version: 6.00 Build 0)  -->
<svg version="1.1" id="Calque_1" xmlns="http://www.w3.org/2000/svg" xmlns:xlink="http://www.w3.org/1999/xlink" x="0px" y="0px"
	 viewBox="0 0 125.4 102" style="enable-background:new 0 0 125.4 102;" xml:space="preserve">
<style type="text/css">
	.st0{fill:#878787;}
	.st1{fill:#EC407A;}
</style>
<g>
	<path class="st0" d="M34.6,18.7l-0.8-0.5c2.9-4.5,16-4.9,16.5-4.9v1C50.2,14.2,37.2,14.6,34.6,18.7z"/>
</g>
<g>
	
		<rect x="34.1" y="49.6" transform="matrix(3.712045e-02 -0.9993 0.9993 3.712045e-02 -13.3573 86.3289)" class="st0" width="8.1" height="1"/>
</g>
<g>
	<path class="st0" d="M60.6,95.9c-0.2,0-0.3,0-0.5,0l0,0l0,0h-0.2c-0.1,0-0.1,0-0.1,0l0,0c-18.4-0.2-22.7-6-22.9-6.3l-0.1-0.1
		l0.7-19.4h1l-0.7,19.1c0.7,0.8,5.7,5.6,22.3,5.7c16.5,0.1,21.5-4.5,22.2-5.3L82,46.4h1L83.3,90l-0.1,0.1
		C83,90.3,78.6,95.9,60.6,95.9z"/>
</g>
<g>
	<path class="st0" d="M86.7,19.1c-3.1-4.6-15.5-4.7-15.6-4.7v-1c0.5,0,13,0.1,16.4,5.1L86.7,19.1z"/>
</g>
<g>
	<path class="st0" d="M43.2,75.4L15.5,49.9l18.4-32h0.2c0.1,0,0.4,0,0.8,0.3c1.3,1.1,3.5,6.2,3.8,27.7v0.2L35,49.5l13.3,16.6
		L43.2,75.4z M16.7,49.7l26.2,24.1l4.2-7.6L25.5,39.1l0.8-0.6l8.2,10.2l3.3-3c-0.3-21.9-2.6-25.9-3.3-26.7L16.7,49.7z M34.1,18.9
		L34.1,18.9L34.1,18.9z"/>
</g>
<g>
	<path class="st0" d="M110,70.2L82,46.6v-0.2c0.7-21.6,3-26.6,4.3-27.7c0.4-0.3,0.7-0.3,0.8-0.3h0.2l29.9,47L110,70.2z M83,46.2
		l27.1,22.7l5.8-3.8L86.8,19.5C86.1,20.2,83.7,24,83,46.2z M87,19.4L87,19.4L87,19.4z"/>
</g>
<g>
	<path class="st0" d="M35.8,20L35,19.5c0.1-0.2,2.6-4,15.8-4.7v1C38.3,16.4,35.8,20,35.8,20z"/>
</g>
<g>
	<path class="st0" d="M85.3,20.5c0,0-2.4-3.6-14.8-4.5l0.1-1c13.1,0.9,15.5,4.8,15.6,4.9L85.3,20.5z"/>
</g>
<g>
	<rect x="19.5" y="56" transform="matrix(9.764694e-03 -1 1 9.764694e-03 1.0826 114.0035)" class="st0" width="77.2" height="1"/>
</g>
<g>
	<rect x="23.5" y="56" transform="matrix(9.764694e-03 -1 1 9.764694e-03 4.9694 118.0938)" class="st0" width="77.2" height="1"/>
</g>
<g>
	<path class="st0" d="M72.3,47.8L65.8,44l0.1-12.4L79,31.7L78.9,44L72.3,47.8z M66.8,43.4l5.5,3.3l5.6-3.3L78,32.7l-11.1-0.1
		L66.8,43.4z"/>
</g>
<g>
	<path class="st0" d="M60.3,28.2L60.3,28.2c-0.6,0-1.1-0.5-1.1-1.1c0-0.3,0.1-0.5,0.3-0.7s0.4-0.3,0.7-0.3s0.5,0.1,0.7,0.3
		c0.2,0.2,0.3,0.5,0.3,0.7c0,0.3-0.1,0.5-0.3,0.7C60.8,28.1,60.6,28.2,60.3,28.2z M60.3,27.1L60.3,27.1L60.3,27.1L60.3,27.1
		L60.3,27.1z"/>
</g>
<g>
	<path class="st0" d="M60.2,41.7L60.2,41.7c-0.3,0-0.6-0.1-0.8-0.3s-0.3-0.5-0.3-0.7c0-0.6,0.5-1,1.1-1l0,0c0.3,0,0.5,0.1,0.7,0.3
		s0.3,0.5,0.3,0.7c0,0.3-0.1,0.5-0.3,0.7C60.7,41.6,60.5,41.7,60.2,41.7z M60.2,40.6C60.2,40.6,60.1,40.6,60.2,40.6L60.2,40.6v-0.5
		V40.6L60.2,40.6z"/>
</g>
<g>
	<path class="st0" d="M53.3,23.7c-0.2,0-0.4-0.1-0.6-0.2c-0.1-0.1-0.2-0.2-0.2-0.4l-2.9-9.6c-0.5-1.6-0.1-3.3,1-4.5l3.2-3l0.7,0.7
		l-3.2,3c-0.9,0.9-1.2,2.3-0.8,3.5l2.8,9.3l6.5-6.4l0.7,0.7l-6.7,6.7C53.7,23.6,53.5,23.7,53.3,23.7z M53.5,22.8L53.5,22.8
		L53.5,22.8z M53.2,22.8L53.2,22.8L53.2,22.8z"/>
</g>
<g>
	<path class="st0" d="M67.9,23.8c-0.2,0-0.4-0.1-0.6-0.3l-6.6-6.8l0.7-0.7l6.4,6.6l3-9.2c0.4-1.2,0.1-2.6-0.7-3.6l-2.7-2.7l0.7-0.7
		l2.7,2.7c1.1,1.2,1.5,3,1,4.6l-3.1,9.5c0,0.1-0.1,0.2-0.2,0.3C68.3,23.8,68.1,23.8,67.9,23.8z M67.7,23L67.7,23L67.7,23z M68,22.9
		L68,22.9L68,22.9z"/>
</g>
<g>
	<path class="st0" d="M60.2,17.1l-0.3-0.3c-1.3-1.3-7.8-7.7-6.8-10c0.2-0.4,0.6-0.9,1.8-0.9L66.5,6c0.5-0.1,1.6,0.1,1.9,0.9
		c0.4,1,0.1,3.2-7.9,9.9L60.2,17.1z M54.8,6.9c-0.3,0-0.7,0-0.8,0.3c-0.4,1.1,2.9,5.3,6.3,8.6c7.6-6.5,7.4-8.2,7.3-8.5
		C67.4,7,66.8,7,66.6,7L54.8,6.9L54.8,6.9z"/>
</g>
<g>
	<g>
		<path class="st1" d="M54.4,77h-1v-2h1V77z M54.4,73h-1v-2h1V73z M54.4,69h-1v-2h1V69z M54.4,65h-1v-2h1V65z M54.4,61h-1v-2h1V61z
			 M54.4,57h-1v-2h1V57z M54.4,53h-1v-2h1V53z M54.4,49h-1v-2h1V49z M54.4,45h-1v-2h1V45z M54.4,41h-1v-2h1V41z M54.4,37h-1v-2h1V37
			z M54.4,33h-1v-2h1V33z"/>
	</g>
	<g>
		<polygon class="st1" points="51.4,33.7 53.4,31.7 55.4,33.7 55.4,32 53.4,29.9 51.4,32 		"/>
	</g>
	<g>
		<polygon class="st1" points="51.4,74.4 53.4,76.5 55.4,74.4 55.4,76.2 53.4,78.3 51.4,76.2 		"/>
	</g>
</g>
<g>
	<g>
		<path class="st1" d="M114.6,57.4l-1.3-2.1l1-0.6l1.3,2.1L114.6,57.4z M112.1,53.2l-1.3-2.1l1-0.6l1.3,2.1L112.1,53.2z M109.5,49
			l-1.3-2.1l1-0.6l1.3,2.1L109.5,49z M107,44.8l-1.3-2.1l1-0.6l1.3,2.1L107,44.8z M104.4,40.6l-1.3-2.1l1-0.6l1.3,2.1L104.4,40.6z
			 M101.9,36.4l-1.3-2.1l1-0.6l1.3,2.1L101.9,36.4z M99.4,32.2l-1.3-2.1l1-0.6l1.3,2.1L99.4,32.2z M96.8,28l-1.3-2.1l1-0.6l1.3,2.1
			L96.8,28z M94.3,23.8L93,21.7l1-0.6l1.3,2.1L94.3,23.8z"/>
	</g>
	<g>
		<polygon class="st1" points="93,24.6 93.7,21.7 96.6,22.4 95.7,20.9 92.8,20.2 92.1,23.1 		"/>
	</g>
	<g>
		<polygon class="st1" points="112.6,56.9 115.5,57.6 116.2,54.8 117.1,56.3 116.4,59.1 113.5,58.4 		"/>
	</g>
</g>
</svg>
