<?xml version="1.0" encoding="utf-8"?>
<!-- Generator: Adobe Illustrator 20.1.0, SVG Export Plug-In . SVG Version: 6.00 Build 0)  -->
<svg version="1.1" id="Calque_1" xmlns="http://www.w3.org/2000/svg" xmlns:xlink="http://www.w3.org/1999/xlink" x="0px" y="0px"
	 viewBox="0 0 117.9 102" style="enable-background:new 0 0 117.9 102;" xml:space="preserve">
<style type="text/css">
	.st0{fill:#878787;}
	.st1{fill:#EC407A;}
</style>
<g>
	<path class="st0" d="M103.4,43.2c-0.1-0.6-2.8-15.7-19.9-15.7c-6.8,0-11.6-1.6-14.1-4.8c-2.6-3.3-1.9-6.9-1.8-7.1l1,0.2
		c0,0-0.7,3.4,1.6,6.2c2.3,2.9,6.8,4.4,13.3,4.4c18,0,20.8,16.4,20.9,16.6L103.4,43.2z"/>
</g>
<g>
	<path class="st0" d="M79.3,68.6l-0.7-0.7C86,60.6,89.9,46.2,90,46.1l1,0.3C90.8,47,86.9,61.1,79.3,68.6z"/>
</g>
<g>
	<path class="st0" d="M95.8,58.1L95,57.5c0.6-0.9-2.6-4.4-6.1-7.2l0.6-0.8C91.3,51,97.3,56,95.8,58.1z"/>
</g>
<g>
	<path class="st0" d="M82.5,87.2c-3.1-3-2-12.6-0.5-21.5c0.2-1,0.3-2,0.3-2.2h1c0,0.3-0.1,0.9-0.4,2.4c-0.8,4.8-3,17.5,0.2,20.6
		L82.5,87.2z"/>
</g>
<g>
	<path class="st0" d="M14.9,43.2l-1-0.2c0-0.2,2.9-16.6,20.9-16.6c6.4,0,10.7-1.4,12.7-4.3c2.1-2.9,1-6.3,1-6.3l1-0.3
		c0.1,0.2,1.2,3.9-1.1,7.2c-2.2,3.1-6.8,4.7-13.5,4.7C17.7,27.5,15,43.1,14.9,43.2z"/>
</g>
<g>
	<path class="st0" d="M39,68.6C31.4,61.1,27.6,47,27.4,46.4l1-0.3c0,0.1,4,14.5,11.3,21.8L39,68.6z"/>
</g>
<g>
	<path class="st0" d="M22.6,58.1C21,56,27,51,28.9,49.5l0.6,0.8c-3.5,2.8-6.7,6.3-6.1,7.2L22.6,58.1z"/>
</g>
<g>
	<path class="st0" d="M35.9,87L35,86.6c1.9-4.1,0.7-15.8,0.2-20.8c-0.1-1.4-0.2-2.1-0.2-2.4h1c0,0.2,0.1,1.1,0.2,2.3
		C36.7,70.8,37.9,82.6,35.9,87z"/>
</g>
<g>
	<g>
		<path class="st1" d="M73.9,83h-2v-1h2V83z M69.9,83h-2v-1h2V83z M65.9,83h-2v-1h2V83z M61.9,83h-2v-1h2V83z M57.9,83h-2v-1h2V83z
			 M53.9,83h-2v-1h2V83z M49.9,83h-2v-1h2V83z M45.9,83h-1v-1h1V83z"/>
	</g>
	<g>
		<polygon class="st1" points="71.1,80 73.2,82 71.1,84 72.9,84 75,82 72.9,80 		"/>
	</g>
	<g>
		<polygon class="st1" points="46.9,80 44.8,82 46.9,84 45.2,84 43.1,82 45.2,80 		"/>
	</g>
</g>
<g>
	<g>
		<path class="st1" d="M78.9,59h-2v-1h2V59z M74.9,59h-2v-1h2V59z M70.9,59h-2v-1h2V59z M66.9,59h-2v-1h2V59z M62.9,59h-2v-1h2V59z
			 M58.9,59h-2v-1h2V59z M54.9,59h-2v-1h2V59z M50.9,59h-2v-1h2V59z M46.9,59h-2v-1h2V59z M42.9,59h-2v-1h2V59z"/>
	</g>
	<g>
		<polygon class="st1" points="76.1,56 78.2,58 76.1,60 77.9,60 80,58 77.9,56 		"/>
	</g>
	<g>
		<polygon class="st1" points="41.9,56 39.8,58 41.9,60 40.2,60 38.1,58 40.2,56 		"/>
	</g>
</g>
<g>
	<g>
		<path class="st1" d="M92.9,39h-2v-1h2V39z M88.9,39h-2v-1h2V39z M84.9,39h-2v-1h2V39z M80.9,39h-2v-1h2V39z M76.9,39h-2v-1h2V39z
			 M72.9,39h-2v-1h2V39z M68.9,39h-2v-1h2V39z M64.9,39h-2v-1h2V39z M60.9,39h-2v-1h2V39z M56.9,39h-2v-1h2V39z M52.9,39h-2v-1h2V39
			z M48.9,39h-2v-1h2V39z M44.9,39h-2v-1h2V39z M40.9,39h-2v-1h2V39z M36.9,39h-2v-1h2V39z M32.9,39h-2v-1h2V39z M28.9,39h-2v-1h2
			V39z"/>
	</g>
	<g>
		<polygon class="st1" points="90.8,37 92.8,39 90.8,41 92.5,41 94.6,39 92.5,37 		"/>
	</g>
	<g>
		<polygon class="st1" points="27.3,37 25.2,39 27.3,41 25.5,41 23.4,39 25.5,37 		"/>
	</g>
</g>
</svg>
