<?xml version="1.0" encoding="utf-8"?>
<!-- Generator: Adobe Illustrator 20.1.0, SVG Export Plug-In . SVG Version: 6.00 Build 0)  -->
<svg version="1.1" id="Calque_1" xmlns="http://www.w3.org/2000/svg" xmlns:xlink="http://www.w3.org/1999/xlink" x="0px" y="0px"
	 viewBox="0 0 82 102" style="enable-background:new 0 0 82 102;" xml:space="preserve">
<style type="text/css">
	.st0{fill:#878787;}
	.st1{fill:#EC407A;}
</style>
<g>
	<path class="st0" d="M39.7,81.4C24,81.4,11.3,68.7,11.3,53S24,24.7,39.7,24.7C55.3,24.7,68,37.4,68,53S55.3,81.4,39.7,81.4z
		 M39.7,25.7c-15.1,0-27.4,12.2-27.4,27.3s12.3,27.4,27.4,27.4S67,68.1,67,53S54.7,25.7,39.7,25.7z"/>
</g>
<g>
	<path class="st0" d="M39.9,78.4c-14,0-25.4-11.4-25.4-25.4s11.4-25.4,25.4-25.4S65.3,39,65.3,53S53.9,78.4,39.9,78.4z M39.9,28.6
		c-13.5,0-24.4,11-24.4,24.4s10.9,24.4,24.4,24.4S64.3,66.5,64.3,53S53.4,28.6,39.9,28.6z"/>
</g>
<g>
	<path class="st0" d="M40.5,74.5c-0.3,0-0.5-0.2-0.5-0.5v-3c0-0.3,0.2-0.5,0.5-0.5S41,70.7,41,71v3C41,74.3,40.8,74.5,40.5,74.5z"/>
</g>
<g>
	<path class="st0" d="M40.5,36.5c-0.3,0-0.5-0.2-0.5-0.5v-4c0-0.3,0.2-0.5,0.5-0.5S41,31.7,41,32v4C41,36.3,40.8,36.5,40.5,36.5z"/>
</g>
<path class="st0" d="M19.2,34.3l-2.6,2.6c-0.5,0.5-1.4,0.5-1.9,0l-0.4-0.4c-0.5-0.5-0.5-1.4,0-1.9l2.6-2.6c0.5-0.5,1.4-0.5,1.9,0
	l0.4,0.4C19.8,32.9,19.8,33.8,19.2,34.3z"/>
<path class="st0" d="M65,34.6L62.4,32c-0.5-0.5-1.4-0.5-1.9,0l-0.4,0.4c-0.5,0.5-0.5,1.4,0,1.9l2.6,2.6c0.5,0.5,1.4,0.5,1.9,0
	l0.4-0.4C65.6,36,65.6,35.2,65,34.6z"/>
<g>
	<path class="st0" d="M24,53h-5c-0.3,0-0.5-0.2-0.5-0.5S18.7,52,19,52h5c0.3,0,0.5,0.2,0.5,0.5S24.3,53,24,53z"/>
</g>
<g>
	<path class="st0" d="M60,53h-4c-0.3,0-0.5-0.2-0.5-0.5S55.7,52,56,52h4c0.3,0,0.5,0.2,0.5,0.5S60.3,53,60,53z"/>
</g>
<g>
	<path class="st0" d="M40.2,55.3c-1.3,0-2.3-1.1-2.3-2.3c0-1.3,1.1-2.3,2.3-2.3s2.3,1.1,2.3,2.3C42.5,54.3,41.5,55.3,40.2,55.3z
		 M40.2,51.7c-0.7,0-1.3,0.6-1.3,1.3s0.6,1.3,1.3,1.3s1.3-0.6,1.3-1.3S40.9,51.7,40.2,51.7z"/>
</g>
<g>
	<g>
		<path class="st1" d="M40.4,52.9l-0.6-0.8l1.6-1.1l0.6,0.8L40.4,52.9z M43.6,50.7L43,49.9l1.6-1.1l0.6,0.8L43.6,50.7z M46.7,48.5
			l-0.6-0.8l1.6-1.1l0.6,0.8L46.7,48.5z M49.8,46.2l-0.6-0.8l1.6-1.1l0.6,0.8L49.8,46.2z M52.9,44l-0.6-0.8l1.6-1.1l0.6,0.8L52.9,44
			z"/>
	</g>
	<g>
		<polygon class="st1" points="53.9,44.7 54.3,42.4 52,42 53.1,41.1 55.5,41.5 55.1,43.9 		"/>
	</g>
</g>
<path class="st0" d="M45.5,20h-10c-0.6,0-1.1,0.4-1.1,1s0.5,1,1.1,1H39v3h3v-3h3.5c0.6,0,1.1-0.4,1.1-1S46.1,20,45.5,20z"/>
</svg>
