<?xml version="1.0" encoding="utf-8"?>
<!-- Generator: Adobe Illustrator 20.1.0, SVG Export Plug-In . SVG Version: 6.00 Build 0)  -->
<svg version="1.1" id="Calque_1" xmlns="http://www.w3.org/2000/svg" xmlns:xlink="http://www.w3.org/1999/xlink" x="0px" y="0px"
	 viewBox="0 0 90 90" style="enable-background:new 0 0 90 90;" xml:space="preserve">
<style type="text/css">
	.st0{fill:#FFFFFF;}
	.st1{fill:none;stroke:#1A1A1A;stroke-miterlimit:10;}
	.st2{fill:#1A1A1A;}
</style>
<g>
	<path class="st0" d="M16.8,24.2c0.7-8.9,23.5-9.3,27.3-9.3c0.3,0,0.5,0,0.5,0h1.9c0.3,0,27.1-0.4,27.8,9.2c0.2,2.1-0.8,4.4-3,6.7
		c-1.4,1.5-3.3,3-5.3,4.3c-19.2-6.3-38.5-0.8-40.9,0c-2-1.3-3.9-2.8-5.3-4.3C17.6,28.6,16.7,26.4,16.8,24.2z"/>
	<path class="st0" d="M8.3,55.8c0.9-3.9,6.3-22.8,8-28.5c0.5,1.4,1.4,2.8,2.7,4.2c5.4,5.8,16.3,10.5,22.3,11.9l-30.6,30
		C10,70.4,7.4,59.7,8.3,55.8z"/>
	<path class="st0" d="M29.6,56.3l6.3-6.2v7.1C32.8,57.4,30.6,56.7,29.6,56.3z"/>
	<path class="st0" d="M37,58v-8.9l5.5-5.4c0.8,0.1,1.4,0.2,1.9,0.2h2.4c0.4,0,1-0.1,1.7-0.2l12.9,12.7C59.1,57.1,52.2,58.6,37,58z"
		/>
	<path class="st0" d="M80.1,73.5L49.6,43.5c5.9-1.4,17-6.1,22.4-12c1.4-1.5,2.3-3,2.8-4.4c1.7,6.2,6.9,24.8,7.7,28.6
		C83.4,59.7,80.9,70.4,80.1,73.5z"/>
</g>
<title>TG</title>
<ellipse class="st1" cx="45.4" cy="52.4" rx="3.2" ry="2.1"/>
<ellipse class="st2" cx="45.4" cy="52.5" rx="0.7" ry="0.4"/>
<rect x="48.7" y="51.6" class="st2" width="1.3" height="1.1"/>
<path class="st2" d="M83.5,55.6c-1-4.5-7.7-28.7-8.3-30.6c0-0.3,0-0.5,0-0.8C74.5,13.6,47.6,14,46.5,14h-1.8
	c-1.1,0-28-0.4-28.8,10.2c0,0.4,0,0.8,0,1.3l0,0c-0.1,0.3-7.4,25.5-8.5,30.2C6.2,60.4,9.8,74,10,74.6l0.2,0.8l18.7-18.3
	c0.8,0.3,3,1.2,6.5,1.2c0.2,0,0.4,0,0.6,0V59l0.5,0c2.5,0.1,4.9,0.1,7,0.1c12.1,0,17.3-1.4,18.8-1.9l17.9,17.5l0.6,0.6l0.2-0.8
	C81.1,74,84.6,60.4,83.5,55.6z M16.8,24.2c0.7-8.9,23.5-9.3,27.3-9.3c0.3,0,0.5,0,0.5,0h1.9c0.3,0,27.1-0.4,27.8,9.2
	c0.2,2.1-0.8,4.4-3,6.7c-1.4,1.5-3.3,3-5.3,4.3c-19.2-6.3-38.5-0.8-40.9,0c-2-1.3-3.9-2.8-5.3-4.3C17.6,28.6,16.7,26.4,16.8,24.2z
	 M46.8,43h-2.4c-2.8,0-11.3-2.9-18.1-7.1c4.4-1.2,21.4-5.3,38.7,0C58,40.1,49.5,43,46.8,43z M8.3,55.8c0.9-3.9,6.3-22.8,8-28.5
	c0.5,1.4,1.4,2.8,2.7,4.2c5.4,5.8,16.3,10.5,22.3,11.9l-30.6,30C10,70.4,7.4,59.7,8.3,55.8z M29.6,56.3l6.3-6.2v7.1
	C32.8,57.4,30.6,56.7,29.6,56.3z M37,58v-8.9l5.5-5.4c0.8,0.1,1.4,0.2,1.9,0.2h2.4c0.4,0,1-0.1,1.7-0.2l12.9,12.7
	C59.1,57.1,52.2,58.6,37,58z M80.1,73.5L49.6,43.5c5.9-1.4,17-6.1,22.4-12c1.4-1.5,2.3-3,2.8-4.4c1.7,6.2,6.9,24.8,7.7,28.6
	C83.4,59.7,80.9,70.4,80.1,73.5z"/>
</svg>
