<?xml version="1.0" encoding="utf-8"?>
<!-- Generator: Adobe Illustrator 20.1.0, SVG Export Plug-In . SVG Version: 6.00 Build 0)  -->
<svg version="1.1" id="Calque_1" xmlns="http://www.w3.org/2000/svg" xmlns:xlink="http://www.w3.org/1999/xlink" x="0px" y="0px"
	 viewBox="0 0 90 90" style="enable-background:new 0 0 90 90;" xml:space="preserve">
<style type="text/css">
	.st0{fill:#FFFFFF;}
	.st1{fill:#1A1A1A;}
</style>
<g>
	<path class="st0" d="M17.8,23.2c0.7-8.9,23.3-9.3,27.1-9.3c0.3,0,0.5,0,0.5,0h1.8c0.3,0,26.8-0.4,27.6,9.2c0.2,2.1-0.8,4.4-3,6.7
		c-1.2,1.3-2.6,2.5-4.3,3.6c-24.1-6.3-40.3-0.8-42.5,0c-1.6-1.1-3.1-2.4-4.3-3.6C18.7,27.6,17.7,25.4,17.8,23.2z"/>
	<path class="st0" d="M18.8,75.8c-2-1.3-9.8-7.3-10-16.4c-0.2-8.8,6.2-27.6,8.3-33.8c0.4,1.7,1.4,3.4,3,5.1
		c5.2,5.6,15.6,10.2,21.5,11.8C34.5,47.3,20.9,71.9,18.8,75.8z"/>
	<path class="st0" d="M32.5,54.9c1-1.5,2-2.9,3-4.3V55C34.5,55,33.5,55,32.5,54.9z"/>
	<path class="st0" d="M36.4,55.8v-6.5c2.5-3.3,4.8-5.8,6.6-6.6c0.8,0.2,1.6,0.3,2.1,0.3h2.5c0.5,0,1.3-0.1,2.2-0.3
		c2.6,1.2,6.7,6.5,10.7,12.5C56.9,56,44.4,58.4,36.4,55.8z"/>
	<path class="st0" d="M73.8,75.8c-2.1-3.9-15.7-28.5-22.8-33.4c6-1.6,16.3-6.1,21.5-11.7c1.6-1.7,2.6-3.4,3-5.1
		c2.2,6.2,8.5,25,8.3,33.8C83.7,68.4,75.8,74.5,73.8,75.8z"/>
</g>
<title>TG</title>
<ellipse class="st1" cx="45.4" cy="50.5" rx="0.7" ry="0.4"/>
<rect x="48.7" y="49.6" class="st1" width="1.3" height="1.1"/>
<g>
	<path class="st1" d="M45.4,47.8c-2.1,0-3.7,1.1-3.7,2.6s1.6,2.6,3.7,2.6c2.1,0,3.7-1.1,3.7-2.6S47.5,47.8,45.4,47.8z M45.4,52
		c-1.5,0-2.7-0.7-2.7-1.6s1.3-1.6,2.7-1.6c1.5,0,2.7,0.7,2.7,1.6S46.9,52,45.4,52z"/>
	<path class="st1" d="M75.8,23.3C75.8,23.2,75.8,23.2,75.8,23.3C75,12.6,48.3,13,47.2,13h-1.8c-1.1,0-27.7-0.4-28.6,10.2
		c0,0,0,0.1,0,0.1C16.2,25,7.5,48.8,7.7,59.4c0.2,11,10.9,17.5,11,17.5l0.4,0.3l0.2-0.5c0.1-0.2,6.2-11.4,12.4-20.9
		c0.9,0.1,1.8,0.2,2.7,0.2c0.3,0,0.6,0,0.9,0v0.5h0.1l0,0c2.9,1.1,6.4,1.5,9.9,1.5c6.8,0,13.5-1.4,15.5-1.9
		c6.2,9.5,12.1,20.5,12.2,20.6l0.3,0.5l0.5-0.3c0.1-0.1,10.7-6.7,11-17.6C85.1,48.8,76.4,25,75.8,23.3z M17.8,23.2
		c0.7-8.9,23.3-9.3,27.1-9.3c0.3,0,0.5,0,0.5,0h1.8c0.3,0,26.8-0.4,27.6,9.2c0.2,2.1-0.8,4.4-3,6.7c-1.2,1.3-2.6,2.5-4.3,3.6
		c-24.1-6.3-40.3-0.8-42.5,0c-1.6-1.1-3.1-2.4-4.3-3.6C18.7,27.6,17.7,25.4,17.8,23.2z M47.5,42h-2.5c-2.9,0-12.1-3.2-19-7.7
		c3.7-1.2,18.7-5.4,40.3,0.1C59.5,38.8,50.4,42,47.5,42z M18.8,75.8c-2-1.3-9.8-7.3-10-16.4c-0.2-8.8,6.2-27.6,8.3-33.8
		c0.4,1.7,1.4,3.4,3,5.1c5.2,5.6,15.6,10.2,21.5,11.8C34.5,47.3,20.9,71.9,18.8,75.8z M32.5,54.9c1-1.5,2-2.9,3-4.3V55
		C34.5,55,33.5,55,32.5,54.9z M36.4,55.8v-6.5c2.5-3.3,4.8-5.8,6.6-6.6c0.8,0.2,1.6,0.3,2.1,0.3h2.5c0.5,0,1.3-0.1,2.2-0.3
		c2.6,1.2,6.7,6.5,10.7,12.5C56.9,56,44.4,58.4,36.4,55.8z M73.8,75.8c-2.1-3.9-15.7-28.5-22.8-33.4c6-1.6,16.3-6.1,21.5-11.7
		c1.6-1.7,2.6-3.4,3-5.1c2.2,6.2,8.5,25,8.3,33.8C83.7,68.4,75.8,74.5,73.8,75.8z"/>
</g>
</svg>
