<?xml version="1.0" encoding="utf-8"?>
<!-- Generator: Adobe Illustrator 20.1.0, SVG Export Plug-In . SVG Version: 6.00 Build 0)  -->
<svg version="1.1" id="Calque_1" xmlns="http://www.w3.org/2000/svg" xmlns:xlink="http://www.w3.org/1999/xlink" x="0px" y="0px"
	 viewBox="0 0 90 90" style="enable-background:new 0 0 90 90;" xml:space="preserve">
<style type="text/css">
	.st0{fill:#FFFFFF;}
	.st1{fill:none;stroke:#1A1A1A;stroke-miterlimit:10;}
	.st2{fill:#1A1A1A;}
</style>
<path class="st0" d="M43.2,19H46c8.1,0.1,29,1.8,29.2,8.7c0.1,2.8-3,6-7,9.1l0,0c-7.8-2.3-15.8-3.5-24-3.5c-7.9,0-15.8,1.1-23.4,3.4
	c-4-3-6.9-6.2-6.9-9C14.2,20.8,35.1,19.1,43.2,19z"/>
<path class="st0" d="M31.1,65.9c-1.2,1.2-2.5,2.2-3.9,3.2C20,59.8,9.5,45.3,9.5,42.6c0.1-2.8,2.6-9.9,3.8-13.1
	c2.1,6.4,14.8,13.2,22.7,17.5c1.4,0.8,2.8,1.5,3.7,2c-1,1.1-3.3,3.9-3.5,7.5C36,60.5,34.1,63.1,31.1,65.9z"/>
<path class="st0" d="M36.1,61.1c0.6-1.3,1-2.8,1.1-4.6c0-0.5,0.1-0.9,0.2-1.4c1.1-0.8,3.7-2.8,4.4-4.5c0.7,0,2.1,0.1,3.5,0.1
	c0.8,0,1.6,0,2.2-0.1c0.6,1.7,3.2,3.6,4.3,4.4c0.1,0.5,0.2,0.9,0.2,1.4c0.1,1.8,0.5,3.3,1.1,4.6C46.3,63.2,38.3,61.6,36.1,61.1z"/>
<path class="st0" d="M62,69.1c-1.4-1-2.7-2-3.9-3.2c-3-2.8-4.9-5.3-5.1-9.4c-0.2-3.6-2.5-6.4-3.5-7.5c0.9-0.5,2.3-1.3,3.7-2
	c7.9-4.2,20.5-11.1,22.7-17.4c1.2,3.3,3.7,10.2,3.8,13.1C79.8,45.3,69.3,59.8,62,69.1z"/>
<path class="st0" d="M48.7,49.5c0.5,0.6,1.8,2,2.6,4c-1.9-1.5-3.3-3.1-2.9-3.7C48.4,49.7,48.5,49.6,48.7,49.5z"/>
<path class="st0" d="M40.9,49.8c0.4,0.6-1.1,2.3-2.9,3.7c0.8-1.9,2-3.4,2.6-4C40.7,49.6,40.8,49.7,40.9,49.8z"/>
<title>TG</title>
<ellipse class="st1" cx="44.2" cy="57" rx="3.2" ry="2.1"/>
<ellipse class="st2" cx="44.2" cy="57.1" rx="0.7" ry="0.4"/>
<rect x="47.5" y="56.2" class="st2" width="1.3" height="1.1"/>
<circle class="st2" cx="27.4" cy="64.1" r="1.4"/>
<circle class="st2" cx="60.8" cy="64.1" r="1.4"/>
<path class="st2" d="M76.2,27.5c-0.5-9-29-9.5-30.2-9.5h-2.9c-1.2,0-29.5,0.5-30.1,9.4l0,0c-0.2,0.5-4.4,11.3-4.5,15.2
	c-0.1,3.9,16.3,25.1,18.2,27.5l0.3,0.4l0.4-0.3c1.6-1,3.1-2.3,4.4-3.6c1.6-1.5,2.9-2.9,3.9-4.6c1.2,0.3,5.1,1.1,9.7,1.1
	c2.6,0,5.5-0.3,8.2-1.1c0.9,1.6,2.2,3.1,3.8,4.6c1.4,1.3,2.8,2.5,4.4,3.6l0.4,0.3l0.3-0.4c1.9-2.4,18.3-23.6,18.2-27.5
	C80.5,38.8,76.6,28.5,76.2,27.5z M43.1,19H46c8.1,0.1,29,1.8,29.2,8.7c0.1,2.8-3,6-7,9.1l0,0c-7.8-2.3-15.8-3.5-24-3.5
	c-7.9,0-15.8,1.1-23.4,3.4c-4-3-6.9-6.2-6.9-9C14.2,20.8,35.1,19.1,43.1,19z M48.6,49.5c0.5,0.6,1.8,2,2.6,4
	c-1.9-1.5-3.3-3.1-2.9-3.7C48.4,49.7,48.5,49.6,48.6,49.5z M47.5,49.2c-0.1,0.2-0.2,0.3-0.2,0.5c-1.6,0.1-4.4,0-5.4,0
	c0-0.2-0.1-0.3-0.2-0.4c-0.3-0.5-1.8-1.3-5.2-3.2c-4.1-2.2-9.9-5.3-14.6-8.7c7.3-2.1,14.8-3.2,22.4-3.2c7.8,0,15.5,1.1,23,3.3
	c-4.7,3.4-10.5,6.5-14.5,8.6C49.2,47.9,47.8,48.7,47.5,49.2z M40.8,49.8c0.4,0.6-1.1,2.3-2.9,3.7c0.8-1.9,2-3.4,2.6-4
	C40.7,49.6,40.8,49.7,40.8,49.8z M31.1,65.9c-1.2,1.2-2.5,2.2-3.9,3.2C19.9,59.8,9.4,45.3,9.5,42.6c0.1-2.8,2.6-9.9,3.8-13.1
	c2.1,6.4,14.8,13.2,22.7,17.5c1.4,0.8,2.8,1.5,3.7,2c-1,1.1-3.3,3.9-3.5,7.5C36,60.5,34.1,63.1,31.1,65.9z M36.1,61.1
	c0.6-1.3,1-2.8,1.1-4.6c0-0.5,0.1-0.9,0.2-1.4c1.1-0.8,3.7-2.8,4.4-4.5c0.7,0,2.1,0.1,3.5,0.1c0.8,0,1.6,0,2.2-0.1
	c0.6,1.7,3.2,3.6,4.3,4.4c0.1,0.5,0.2,0.9,0.2,1.4c0.1,1.8,0.5,3.3,1.1,4.6C46.3,63.2,38.3,61.6,36.1,61.1z M62,69.1
	c-1.4-1-2.7-2-3.9-3.2c-3-2.8-4.9-5.3-5.1-9.4c-0.2-3.6-2.5-6.4-3.5-7.5c0.9-0.5,2.3-1.3,3.7-2c7.9-4.2,20.5-11.1,22.7-17.4
	c1.2,3.3,3.7,10.2,3.8,13.1C79.7,45.3,69.2,59.8,62,69.1z"/>
</svg>
