<?xml version="1.0" encoding="utf-8"?>
<!-- Generator: Adobe Illustrator 20.1.0, SVG Export Plug-In . SVG Version: 6.00 Build 0)  -->
<svg version="1.1" id="Calque_1" xmlns="http://www.w3.org/2000/svg" xmlns:xlink="http://www.w3.org/1999/xlink" x="0px" y="0px"
	 viewBox="0 0 90 90" style="enable-background:new 0 0 90 90;" xml:space="preserve">
<style type="text/css">
	.st0{fill:#FFFFFF;}
	.st1{fill:none;stroke:#1A1A1A;stroke-miterlimit:10;}
	.st2{fill:#1A1A1A;}
</style>
<g>
	<path class="st0" d="M15.2,22.3C15.2,22.3,15.2,22.3,15.2,22.3C15.5,15.6,36,14,43.9,14c7.9,0,28.4,1.6,28.7,8.3
		c0.1,3.4-3.9,7.1-8.9,10.3l0,0c-20.8-6.4-37.7-0.8-39.9-0.1C19.1,29.3,15.1,25.7,15.2,22.3C15.3,22.3,15.3,22.3,15.2,22.3
		L15.2,22.3z"/>
	<path class="st0" d="M32.1,56.3c0.6-1.2,1.2-2.4,1.8-3.6v3.8C33.3,56.4,32.7,56.3,32.1,56.3z"/>
	<path class="st0" d="M34.9,51c1.6-2.9,3.2-5.7,5-8.5c1.3,0.2,2.7,0.3,4.1,0.3c1.4,0,2.7-0.1,4.1-0.3c2.8,4.4,5.4,9,7.7,13.7
		c-6.9,0.8-13.9,0.9-20.8,0.3L34.9,51L34.9,51z"/>
	<path class="st0" d="M23.9,73c-2.6-2.8-13.6-15.3-13.5-19.8c0.1-4.4,3.2-21.7,4.4-28.3c3.3,7.6,21,15.3,24.5,16.8
		C33,51.5,27.8,62,23.9,73z"/>
	<path class="st0" d="M28.6,63.8c1-2.2,2-4.4,3-6.6c0.8,0.1,1.5,0.2,2.3,0.3v7.1C32.2,64.5,30.4,64.3,28.6,63.8z"/>
	<path class="st0" d="M35,65.6v-8c3,0.3,6,0.4,9,0.4c4.1,0,8.2-0.3,12.3-0.8c1.1,2.3,2.2,4.7,3.2,7.1C50.6,67.3,37.5,65.9,35,65.6z"
		/>
	<path class="st0" d="M63.9,73C60,62,54.9,51.4,48.6,41.6c3.5-1.4,21.2-9.1,24.5-16.8c1.2,6.6,4.3,23.9,4.4,28.3
		C77.6,57.1,69,67.5,63.9,73z"/>
</g>
<title>TG</title>
<ellipse class="st1" cx="43.2" cy="50" rx="3.2" ry="2.1"/>
<ellipse class="st2" cx="43.2" cy="50.1" rx="0.7" ry="0.4"/>
<rect x="46.5" y="49.2" class="st2" width="1.3" height="1.1"/>
<ellipse class="st1" cx="43.2" cy="62" rx="3.2" ry="2.1"/>
<ellipse class="st2" cx="43.2" cy="62.1" rx="0.7" ry="0.4"/>
<rect x="46.5" y="61.2" class="st2" width="1.3" height="1.1"/>
<path class="st2" d="M73.6,22.2C73,13.4,46.4,13,44,13l-0.1,0v0c-2.4,0-29.1,0.4-29.6,9.2c-0.3,1.9-4.8,25.5-4.9,30.9
	c-0.1,5.3,12.2,18.8,14.3,21l0,0l0,0c0.1,0.2,0.2,0.2,0.2,0.2l0.3,0.1l0.5-0.5l-0.1-0.1c1.1-3.1,2.3-6.1,3.5-9.1
	c1.9,0.5,3.8,0.8,5.8,0.8v0.9l0.4,0.1c0.4,0.1,5.1,0.7,10.9,0.7c4.7,0,10.1-0.4,14.6-2c1.2,2.9,2.4,5.8,3.4,8.8l0.1,0.1l0.1,0.1
	c0.3,0.2,0.7,0.1,0.8-0.1c1.5-1.6,14.4-15.5,14.3-21C78.4,47.6,73.8,23.3,73.6,22.2z M15.2,22.3C15.2,22.3,15.2,22.3,15.2,22.3
	C15.5,15.6,36,14,43.9,14c7.9,0,28.4,1.6,28.7,8.3c0.1,3.4-3.9,7.1-8.9,10.3l0,0c-20.8-6.4-37.7-0.8-39.9-0.1
	C19.1,29.3,15.1,25.7,15.2,22.3C15.2,22.3,15.3,22.3,15.2,22.3L15.2,22.3z M32.1,56.3c0.6-1.2,1.2-2.4,1.8-3.6v3.8
	C33.3,56.4,32.7,56.3,32.1,56.3z M34.9,51c1.6-2.9,3.2-5.7,5-8.5c1.3,0.2,2.7,0.3,4.1,0.3c1.4,0,2.7-0.1,4.1-0.3
	c2.8,4.4,5.4,9,7.7,13.7c-6.9,0.8-13.9,0.9-20.8,0.3L34.9,51L34.9,51z M47.7,40.9l-0.6,0.2l0.3,0.5c-2.3,0.3-4.6,0.3-6.9,0l0.3-0.4
	l-0.6-0.2c-0.1-0.1-8.3-3.4-15.2-7.7c3.8-1.2,19.1-5.4,37.7,0.1C55.8,37.6,47.8,40.9,47.7,40.9z M23.9,73
	c-2.6-2.8-13.6-15.3-13.5-19.8c0.1-4.4,3.2-21.7,4.4-28.3c3.3,7.6,21,15.3,24.5,16.8C33,51.5,27.8,62,23.9,73z M28.6,63.8
	c1-2.2,2-4.4,3-6.6c0.8,0.1,1.5,0.2,2.3,0.3v7.1C32.2,64.5,30.4,64.3,28.6,63.8z M35,65.6v-8c3,0.3,6,0.4,9,0.4
	c4.1,0,8.2-0.3,12.3-0.8c1.1,2.3,2.2,4.7,3.2,7.1C50.6,67.3,37.5,65.9,35,65.6z M63.9,73C60,62,54.9,51.4,48.6,41.6
	c3.5-1.4,21.2-9.1,24.5-16.8c1.2,6.6,4.3,23.9,4.4,28.3C77.6,57.1,69,67.5,63.9,73z"/>
</svg>
