<svg id="Calque_1" data-name="Calque 1" xmlns="http://www.w3.org/2000/svg" viewBox="0 0 90 90"><defs><style>.cls-1{fill:none;stroke:#1a1a1a;stroke-miterlimit:10;}.cls-2{fill:#1a1a1a;}</style></defs><title>TG</title><path class="cls-1" d="M60.84,22.68s.06,6,.06,8.43-12,10.64-12,10.64L46.7,30s17.07-2,13.72-8.4c-3.78-7.18-16.26-7.13-16.26-7.13H43.07s-12.48-.06-16.26,7.13C23.46,28,39.53,30.08,39.53,30.08l-2.17,11.7s-11-8.2-11-10.66.06-8.43.06-8.43"/><path class="cls-1" d="M30.43,27.76a27.78,27.78,0,0,1,26.79-.21"/><path class="cls-1" d="M60.9,31.11s13.63,3.49,20.43,7.46"/><line class="cls-1" x1="8.58" y1="37.08" x2="26.33" y2="31.11"/><line class="cls-1" x1="39.72" y1="30.5" x2="46.72" y2="30.5"/><line class="cls-1" x1="37.72" y1="38.5" x2="47.72" y2="38.5"/><line class="cls-1" x1="40.22" y1="75" x2="40.22" y2="39"/><circle class="cls-2" cx="43.53" cy="35.03" r="1.93"/><circle class="cls-2" cx="43.53" cy="45.03" r="1.93"/><circle class="cls-2" cx="43.53" cy="56.03" r="1.93"/><circle class="cls-2" cx="43.53" cy="67.03" r="1.93"/></svg>