<?xml version="1.0" encoding="utf-8"?>
<!-- Generator: Adobe Illustrator 20.1.0, SVG Export Plug-In . SVG Version: 6.00 Build 0)  -->
<svg version="1.1" id="Calque_1" xmlns="http://www.w3.org/2000/svg" xmlns:xlink="http://www.w3.org/1999/xlink" x="0px" y="0px"
	 viewBox="0 0 90 90" style="enable-background:new 0 0 90 90;" xml:space="preserve">
<style type="text/css">
	.st0{fill:#FFFFFF;}
	.st1{fill:#1A1A1A;}
</style>
<title>TG</title>
<g>
	<polygon class="st0" points="72,69.4 65.1,76.4 23.6,76.4 17,69.4 17,13.2 72,13.2 	"/>
	<path class="st1" d="M65.3,76.9H23.4l-6.9-7.3V12.7h56v56.9L65.3,76.9z M23.8,75.9h41l6.6-6.7V13.7h-54v55.5L23.8,75.9z"/>
</g>
<g>
	<rect x="47.8" y="37" class="st1" width="1" height="32"/>
</g>
<g>
	<rect x="39.9" y="37" class="st1" width="1" height="32"/>
</g>
<g>
	<polygon class="st1" points="44.5,35.1 16.8,23.3 17.2,22.4 44.5,34 71.8,22.4 72.2,23.3 	"/>
</g>
<g>
	<path class="st1" d="M44.8,30.9c-2,0-3.6-1.6-3.6-3.6s1.6-3.6,3.6-3.6c2,0,3.6,1.6,3.6,3.6S46.8,30.9,44.8,30.9z M44.8,24.4
		c-1.6,0-2.9,1.3-2.9,2.9s1.3,2.9,2.9,2.9s2.9-1.3,2.9-2.9S46.4,24.4,44.8,24.4z"/>
</g>
<g>
	<path class="st1" d="M44.8,29.8c-1.4,0-2.6-1.2-2.6-2.6s1.2-2.6,2.6-2.6s2.6,1.2,2.6,2.6S46.2,29.8,44.8,29.8z M44.8,25.4
		c-1,0-1.8,0.8-1.8,1.8s0.8,1.8,1.8,1.8c1,0,1.8-0.8,1.8-1.8S45.8,25.4,44.8,25.4z"/>
</g>
<circle class="st1" cx="44.8" cy="27.3" r="0.6"/>
</svg>
