<?xml version="1.0" encoding="utf-8"?>
<!-- Generator: Adobe Illustrator 20.1.0, SVG Export Plug-In . SVG Version: 6.00 Build 0)  -->
<svg version="1.1" id="Calque_1" xmlns="http://www.w3.org/2000/svg" xmlns:xlink="http://www.w3.org/1999/xlink" x="0px" y="0px"
	 viewBox="0 0 90 90" style="enable-background:new 0 0 90 90;" xml:space="preserve">
<style type="text/css">
	.st0{fill:#FFFFFF;stroke:#1A1A1A;stroke-miterlimit:10;}
	.st1{fill:#1A1A1A;}
</style>
<title>TG</title>
<polygon class="st0" points="64,65.4 57.1,72.4 15.6,72.4 9,65.4 9,9.2 64,9.2 "/>
<g>
	<rect x="8.8" y="23" class="st1" width="4" height="1"/>
</g>
<g>
	<rect x="18.8" y="23" class="st1" width="4" height="1"/>
</g>
<polygon class="st0" points="80,73.4 73.1,80.4 31.6,80.4 25,73.4 25,17.2 80,17.2 "/>
<g>
	<rect x="24.8" y="31" class="st1" width="4" height="1"/>
</g>
<g>
	<rect x="34.8" y="31" class="st1" width="4" height="1"/>
</g>
<g>
	<rect x="44.8" y="31" class="st1" width="4" height="1"/>
</g>
<g>
	<rect x="55.8" y="31" class="st1" width="4" height="1"/>
</g>
<g>
	<rect x="65.8" y="31" class="st1" width="4" height="1"/>
</g>
<g>
	<rect x="75.8" y="31" class="st1" width="4" height="1"/>
</g>
<g>
	<rect x="55.8" y="41" class="st1" width="1" height="32"/>
</g>
<g>
	<rect x="47.8" y="41" class="st1" width="1" height="32"/>
</g>
</svg>
