<svg id="Calque_1" data-name="Calque 1" xmlns="http://www.w3.org/2000/svg" viewBox="0 0 90 90"><defs><style>.cls-1{fill:#fff;}.cls-1,.cls-2,.cls-3{stroke:#1a1a1a;stroke-miterlimit:10;}.cls-2,.cls-3{fill:none;}.cls-3{stroke-width:0.75px;}.cls-4{fill:#1a1a1a;}</style></defs><title>TG</title><path class="cls-1" d="M17,14.42H72a0,0,0,0,1,0,0V64.9a9.68,9.68,0,0,1-9.68,9.68H26.68A9.68,9.68,0,0,1,17,64.9V14.42A0,0,0,0,1,17,14.42Z"/><path class="cls-2" d="M72,18v-.59A15.21,15.21,0,0,1,56.79,32.58H32.21A15.21,15.21,0,0,1,17,17.37V18"/><circle class="cls-3" cx="43.5" cy="25.97" r="3.26"/><circle class="cls-3" cx="43.5" cy="25.97" r="2.2"/><circle class="cls-4" cx="43.5" cy="25.97" r="0.59"/></svg>