<?xml version="1.0" encoding="utf-8"?>
<!-- Generator: Adobe Illustrator 20.1.0, SVG Export Plug-In . SVG Version: 6.00 Build 0)  -->
<svg version="1.1" id="Calque_1" xmlns="http://www.w3.org/2000/svg" xmlns:xlink="http://www.w3.org/1999/xlink" x="0px" y="0px"
	 viewBox="0 0 90 90" style="enable-background:new 0 0 90 90;" xml:space="preserve">
<style type="text/css">
	.st0{fill:#FFFFFF;}
	.st1{fill:#1A1A1A;}
</style>
<g>
	<path class="st0" d="M83.5,18.9c0,0-26.2-2.4-40-4.8S5,13.1,8,20.1S83.5,18.9,83.5,18.9V74c-8.7-1.9-17.6-2.2-26.3-1
		c-14.3,2.1-49.1,3.9-49.3-3.3s0-50.7,0-50.7"/>
	<path class="st1" d="M29.9,75.4c-9.6,0-18.3-0.9-21.3-3.4c-0.8-0.6-1.2-1.4-1.2-2.2c-0.3-6.8,0-46.9,0-50.4
		c-0.1-0.8,0.1-1.5,0.7-2.2c3.8-4.9,23.9-5.4,35.6-3.5c13.4,2.3,38.6,4.7,40,4.8l0.5-0.1v56.3l-0.6-0.1c-8.6-1.9-17.4-2.2-26.2-1
		C50.4,74.5,39.7,75.4,29.9,75.4z M8.3,21.2c-0.1,8.7-0.2,42.4,0,48.6c0,0.5,0.3,1,0.9,1.5c5.6,4.6,33.7,3.3,47.9,1.3
		c8.7-1.2,17.4-0.9,25.9,0.9V19.5C73.8,20.5,15.9,26.7,8.3,21.2z M8.3,19.3c0,0.2,0.1,0.4,0.2,0.7c1.1,2.6,20.8,4.4,70.2-1
		c-8.2-0.8-25.1-2.6-35.3-4.3c-12.5-2.1-31.3-1.1-34.6,3.1c-0.3,0.4-0.5,0.9-0.5,1.4h0C8.3,19.1,8.3,19.2,8.3,19.3z"/>
</g>
<title>TG</title>
<g>
	<path class="st1" d="M68.9,46.9c-2.9,0-5.3-2.4-5.3-5.3s2.4-5.3,5.3-5.3c2.9,0,5.3,2.4,5.3,5.3S71.8,46.9,68.9,46.9z M68.9,37.2
		c-2.4,0-4.4,2-4.4,4.4s2,4.4,4.4,4.4c2.4,0,4.4-2,4.4-4.4S71.4,37.2,68.9,37.2z"/>
</g>
<g>
	<path class="st1" d="M68.9,45.3c-2,0-3.7-1.7-3.7-3.7c0-2,1.7-3.7,3.7-3.7s3.7,1.7,3.7,3.7C72.6,43.7,71,45.3,68.9,45.3z
		 M68.9,38.8c-1.6,0-2.8,1.3-2.8,2.8s1.3,2.8,2.8,2.8c1.6,0,2.8-1.3,2.8-2.8S70.5,38.8,68.9,38.8z"/>
</g>
<circle class="st1" cx="68.9" cy="41.7" r="0.9"/>
</svg>
