<?xml version="1.0" encoding="utf-8"?>
<!-- Generator: Adobe Illustrator 20.1.0, SVG Export Plug-In . SVG Version: 6.00 Build 0)  -->
<svg version="1.1" id="Calque_1" xmlns="http://www.w3.org/2000/svg" xmlns:xlink="http://www.w3.org/1999/xlink" x="0px" y="0px"
	 viewBox="0 0 90 90" style="enable-background:new 0 0 90 90;" xml:space="preserve">
<style type="text/css">
	.st0{fill:#FFFFFF;}
	.st1{fill:#1A1A1A;}
</style>
<title>TG</title>
<g>
	<path class="st0" d="M4.5,19.9V69c0,0,2.7,7.8,20.3,6.7s31.7-3.5,39.1-2.3s16.7-3,16.7-12.5s0.4-40.8,0.4-40.8s-24.5-0.7-36.2-4
		S6,11.1,4.5,19.9c-1.5,8.9,70.8,1.2,76.4,0.2"/>
	<path class="st1" d="M21.3,76.3C6.7,76.3,4.1,69.5,4,69.2L4,69V20.5c0-0.1,0-0.3,0-0.5l0-0.1c0,0,0,0,0,0C4.3,18.4,5.2,17,6.9,16
		c7.9-5,28.9-2.9,37.9-0.3c10.9,3.1,33.2,3.9,35.8,4c0,0,0.1,0,0.1,0l0,0c0.1,0,0.1,0,0.1,0l0.5,0l0,0.5c0,0.3-0.4,31.4-0.4,40.8
		c0,3.8-1.5,7.1-4.3,9.5c-3.3,2.9-8.3,4.2-13,3.4c-4.8-0.7-12.5,0-22.3,0.9c-5,0.5-10.7,1-16.7,1.4C23.6,76.3,22.4,76.3,21.3,76.3z
		 M5,68.9c0.3,0.7,3.7,7.3,19.7,6.3c6-0.4,11.7-0.9,16.7-1.4c9.8-0.9,17.6-1.7,22.5-0.9c4.4,0.7,9-0.6,12.2-3.2
		c2.6-2.2,3.9-5.2,3.9-8.7c0-8.7,0.3-36,0.4-40.2C72.1,22,13.1,28.2,5,22.1V68.9z M5,20.4c0,0.2,0.2,0.5,0.4,0.7
		c5.4,5.3,52.4,1.2,69.5-0.7c-8-0.4-22.3-1.5-30.4-3.8c-10.1-2.9-30.1-4.2-37.1,0.2c-1.4,0.9-2.2,2-2.4,3.2c0,0,0,0,0,0V20.4z"/>
</g>
<g>
	<path class="st1" d="M67,47.8c-2.9,0-5.3-2.4-5.3-5.3c0-2.9,2.4-5.3,5.3-5.3c2.9,0,5.3,2.4,5.3,5.3C72.3,45.4,70,47.8,67,47.8z
		 M67,38.1c-2.4,0-4.4,2-4.4,4.4c0,2.4,2,4.4,4.4,4.4c2.4,0,4.4-2,4.4-4.4C71.5,40.1,69.5,38.1,67,38.1z"/>
</g>
<g>
	<path class="st1" d="M67,46.2c-2,0-3.7-1.7-3.7-3.7s1.7-3.7,3.7-3.7s3.7,1.7,3.7,3.7S69.1,46.2,67,46.2z M67,39.7
		c-1.6,0-2.8,1.3-2.8,2.8s1.3,2.8,2.8,2.8s2.8-1.3,2.8-2.8S68.6,39.7,67,39.7z"/>
</g>
<circle class="st1" cx="67.1" cy="42.5" r="0.9"/>
</svg>
