<svg xmlns="http://www.w3.org/2000/svg" width="204.969" height="23.75" viewBox="0 0 204.969 23.75">
  <defs>
    <style>
      .cls-1 {
        fill: #21304e;
        fill-rule: evenodd;
      }
    </style>
  </defs>
  <path id="logo" class="cls-1" d="M196.492,792.2l-1.813-1.3a6.922,6.922,0,0,1-2.05,1.02,8.085,8.085,0,0,1-2.453.379,7.72,7.72,0,0,1-3.176-.638,7.482,7.482,0,0,1-2.483-1.75,8.1,8.1,0,0,1-1.623-2.6,8.756,8.756,0,0,1-.584-3.214,9.223,9.223,0,0,1,.6-3.272,8.769,8.769,0,0,1,1.675-2.8,8.226,8.226,0,0,1,2.58-1.961,7.329,7.329,0,0,1,3.286-.733,5.913,5.913,0,0,1,2.08.367,16.979,16.979,0,0,1,1.951.856,3.528,3.528,0,0,1,1.816-1.032,14.81,14.81,0,0,1,.854,5.588H196.3a7.113,7.113,0,0,0-1.967-3.494,5.018,5.018,0,0,0-3.572-1.331,4.942,4.942,0,0,0-2.6.629,5.05,5.05,0,0,0-1.726,1.657,7.2,7.2,0,0,0-.954,2.388,12.811,12.811,0,0,0-.294,2.771,11.855,11.855,0,0,0,.342,2.916,7.213,7.213,0,0,0,1.044,2.4,5.435,5.435,0,0,0,1.737,1.638,4.715,4.715,0,0,0,2.449.616,5.781,5.781,0,0,0,1.546-.2,3.689,3.689,0,0,0,1.27-.61,2.942,2.942,0,0,0,.874-1.067,3.68,3.68,0,0,0,.316-1.579,2.265,2.265,0,0,0-2.575-2.549v-0.73h7.2v0.73q-2.244,0-2.242,1.861V792.2h-0.657Zm4.287-.264v-0.741c1.543,0,2.313-.526,2.313-1.588v-11.1q0-2.055-2.492-2.054v-0.759h13.228l0.2,4.586-0.78.094a5.745,5.745,0,0,0-.688-2.059,2.964,2.964,0,0,0-1.091-1.092A3.621,3.621,0,0,0,210,776.8q-0.833-.057-1.814-0.057H207.48c-1.278,0-1.915.363-1.915,1.105v4.381a0.6,0.6,0,0,0,.6.737h0.858a9.092,9.092,0,0,0,1.171-.066,2.262,2.262,0,0,0,.958-0.32,1.823,1.823,0,0,0,.677-0.778,4.151,4.151,0,0,0,.366-1.433h0.934v6.345H210.2a5.9,5.9,0,0,0-.3-1.441,1.78,1.78,0,0,0-.576-0.807,2.176,2.176,0,0,0-.935-0.367,9.275,9.275,0,0,0-1.36-.086h-0.306c-0.772,0-1.154.271-1.154,0.812v4.681q0,1.39,2.011,1.391h0.785a11.31,11.31,0,0,0,2.557-.23,3.9,3.9,0,0,0,1.576-.735,3.679,3.679,0,0,0,.967-1.264q0.363-.753.746-1.788l0.676,0.2-0.676,4.854H200.779Zm24.133,0.364a8.247,8.247,0,0,1-3.3-.65A7.922,7.922,0,0,1,219,789.861a8.17,8.17,0,0,1-1.711-2.671,8.69,8.69,0,0,1-.618-3.27,8.9,8.9,0,0,1,.577-3.147,8.5,8.5,0,0,1,1.665-2.716,8.324,8.324,0,0,1,2.611-1.915,7.8,7.8,0,0,1,3.386-.717,8.929,8.929,0,0,1,3.386.621,7.84,7.84,0,0,1,4.422,4.373,8.641,8.641,0,0,1,.028,6.414,9.007,9.007,0,0,1-1.7,2.762,8.581,8.581,0,0,1-2.657,1.958A8.026,8.026,0,0,1,224.912,792.3Zm0.2-.931a4.588,4.588,0,0,0,4.079-2.157,7.168,7.168,0,0,0,.973-2.364,13.118,13.118,0,0,0,.317-2.927,12.782,12.782,0,0,0-.317-2.837,7.679,7.679,0,0,0-1-2.441,5.313,5.313,0,0,0-1.774-1.716,5.146,5.146,0,0,0-2.659-.647,4.61,4.61,0,0,0-2.432.609,4.779,4.779,0,0,0-1.607,1.646,7.1,7.1,0,0,0-.887,2.373,14.716,14.716,0,0,0-.263,2.817,12.815,12.815,0,0,0,.329,3.012,7.547,7.547,0,0,0,1,2.426A4.831,4.831,0,0,0,225.112,791.368Zm26.451-1.566a2.277,2.277,0,0,1-.138.709,2.438,2.438,0,0,1-.431.785,3.272,3.272,0,0,1-.7.639,1.739,1.739,0,0,1-.943.264,4.084,4.084,0,0,1-2.272-.5,2.973,2.973,0,0,1-1.083-1.631c-0.2-.619-0.4-1.286-0.6-2a13.356,13.356,0,0,0-.717-1.962,5.3,5.3,0,0,0-1.021-1.491,2.068,2.068,0,0,0-1.517-.6h-0.749a0.778,0.778,0,0,0-.783.271v5.319c0,1.062.77,1.588,2.316,1.588v0.741h-7.1v-0.741c1.477,0,2.211-.526,2.211-1.588V778.019q0-1.567-2.39-1.568v-0.759h3.15c0.55,0,1.022,0,1.408-.017s0.762-.019,1.119-0.034,0.751-.031,1.162-0.036,0.914-.011,1.5-0.011a6.672,6.672,0,0,1,2.042.3,5.306,5.306,0,0,1,1.648.85,4.245,4.245,0,0,1,1.1,1.273,3.275,3.275,0,0,1,.4,1.588,3.338,3.338,0,0,1-.327,1.519,3.477,3.477,0,0,1-.92,1.154,5.673,5.673,0,0,1-1.4.835,9.764,9.764,0,0,1-1.787.537v0.072a6.516,6.516,0,0,1,2,1.406,4.94,4.94,0,0,1,1.074,1.632c0.094,0.326.215,0.718,0.347,1.174a11.816,11.816,0,0,0,.47,1.3,4.551,4.551,0,0,0,.617,1.039,1.065,1.065,0,0,0,.852.434,1.131,1.131,0,0,0,.887-1.105Zm-9.042-6.74a10.6,10.6,0,0,0,1.462-.093,3.234,3.234,0,0,0,1.259-.447,2.564,2.564,0,0,0,.894-0.975,3.725,3.725,0,0,0,.337-1.743,3.14,3.14,0,0,0-.337-1.542,2.753,2.753,0,0,0-.884-0.969,3.605,3.605,0,0,0-1.2-.5,6.141,6.141,0,0,0-1.287-.148h-1.2c-0.643,0-.962.464-0.962,1.374V782.7a0.532,0.532,0,0,0,.6.364h1.313Zm24.084,9.137-1.812-1.3a6.946,6.946,0,0,1-2.06,1.02,8.017,8.017,0,0,1-2.455.379,7.754,7.754,0,0,1-3.171-.638,7.363,7.363,0,0,1-2.476-1.75,8.012,8.012,0,0,1-1.629-2.6,8.815,8.815,0,0,1-.578-3.214,9.215,9.215,0,0,1,.589-3.272,8.793,8.793,0,0,1,1.677-2.8,8.145,8.145,0,0,1,2.582-1.961,7.352,7.352,0,0,1,3.287-.733,5.917,5.917,0,0,1,2.08.367,17.709,17.709,0,0,1,1.952.856,3.507,3.507,0,0,1,1.815-1.032,14.913,14.913,0,0,1,.853,5.588h-0.853a7.192,7.192,0,0,0-1.968-3.494,5.027,5.027,0,0,0-3.575-1.331,4.953,4.953,0,0,0-2.6.629,5.132,5.132,0,0,0-1.726,1.657,7.112,7.112,0,0,0-.951,2.388,13,13,0,0,0-.292,2.771,12.054,12.054,0,0,0,.337,2.916,7.212,7.212,0,0,0,1.043,2.4,5.492,5.492,0,0,0,1.742,1.638,4.706,4.706,0,0,0,2.444.616,5.781,5.781,0,0,0,1.546-.2,3.749,3.749,0,0,0,1.275-.61,2.87,2.87,0,0,0,.865-1.067,3.578,3.578,0,0,0,.318-1.579,2.26,2.26,0,0,0-2.568-2.549v-0.73h7.2v0.73c-1.491,0-2.244.621-2.244,1.861V792.2h-0.654Zm4.281-.264v-0.741c1.545,0,2.315-.526,2.315-1.588v-11.1q0-2.055-2.49-2.054v-0.759h13.224l0.2,4.586-0.782.094a5.874,5.874,0,0,0-.681-2.059,3.057,3.057,0,0,0-1.1-1.092,3.649,3.649,0,0,0-1.474-.418c-0.555-.038-1.157-0.057-1.814-0.057h-0.7c-1.278,0-1.912.363-1.912,1.105v4.381a0.6,0.6,0,0,0,.6.737h0.858a9.177,9.177,0,0,0,1.171-.066,2.258,2.258,0,0,0,.957-0.32,1.9,1.9,0,0,0,.683-0.778,4.306,4.306,0,0,0,.358-1.433h0.936v6.345h-0.936a6.156,6.156,0,0,0-.3-1.441,1.73,1.73,0,0,0-.58-0.807,2.107,2.107,0,0,0-.935-0.367,9.2,9.2,0,0,0-1.354-.086h-0.3c-0.773,0-1.157.271-1.157,0.812v4.681c0,0.927.666,1.391,2.011,1.391h0.782a11.3,11.3,0,0,0,2.557-.23,3.889,3.889,0,0,0,1.574-.735,3.806,3.806,0,0,0,.972-1.264,19.182,19.182,0,0,0,.736-1.788l0.681,0.2-0.681,4.854H270.886ZM98.754,789.649V778.36a1.147,1.147,0,0,1,.494-1.022c5.626-2,10.43-4.569,11.635-5,1.7-.6,1.37,2.357,1.37,2.357s3.651-3.934,1.334-5.136-4.789.9-10.736,4.356a34.28,34.28,0,0,1-15.988,4.806c-4.4.151-6.1-2.178-6.72-.975s1.159,1.426,1.159,1.426c1,0.376,4.326,1.352,10.813.15,0.938-.174,1.883-0.395,2.824-0.644,1.409-.13,1.346.525,1.346,0.525v10.441c0,1.506-.9,2.253-2.694,2.253v0.74h7.886V791.9C99.661,791.9,98.754,791.155,98.754,789.649Zm20.131,1.862a2.311,2.311,0,0,1-.555-0.635l-5.966-14.551-0.763-.293-6.044,14.009a3.286,3.286,0,0,1-.87,1.275,2.066,2.066,0,0,1-1.246.489v0.837h5.668v-0.837c-1.479,0-2.212-.375-2.212-1.125a1.6,1.6,0,0,1,.095-0.639l0.859-2.543a1.042,1.042,0,0,1,1.155-.641h3.753a1.517,1.517,0,0,1,1.543.641l1.129,3.011a1.421,1.421,0,0,1,.14.449,2.553,2.553,0,0,0,.037.285,0.315,0.315,0,0,1-.214.256,2.273,2.273,0,0,1-.53.186,6.69,6.69,0,0,1-.7.12c-0.261.032-.514,0.068-0.743,0.1v0.74h6.9V791.9c-0.442-.111-0.781-0.2-1.018-0.255A1.508,1.508,0,0,1,118.885,791.511Zm-6.047-5.682h-3.176c-0.616,0-.931-0.124-0.931-0.368a2.459,2.459,0,0,1,.275-0.834l2.22-5.143,2.092,5.24a3.974,3.974,0,0,1,.278.812C113.6,785.733,113.34,785.829,112.838,785.829Zm13.4,4.387v-10.9q0-2.158,2.316-2.155V776.4h-7.283v0.759q2.493,0,2.493,2.155v10.9c0,1.121-.8,1.686-2.389,1.686v0.74h7.278V791.9C127.047,791.9,126.242,791.337,126.242,790.216ZM142.288,791a5.979,5.979,0,0,1-1.461.455,11.316,11.316,0,0,1-2.017.156h-1.159c-1.089,0-1.638-.343-1.638-1.025V779.021q0-1.863,2.321-1.862V776.4H131.05v0.759q2.494,0,2.5,1.862v11.562q0,1.32-2.215,1.319v0.74H144.2l0.756-5.052-0.678-.092C143.69,789.44,143.022,790.6,142.288,791Zm17.723-12.5a7.911,7.911,0,0,0-2.672-1.739,8.967,8.967,0,0,0-3.392-.62,7.776,7.776,0,0,0-3.38.717,8.312,8.312,0,0,0-4.276,4.631,8.894,8.894,0,0,0-.575,3.146,8.677,8.677,0,0,0,.614,3.271,8.227,8.227,0,0,0,1.714,2.671,7.906,7.906,0,0,0,2.6,1.788,8.265,8.265,0,0,0,3.3.65,8,8,0,0,0,3.481-.746,8.491,8.491,0,0,0,2.655-1.958,8.978,8.978,0,0,0,1.7-2.762,8.531,8.531,0,0,0,.6-3.109,8.642,8.642,0,0,0-.624-3.306A8,8,0,0,0,160.011,778.492Zm-0.812,9.063a7.066,7.066,0,0,1-.967,2.364,4.6,4.6,0,0,1-4.079,2.157,5.081,5.081,0,0,1-2.494-.588,5.028,5.028,0,0,1-1.74-1.619,7.588,7.588,0,0,1-1.006-2.425,13.091,13.091,0,0,1-.324-3.012,14.711,14.711,0,0,1,.26-2.817,7.216,7.216,0,0,1,.885-2.374,4.8,4.8,0,0,1,1.612-1.646,4.579,4.579,0,0,1,2.427-.609,5.156,5.156,0,0,1,2.661.648,5.316,5.316,0,0,1,1.776,1.715,7.639,7.639,0,0,1,.989,2.442,12.317,12.317,0,0,1,.32,2.836A12.664,12.664,0,0,1,159.2,787.555Zm20.828,2.758a1.134,1.134,0,0,1-.885,1.105,1.07,1.07,0,0,1-.858-0.434,4.438,4.438,0,0,1-.617-1.038,9.965,9.965,0,0,1-.462-1.3c-0.136-.456-0.257-0.849-0.353-1.174a4.879,4.879,0,0,0-1.073-1.632,6.478,6.478,0,0,0-2-1.406V784.36a9.6,9.6,0,0,0,1.787-.537,5.637,5.637,0,0,0,1.4-.835,3.347,3.347,0,0,0,1.252-2.673,3.227,3.227,0,0,0-.406-1.588,4.185,4.185,0,0,0-1.091-1.273,5.356,5.356,0,0,0-1.651-.85,6.73,6.73,0,0,0-2.051-.3c-0.583,0-1.082,0-1.493.01s-0.8.019-1.159,0.037-0.735.03-1.123,0.034-0.856.017-1.4,0.017h-3.148v0.759c1.593,0,2.386.522,2.386,1.568v11.586c0,1.062-.741,1.589-2.213,1.589v0.74h7.1V791.9c-1.544,0-2.317-.527-2.317-1.589v-5.319a0.773,0.773,0,0,1,.777-0.27h0.757a2.052,2.052,0,0,1,1.511.6,5.092,5.092,0,0,1,1.017,1.49,13.557,13.557,0,0,1,.724,1.962c0.2,0.71.4,1.378,0.605,2a2.95,2.95,0,0,0,1.082,1.631,4.08,4.08,0,0,0,2.267.5,1.743,1.743,0,0,0,.945-0.265A3.327,3.327,0,0,0,180.04,792a2.533,2.533,0,0,0,.423-0.785,2.293,2.293,0,0,0,.141-0.71Zm-7.013-6.636a10.49,10.49,0,0,1-1.453.093h-1.314a0.534,0.534,0,0,1-.6-0.364v-4.679c0-.911.317-1.374,0.958-1.374h1.211a6.174,6.174,0,0,1,1.282.147,3.667,3.667,0,0,1,1.2.5,2.674,2.674,0,0,1,.876.968,3.121,3.121,0,0,1,.34,1.543,3.7,3.7,0,0,1-.34,1.743,2.429,2.429,0,0,1-.893.975A3.177,3.177,0,0,1,173.014,783.677Z" transform="translate(-80.031 -769.25)"/>
</svg>
