<?xml version="1.0" encoding="utf-8"?>
<!-- Generator: Adobe Illustrator 21.0.0, SVG Export Plug-In . SVG Version: 6.00 Build 0)  -->
<svg version="1.1" xmlns="http://www.w3.org/2000/svg" xmlns:xlink="http://www.w3.org/1999/xlink" x="0px" y="0px"
	 viewBox="0 0 100 100" style="enable-background:new 0 0 100 100;" xml:space="preserve">
<style type="text/css">
	.st0{fill:none;stroke:#000000;stroke-miterlimit:10;}
	.st1{fill:none;stroke:#000000;stroke-linecap:round;stroke-linejoin:round;stroke-miterlimit:10;}
	.st2{fill:#CCCCCC;stroke:#000000;stroke-miterlimit:10;}
	.st3{fill:#FFFFFF;stroke:#000000;stroke-miterlimit:10;}
</style>
<g id="Calque_2">
</g>
<g id="Calque_1">
	<line class="st0" x1="94.4" y1="47.9" x2="78.1" y2="41.7"/>
	<line class="st0" x1="31.9" y1="41.7" x2="14.5" y2="46.8"/>
	<path class="st3" d="M62.5,49.7c0,0-2.2,0.5-7.1,0.5c-3.1,0-7.8-0.6-7.8-0.6c2-7.4,4.3-11.3,4.3-11.3h6.3
		C60.4,41.6,62.5,49.7,62.5,49.7z"/>
	<g>
		<path class="st3" d="M55,21.8c-12.8,0-23.1,3.7-23.1,8.3c0,2,2,3.8,5.3,5.3c0,0,16.6-7.1,35.7,0c3.3-1.4,5.3-3.3,5.3-5.3
			C78.2,25.5,67.8,21.8,55,21.8z"/>
	</g>
	<path class="st3" d="M31.9,41.4V30.1c0,0,0.2,6.8,20,8.2c-3.3,5.9-4.4,12.1-5,13.8c-0.2,0.5-0.8,0.7-1.3,0.4
		C45.6,52.5,34.8,46.2,31.9,41.4z"/>
	<path class="st3" d="M78.1,41.4V30.1c0,0-0.2,6.8-20,8.2c3.3,5.9,4.4,12.1,5,13.8c0.2,0.5,0.8,0.7,1.3,0.4
		C64.4,52.5,75.2,46.2,78.1,41.4z"/>
	<line class="st0" x1="51.8" y1="50.3" x2="51.8" y2="81.9"/>
	<circle class="st0" cx="55.1" cy="46.6" r="1.2"/>
	<circle class="st0" cx="57.3" cy="66.8" r="1.2"/>
</g>
</svg>
