<?xml version="1.0" encoding="utf-8"?>
<!-- Generator: Adobe Illustrator 20.1.0, SVG Export Plug-In . SVG Version: 6.00 Build 0)  -->
<svg version="1.1" id="Calque_1" xmlns="http://www.w3.org/2000/svg" xmlns:xlink="http://www.w3.org/1999/xlink" x="0px" y="0px"
	 viewBox="0 0 30 78.7" style="enable-background:new 0 0 30 78.7;" xml:space="preserve">
<style type="text/css">
	.st0{fill:#4F2855;}
</style>
<path class="st0" d="M17.3,11.5h2.8l0,0h1c1,0,1.9-0.8,1.9-1.9s-0.8-1.9-1.9-1.9h-1l0,0h-2.8c-0.1,0-0.1-0.1-0.1-0.1l0.1-0.1h2.8
	l0,0h1c1,0,1.9-0.8,1.9-1.9s-0.8-1.9-1.9-1.9h-5h-1.8h-6c-1,0-1.9,0.8-1.9,1.9s0.8,1.9,1.9,1.9h1l0,0h2.8c0.1,0,0.1,0.1,0.1,0.1
	l-0.1,0.1H9.3l0,0h-1c-1,0-1.9,0.8-1.9,1.9s0.8,1.9,1.9,1.9h1l0,0h2.8c0.1,0,0.1,0.1,0.1,0.1l-0.1,0.1H9.3l0,0h-1
	c-1,0-1.9,0.8-1.9,1.9s0.8,1.9,1.9,1.9h1l0,0h2.8c0.1,0,0.1,0.1,0.1,0.1l-0.1,0.1H9.3l0,0h-1c-1,0-1.9,0.8-1.9,1.9s0.8,1.9,1.9,1.9
	h1l0,0h2.8c0.1,0,0.1,0.1,0.1,0.1l-0.1,0.1H9.3l0,0h-1c-1,0-1.9,0.8-1.9,1.9s0.8,1.9,1.9,1.9h1l0,0h2.8c0.1,0,0.1,0.1,0.1,0.1
	l-0.1,0.1H9.3l0,0h-1c-1,0-1.9,0.8-1.9,1.9s0.8,1.9,1.9,1.9h1l0,0h2.8c0.1,0,0.1,0.1,0.1,0.1l-0.1,0.1H9.3l0,0h-1
	c-1,0-1.9,0.8-1.9,1.9s0.8,1.9,1.9,1.9h1l0,0h2.8c0.1,0,0.1,0.1,0.1,0.1l-0.1,0.1H9.3l0,0h-1c-1,0-1.9,0.8-1.9,1.9s0.8,1.9,1.9,1.9
	h1l0,0h2.8c0.1,0,0.1,0.1,0.1,0.1l-0.1,0.1H9.3l0,0h-1c-1,0-1.9,0.8-1.9,1.9s0.8,1.9,1.9,1.9h1l0,0h2.8c0.1,0,0.1,0.1,0.1,0.1
	l-0.1,0.1H9.3l0,0h-1c-1,0-1.9,0.8-1.9,1.9s0.8,1.9,1.9,1.9h1l0,0h2.8c0.1,0,0.1,0.1,0.1,0.1l-0.1,0.1H9.3l0,0h-1
	c-1,0-1.9,0.8-1.9,1.9s0.8,1.9,1.9,1.9h1l0,0h2.8c0.1,0,0.1,0.1,0.1,0.1l-0.1,0.1H9.3l0,0h-1c-1,0-1.9,0.8-1.9,1.9s0.8,1.9,1.9,1.9
	h1l0,0h2.8c0.1,0,0.1,0.1,0.1,0.1l-0.1,0.1H9.3l0,0h-1c-1,0-1.9,0.8-1.9,1.9s0.8,1.9,1.9,1.9h1l0,0h2.8c0.1,0,0.1,0.1,0.1,0.1
	l-0.1,0.1H9.3l0,0h-1c-1,0-1.9,0.8-1.9,1.9s0.8,1.9,1.9,1.9h1l0,0h2.8c0.1,0,0.1,0.1,0.1,0.1l-0.1,0.1H9.3l0,0h-1
	c-1,0-1.9,0.8-1.9,1.9s0.8,1.9,1.9,1.9h1l0,0h2.8c0.1,0,0.1,0.1,0.1,0.1l-0.1,0.1H9.3l0,0h-1c-1,0-1.9,0.8-1.9,1.9s0.8,1.9,1.9,1.9
	h1l0,0h2.8c0.1,0,0.1,0.1,0.1,0.1l-0.1,0.1H9.3l0,0h-1c-1,0-1.9,0.8-1.9,1.9s0.8,1.9,1.9,1.9h1l0,0h2.8c0.1,0,0.1,0.1,0.1,0.1
	l-0.1,0.1H9.3l0,0h-1c-1,0-1.9,0.8-1.9,1.9s0.8,1.9,1.9,1.9h12.8c1,0,1.9-0.8,1.9-1.9s-0.8-1.9-1.9-1.9h-1l0,0h-2.8
	c-0.1,0-0.1-0.1-0.1-0.1l0.1-0.1h2.8l0,0h1c1,0,1.9-0.8,1.9-1.9s-0.8-1.9-1.9-1.9h-1l0,0h-2.8c-0.1,0-0.1-0.1-0.1-0.1l0.1-0.1h2.8
	l0,0h1c1,0,1.9-0.8,1.9-1.9s-0.8-1.9-1.9-1.9h-1l0,0h-2.8c-0.1,0-0.1-0.1-0.1-0.1l0.1-0.1h2.8l0,0h1c1,0,1.9-0.8,1.9-1.9
	s-0.8-1.9-1.9-1.9h-1l0,0h-2.8c-0.1,0-0.1-0.1-0.1-0.1l0.1-0.1h2.8l0,0h1c1,0,1.9-0.8,1.9-1.9s-0.8-1.9-1.9-1.9h-1l0,0h-2.8
	c-0.1,0-0.1-0.1-0.1-0.1l0.1-0.1h2.8l0,0h1c1,0,1.9-0.8,1.9-1.9s-0.8-1.9-1.9-1.9h-1l0,0h-2.8c-0.1,0-0.1-0.1-0.1-0.1l0.1-0.1h2.8
	l0,0h1c1,0,1.9-0.8,1.9-1.9s-0.8-1.9-1.9-1.9h-1l0,0h-2.8c-0.1,0-0.1-0.1-0.1-0.1l0.1-0.1h2.8l0,0h1c1,0,1.9-0.8,1.9-1.9
	s-0.8-1.9-1.9-1.9h-1l0,0h-2.8c-0.1,0-0.1-0.1-0.1-0.1l0.1-0.1h2.8l0,0h1c1,0,1.9-0.8,1.9-1.9s-0.8-1.9-1.9-1.9h-1l0,0h-2.8
	c-0.1,0-0.1-0.1-0.1-0.1l0.1-0.1h2.8l0,0h1c1,0,1.9-0.8,1.9-1.9s-0.8-1.9-1.9-1.9h-1l0,0h-2.8c-0.1,0-0.1-0.1-0.1-0.1l0.1-0.1h2.8
	l0,0h1c1,0,1.9-0.8,1.9-1.9s-0.8-1.9-1.9-1.9h-1l0,0h-2.8c-0.1,0-0.1-0.1-0.1-0.1l0.1-0.1h2.8l0,0h1c1,0,1.9-0.8,1.9-1.9
	s-0.8-1.9-1.9-1.9h-1l0,0h-2.8c-0.1,0-0.1-0.1-0.1-0.1l0.1-0.1h2.8l0,0h1c1,0,1.9-0.8,1.9-1.9s-0.8-1.9-1.9-1.9h-1l0,0h-2.8
	c-0.1,0-0.1-0.1-0.1-0.1l0.1-0.1h2.8l0,0h1c1,0,1.9-0.8,1.9-1.9s-0.8-1.9-1.9-1.9h-1l0,0h-2.8c-0.1,0-0.1-0.1-0.1-0.1l0.1-0.1h2.8
	l0,0h1c1,0,1.9-0.8,1.9-1.9s-0.8-1.9-1.9-1.9h-1l0,0h-2.8c-0.1,0-0.1-0.1-0.1-0.1l0.1-0.1h2.8l0,0h1c1,0,1.9-0.8,1.9-1.9
	s-0.8-1.9-1.9-1.9h-1l0,0h-2.8C17.2,11.7,17.2,11.6,17.3,11.5L17.3,11.5z M17.3,13.5h2l0,0h1.8c0.1,0,0.1,0.1,0.1,0.1l-0.1,0.1h-2.8
	l0,0h-1c-1,0-1.9,0.8-1.9,1.9s0.8,1.9,1.9,1.9h2l0,0h1.8c0.1,0,0.1,0.1,0.1,0.1l-0.1,0.1h-2.8l0,0h-1c-1,0-1.9,0.8-1.9,1.9
	s0.8,1.9,1.9,1.9h2l0,0h1.8c0.1,0,0.1,0.1,0.1,0.1l-0.1,0.1h-2.8l0,0h-1c-1,0-1.9,0.8-1.9,1.9s0.8,1.9,1.9,1.9h2l0,0h1.8
	c0.1,0,0.1,0.1,0.1,0.1l-0.1,0.1h-2.8l0,0h-1c-1,0-1.9,0.8-1.9,1.9s0.8,1.9,1.9,1.9h2l0,0h1.8c0.1,0,0.1,0.1,0.1,0.1l-0.1,0.1h-2.8
	l0,0h-1c-1,0-1.9,0.8-1.9,1.9s0.8,1.9,1.9,1.9h2l0,0h1.8c0.1,0,0.1,0.1,0.1,0.1l-0.1,0.1h-2.8l0,0h-1c-1,0-1.9,0.8-1.9,1.9
	s0.8,1.9,1.9,1.9h2l0,0h1.8c0.1,0,0.1,0.1,0.1,0.1l-0.1,0.1h-2.8l0,0h-1c-1,0-1.9,0.8-1.9,1.9s0.8,1.9,1.9,1.9h2l0,0h1.8
	c0.1,0,0.1,0.1,0.1,0.1l-0.1,0.1h-2.8l0,0h-1c-1,0-1.9,0.8-1.9,1.9s0.8,1.9,1.9,1.9h2l0,0h1.8c0.1,0,0.1,0.1,0.1,0.1l-0.1,0.1h-2.8
	l0,0h-1c-1,0-1.9,0.8-1.9,1.9s0.8,1.9,1.9,1.9h2l0,0h1.8c0.1,0,0.1,0.1,0.1,0.1l-0.1,0.1h-2.8l0,0h-1c-1,0-1.9,0.8-1.9,1.9
	s0.8,1.9,1.9,1.9h2l0,0h1.8c0.1,0,0.1,0.1,0.1,0.1l-0.1,0.1h-2.8l0,0h-1c-1,0-1.9,0.8-1.9,1.9s0.8,1.9,1.9,1.9h2l0,0h1.8
	c0.1,0,0.1,0.1,0.1,0.1l-0.1,0.1h-2.8l0,0h-1c-1,0-1.9,0.8-1.9,1.9s0.8,1.9,1.9,1.9h2l0,0h1.8c0.1,0,0.1,0.1,0.1,0.1l-0.1,0.1h-2.8
	l0,0h-1c-1,0-1.9,0.8-1.9,1.9c0,1.1,0.8,1.9,1.9,1.9h2l0,0h1.8c0.1,0,0.1,0.1,0.1,0.1l-0.1,0.1h-2.8l0,0h-1c-1,0-1.9,0.8-1.9,1.9
	s0.8,1.9,1.9,1.9h2l0,0h1.8c0.1,0,0.1,0.1,0.1,0.1l-0.1,0.1h-2.8l0,0h-1c-1,0-1.9,0.8-1.9,1.9s0.8,1.9,1.9,1.9h2l0,0h1.8
	c0.1,0,0.1,0.1,0.1,0.1l-0.1,0.1H8.3c-0.1,0-0.1-0.1-0.1-0.1l0.1-0.1h1.8l0,0h2c1,0,1.9-0.8,1.9-1.9s-0.8-1.9-1.9-1.9h-1l0,0H8.3
	c-0.1,0-0.1-0.1-0.1-0.1l0.1-0.1h1.8l0,0h2c1,0,1.9-0.8,1.9-1.9s-0.8-1.9-1.9-1.9h-1l0,0H8.3c-0.1,0-0.1-0.1-0.1-0.1l0.1-0.1h1.8
	l0,0h2c1,0,1.9-0.8,1.9-1.9s-0.8-1.9-1.9-1.9h-1l0,0H8.3c-0.1,0-0.1-0.1-0.1-0.1l0.1-0.1h1.8l0,0h2c1,0,1.9-0.8,1.9-1.9
	s-0.8-1.9-1.9-1.9h-1l0,0H8.3c-0.1,0-0.1-0.1-0.1-0.1l0.1-0.1h1.8l0,0h2c1,0,1.9-0.8,1.9-1.9s-0.8-1.9-1.9-1.9h-1l0,0H8.3
	c-0.1,0-0.1-0.1-0.1-0.1l0.1-0.1h1.8l0,0h2c1,0,1.9-0.8,1.9-1.9s-0.8-1.9-1.9-1.9h-1l0,0H8.3c-0.1,0-0.1-0.1-0.1-0.1l0.1-0.1h1.8
	l0,0h2c1,0,1.9-0.8,1.9-1.9s-0.8-1.9-1.9-1.9h-1l0,0H8.3c-0.1,0-0.1-0.1-0.1-0.1l0.1-0.1h1.8l0,0h2c1,0,1.9-0.8,1.9-1.9
	s-0.8-1.9-1.9-1.9h-1l0,0H8.3c-0.1,0-0.1-0.1-0.1-0.1l0.1-0.1h1.8l0,0h2c1,0,1.9-0.8,1.9-1.9s-0.8-1.9-1.9-1.9h-1l0,0H8.3
	c-0.1,0-0.1-0.1-0.1-0.1l0.1-0.1h1.8l0,0h2c1,0,1.9-0.8,1.9-1.9s-0.8-1.9-1.9-1.9h-1l0,0H8.3c-0.1,0-0.1-0.1-0.1-0.1l0.1-0.1h1.8
	l0,0h2c1,0,1.9-0.8,1.9-1.9s-0.8-1.9-1.9-1.9h-1l0,0H8.3c-0.1,0-0.1-0.1-0.1-0.1l0.1-0.1h1.8l0,0h2c1,0,1.9-0.8,1.9-1.9
	s-0.8-1.9-1.9-1.9h-1l0,0H8.3c-0.1,0-0.1-0.1-0.1-0.1l0.1-0.1h1.8l0,0h2c1,0,1.9-0.8,1.9-1.9s-0.8-1.9-1.9-1.9h-1l0,0H8.3
	c-0.1,0-0.1-0.1-0.1-0.1l0.1-0.1h1.8l0,0h2c1,0,1.9-0.8,1.9-1.9s-0.8-1.9-1.9-1.9h-1l0,0H8.3c-0.1,0-0.1-0.1-0.1-0.1l0.1-0.1h1.8
	l0,0h2c1,0,1.9-0.8,1.9-1.9s-0.8-1.9-1.9-1.9h-1l0,0H8.3c-0.1,0-0.1-0.1-0.1-0.1l0.1-0.1h1.8l0,0h2c1,0,1.9-0.8,1.9-1.9
	s-0.8-1.9-1.9-1.9h-1l0,0H8.3c-0.1,0-0.1-0.1-0.1-0.1l0.1-0.1h1.8l0,0h2c1,0,1.9-0.8,1.9-1.9s-0.8-1.9-1.9-1.9h-2l0,0H8.3
	c-0.1,0-0.1-0.1-0.1-0.1l0.1-0.1h6h1.8h5c0.1,0,0.1,0.1,0.1,0.1l-0.1,0.1h-1.8l0,0h-2c-1,0-1.9,0.8-1.9,1.9s0.8,1.9,1.9,1.9h2l0,0
	h1.8c0.1,0,0.1,0.1,0.1,0.1l-0.1,0.1h-2.8l0,0h-1c-1,0-1.9,0.8-1.9,1.9S16.3,13.5,17.3,13.5z"/>
</svg>
