<?xml version="1.0" encoding="utf-8"?>
<!-- Generator: Adobe Illustrator 20.1.0, SVG Export Plug-In . SVG Version: 6.00 Build 0)  -->
<svg version="1.1" id="Calque_1" xmlns="http://www.w3.org/2000/svg" xmlns:xlink="http://www.w3.org/1999/xlink" x="0px" y="0px"
	 viewBox="0 0 90 90" style="enable-background:new 0 0 90 90;" xml:space="preserve">
<style type="text/css">
	.st0{fill:#FFFFFF;}
	.st1{fill:none;stroke:#1A1A1A;stroke-miterlimit:10;}
	.st2{fill:#1A1A1A;}
</style>
<path class="st0" d="M74,49c0,0-0.2,3.1-3.7,6.2c-4,3.6-12.9,7.5-32.3,6.4v-4.1l5.1-3l3.9-1.1l1.4-3.3C50.8,49.5,69,44.9,74,37.8
	L74,49z"/>
<path class="st0" d="M14.6,32.1c5.2-5.8,28.9-6.1,29.1-6.1h0.4c0.2,0,23.9,0.2,29.1,6c0.7,0.8,1,1.7,0.9,2.6
	c-0.4,3.7-5.4,7-10.9,9.4c-17.1-6.4-36.6-0.5-38.6,0.1c-5.6-2.5-10.6-5.7-11-9.5C13.5,33.7,13.8,32.9,14.6,32.1z"/>
<path class="st0" d="M37,61.5c-3-0.1-18.4-1.4-22.1-11.8c-0.3-6-0.5-9.5-0.7-11.4c5.4,6.9,22.9,11.3,25.2,11.9l2.7,3.7l-5.2,3V61.5z
	"/>
<title>TG</title>
<ellipse class="st1" cx="45.2" cy="58" rx="3.2" ry="2.1"/>
<ellipse class="st2" cx="45.2" cy="58.1" rx="0.7" ry="0.4"/>
<rect x="48.5" y="57.2" class="st2" width="1.3" height="1.1"/>
<path class="st2" d="M74,31.3C68.5,25.2,45.1,25,44.1,25h-0.4c-1,0-24.4,0.3-29.9,6.4c-0.9,1-1.3,2.2-1.2,3.4
	c0.1,0.5,0.2,0.9,0.3,1.4c0,0.1,0.3,2.1,0.9,13.6l0,0.1c1.8,5.1,6.4,8.9,13.4,11c4.5,1.3,8.6,1.6,9.8,1.6l0,0
	c2.7,0.2,5.2,0.3,7.5,0.3c15.2,0,22.7-3.6,26.3-6.9c3.8-3.4,4-6.7,4-6.9V36h-0.1c0.1-0.4,0.3-0.8,0.3-1.3
	C75.3,33.5,74.9,32.4,74,31.3z M14.6,32.1c5.2-5.8,28.9-6.1,29.1-6.1h0.4c0.2,0,23.9,0.2,29.1,6c0.7,0.8,1,1.7,0.9,2.6
	c-0.4,3.7-5.4,7-10.9,9.4c-17.1-6.4-36.6-0.5-38.6,0.1c-5.6-2.5-10.6-5.7-11-9.5C13.5,33.7,13.8,32.9,14.6,32.1z M43,53.4l-3-4.1
	l-0.2,0.1l0-0.2c-0.1,0-7.1-1.7-13.8-4.5c4.6-1.3,21-5.2,35.8-0.1c-6.8,2.8-13.9,4.5-14,4.5l-0.2,0.1l-1.4,3.3L43,53.4z M37,61.5
	c-3-0.1-18.4-1.4-22.1-11.8c-0.3-6-0.5-9.5-0.7-11.4c5.4,6.9,22.9,11.3,25.2,11.9l2.7,3.7l-5.2,3V61.5z M74,49c0,0-0.2,3.1-3.7,6.2
	c-4,3.6-12.9,7.5-32.3,6.4v-4.1l5.1-3l3.9-1.1l1.4-3.3C50.8,49.5,69,44.9,74,37.8L74,49z"/>
</svg>
