<?xml version="1.0" encoding="utf-8"?>
<!-- Generator: Adobe Illustrator 20.1.0, SVG Export Plug-In . SVG Version: 6.00 Build 0)  -->
<svg version="1.1" id="Calque_1" xmlns="http://www.w3.org/2000/svg" xmlns:xlink="http://www.w3.org/1999/xlink" x="0px" y="0px"
	 viewBox="0 0 90 90" style="enable-background:new 0 0 90 90;" xml:space="preserve">
<style type="text/css">
	.st0{fill:#FFFFFF;}
	.st1{fill:#1A1A1A;}
</style>
<path class="st0" d="M36.4,70.5c-3.3-1.6-17.6-8.6-20-11.9c-2-2.7-0.9-20.3-0.1-29.5c3.5,6.4,19.4,15,23.9,17.3
	c-1,0.5-2.1,1.7-2.3,4.6C37.5,55.2,36.7,67.4,36.4,70.5z"/>
<path class="st0" d="M37.8,69.3h-0.2c0.3-4.4,1-14.4,1.3-18.1c0.3-3.1,1.5-3.8,2.2-4v22.3c-1.5-0.1-3.1-0.3-3.4-0.5
	C37.7,69,37.8,69.1,37.8,69.3z"/>
<path class="st0" d="M51.5,69.3c0-0.2,0.1-0.3,0.1-0.3c-0.3,0.2-2,0.4-3.6,0.5V47.1c0.5,0.1,2.2,0.5,2.5,4.1
	c0.3,3.7,1,13.7,1.3,18.1H51.5z"/>
<path class="st0" d="M72.9,58.6c-2.4,3.3-16.8,10.3-20,11.9c-0.2-3.1-1-15.3-1.4-19.4C51.3,48,50,46.8,49,46.4
	c4.7-2.4,20.7-11,24-17.4C73.9,38.1,74.9,55.9,72.9,58.6z"/>
<path class="st0" d="M32.6,41.1c-6.6-3.9-14.5-9.3-15.8-13.3c-0.3-0.8-0.2-1.4,0.1-2c2.6-5.1,16.9-7,23-7.6c3.4-0.3,6.9-0.3,9.9,0
	c6,0.6,20.2,2.6,22.8,7.6c0.3,0.6,0.3,1.2,0.1,2c-1.3,4-9.3,9.4-15.9,13.3C42.7,38.7,34.2,40.7,32.6,41.1z"/>
<title>TG</title>
<path class="st1" d="M73.8,26.5l-0.2,0c0-0.4-0.1-0.8-0.3-1.2c-2.7-5.3-15.9-7.4-23.6-8.2c-3.1-0.3-6.7-0.3-10.1,0
	C32,18,18.6,20.1,15.9,25.4c-0.2,0.4-0.3,0.8-0.3,1.2l-0.1,0c-0.1,1.2-2.8,28.8,0.1,32.7c2.9,3.9,20.3,12.1,21.1,12.5l0.7,0.3l0-0.7
	c0,0,0-0.5,0.1-1.3c0.7,0.2,1.8,0.4,4,0.5l0.5,0V46.3l-0.3-0.1c-0.1,0-3.6-1.8-7.9-4.3c2.8-0.6,10.3-1.7,21.4,0
	c-4.3,2.5-7.8,4.2-7.9,4.3L47,46.3v24.2l0.5,0c2.4-0.1,3.7-0.3,4.3-0.6c0.1,0.8,0.1,1.3,0.1,1.4l0,0.7l0.7-0.3
	c0.7-0.3,18.2-8.6,21.1-12.5C76.6,55.3,73.9,27.7,73.8,26.5z M36.4,70.5c-3.3-1.6-17.6-8.6-20-11.9c-2-2.7-0.9-20.3-0.1-29.5
	c3.5,6.4,19.4,15,23.9,17.3c-1,0.5-2.1,1.7-2.3,4.6C37.5,55.2,36.7,67.4,36.4,70.5z M37.8,69.3h-0.2c0.3-4.4,1-14.4,1.3-18.1
	c0.3-3.1,1.5-3.8,2.2-4v22.3c-1.5-0.1-3.1-0.3-3.4-0.5C37.7,69,37.8,69.1,37.8,69.3z M32.6,41.1c-6.6-3.9-14.5-9.3-15.8-13.3
	c-0.3-0.8-0.2-1.4,0.1-2c2.6-5.1,16.9-7,23-7.6c3.4-0.3,6.9-0.3,9.9,0c6,0.6,20.2,2.6,22.8,7.6c0.3,0.6,0.3,1.2,0.1,2
	c-1.3,4-9.3,9.4-15.9,13.3C42.7,38.7,34.2,40.7,32.6,41.1z M51.5,69.3c0-0.2,0.1-0.3,0.1-0.3c-0.3,0.2-2,0.4-3.6,0.5V47.1
	c0.5,0.1,2.2,0.5,2.5,4.1c0.3,3.7,1,13.7,1.3,18.1H51.5z M72.9,58.6c-2.4,3.3-16.8,10.3-20,11.9c-0.2-3.1-1-15.3-1.4-19.4
	C51.3,48,50,46.8,49,46.4c4.7-2.4,20.7-11,24-17.4C73.9,38.1,74.9,55.9,72.9,58.6z"/>
</svg>
