<?xml version="1.0" encoding="utf-8"?>
<!-- Generator: Adobe Illustrator 20.1.0, SVG Export Plug-In . SVG Version: 6.00 Build 0)  -->
<svg version="1.1" id="Calque_1" xmlns="http://www.w3.org/2000/svg" xmlns:xlink="http://www.w3.org/1999/xlink" x="0px" y="0px"
	 viewBox="0 0 90 90" style="enable-background:new 0 0 90 90;" xml:space="preserve">
<style type="text/css">
	.st0{fill:#FFFFFF;}
	.st1{fill:#1A1A1A;}
	.st2{fill:none;stroke:#1A1A1A;stroke-miterlimit:10;}
</style>
<g>
	<path class="st0" d="M14.8,44.6c-0.3-0.6-0.4-1.2-0.3-1.8l1.8-7.8l0,12.6L14.8,44.6z"/>
	<path class="st0" d="M17.2,34.7c3.9,6.9,18.1,13.6,22.1,15.4L17.2,60.2V34.7z"/>
	<path class="st0" d="M25,57.7l13-6v12.1C33.2,62.6,27.1,59,25,57.7z"/>
	<path class="st0" d="M39,64.1V51.3l1.6-0.7c1.2,0.1,2.4,0.2,3.7,0.2c1.2,0,2.5-0.1,3.7-0.2l16,7.4C62,59.8,53.8,66.6,39,64.1z"/>
	<path class="st0" d="M71.3,60.2L49.3,50c4-1.8,18.1-8.4,22-15.3V60.2z"/>
	<path class="st0" d="M71.3,31.6c-0.3,3.1-3.7,6.5-7.9,9.4c-12.5-3-25.8-3-38.3,0c-4.2-2.9-7.6-6.3-7.9-9.4c-0.1-1,0.2-1.9,1-2.7
		c4.4-5.1,21.3-6.5,24.6-6.8c0.7-0.1,1.4-0.1,2.1,0c0.3,0,0.5,0,0.7,0c3.3,0.2,20.2,1.7,24.6,6.8c0.6,0.7,0.9,1.4,1,2.2V31.6z"/>
	<path class="st0" d="M73.8,44.6l-1.5,3V35.2l1.7,7.5C74.2,43.3,74.1,44,73.8,44.6z"/>
</g>
<title>TG</title>
<path class="st1" d="M75,42.5l-2.7-11.8l0,0c-0.1-0.9-0.5-1.7-1.2-2.5c-4.5-5.3-20.5-6.8-25.3-7.1c-0.2,0-0.5,0-0.7,0
	c-0.8,0-1.5-0.1-2.3,0C38,21.4,22,22.9,17.5,28.2c-0.7,0.8-1.1,1.6-1.2,2.5l-0.1,0l-2.7,11.8c-0.2,0.9,0,1.7,0.4,2.5l2.3,4.6l0.1,0
	l0,12.2l7.7-3.5c1.4,0.9,8.9,5.5,14.5,6.7l0.6,0.1v0c2.3,0.4,4.4,0.6,6.4,0.6c11.8,0,18.2-5.9,19.5-7.3l7.4,3.4V49.6l0.1,0l2.3-4.6
	C75.1,44.2,75.2,43.3,75,42.5z M14.8,44.6c-0.3-0.6-0.4-1.2-0.3-1.8l1.8-7.8l0,12.6L14.8,44.6z M17.2,34.7
	c3.9,6.9,18.1,13.6,22.1,15.4L17.2,60.2V34.7z M47.9,49.5c-2.4,0.2-4.9,0.2-7.3,0c-0.8-0.3-8.1-3.5-14.4-7.7c11.8-2.6,24.2-2.6,36,0
	C56.1,46,48.7,49.2,47.9,49.5z M25,57.7l13-6v12.1C33.2,62.6,27.1,59,25,57.7z M39,64.1V51.3l1.6-0.7c1.2,0.1,2.4,0.2,3.7,0.2
	c1.2,0,2.5-0.1,3.7-0.2l16,7.4C62,59.8,53.8,66.6,39,64.1z M71.3,60.2L49.3,50c4-1.8,18.1-8.4,22-15.3V60.2z M71.3,31.6
	c-0.3,3.1-3.7,6.5-7.9,9.4c-12.5-3-25.8-3-38.3,0c-4.2-2.9-7.6-6.3-7.9-9.4c-0.1-1,0.2-1.9,1-2.7c4.4-5.1,21.3-6.5,24.6-6.8
	c0.7-0.1,1.4-0.1,2.1,0c0.3,0,0.5,0,0.7,0c3.3,0.2,20.2,1.7,24.6,6.8c0.6,0.7,0.9,1.4,1,2.2V31.6z M73.8,44.6l-1.5,3V35.2l1.7,7.5
	C74.2,43.3,74.1,44,73.8,44.6z"/>
<ellipse class="st2" cx="45.2" cy="58" rx="3.2" ry="2.1"/>
<ellipse class="st1" cx="45.2" cy="58.1" rx="0.7" ry="0.4"/>
<rect x="48.5" y="57.2" class="st1" width="1.3" height="1.1"/>
</svg>
