<?xml version="1.0" encoding="utf-8"?>
<!-- Generator: Adobe Illustrator 20.1.0, SVG Export Plug-In . SVG Version: 6.00 Build 0)  -->
<svg version="1.1" id="Calque_1" xmlns="http://www.w3.org/2000/svg" xmlns:xlink="http://www.w3.org/1999/xlink" x="0px" y="0px"
	 viewBox="0 0 90 90" style="enable-background:new 0 0 90 90;" xml:space="preserve">
<style type="text/css">
	.st0{fill:#FFFFFF;}
	.st1{fill:#1A1A1A;}
</style>
<path class="st0" d="M41.5,67.4c-0.8-11.8,0-15.2,0.5-16.1v16.2C41.8,67.5,41.7,67.4,41.5,67.4z"/>
<path class="st0" d="M41.4,50.4c-1.3,1.7-1.6,7.3-0.9,16.7c-4.9-1-17.1-4.7-24.5-15.8c0.1-8.9,0.3-14.9,0.4-18.1
	C20.5,40.2,37.2,48.4,41.4,50.4z"/>
<path class="st0" d="M25.9,40.6c-6-4-9.2-7.4-9.4-10c0-0.3,0-0.4,0-0.4l0,0c0.2-5,13.1-7.9,25.1-9c1.3-0.1,2.6-0.2,3.8-0.2
	c1.5,0,3,0.1,4.4,0.2c5.2,0.6,22.4,2.8,22.6,9c0.1,2.6-3.1,6.2-9.4,10.4C45.5,34.6,28.2,39.9,25.9,40.6z"/>
<path class="st0" d="M47,50.9c0.4,0.3,1.8,2.2,0.7,16.4c-0.3,0.1-0.5,0.1-0.7,0.1V50.9z"/>
<path class="st0" d="M48.8,67.1c0.7-9.6,0.4-15.2-0.9-16.8c4.5-2.1,21.1-10.3,24.9-17.2c0.1,3.2,0.3,9.2,0.4,18.2
	C65.9,62.3,53.8,66,48.8,67.1z"/>
<title>TG</title>
<path class="st1" d="M74.2,51.4c-0.2-14.6-0.5-21.2-0.5-21.3l-0.1,0C73.2,23.4,57,21,50.1,20.2c-1.5-0.2-3-0.2-4.5-0.2
	c-1.3,0-2.7,0.1-4,0.2c-7.7,0.7-25.7,3.1-26,10c0,0.1,0,0.3,0,0.4c-0.1,1.7-0.4,8.4-0.6,20.8l0,0.2l0.1,0.1
	c9.5,14.6,27.2,16.8,27.4,16.8l0.6,0.1V50l-0.3-0.1c-0.1,0-6.7-3.1-13.3-7.1c-0.8-0.5-1.6-1-2.4-1.5c3.9-1.2,19.2-5.1,35.1,0
	c-0.8,0.5-1.6,1-2.4,1.5c-6.6,4-13.3,7-13.4,7.1L46,50v18.5l0.6-0.1c0.2,0,18-2.2,27.5-16.8l0.1-0.1L74.2,51.4z M41.5,67.3
	c-0.8-11.8,0-15.2,0.5-16.1v16.2C41.9,67.4,41.7,67.4,41.5,67.3z M41.4,50.4c-1.3,1.7-1.6,7.3-0.9,16.7c-4.9-1-17.1-4.7-24.5-15.8
	c0.1-8.9,0.3-14.9,0.4-18.1C20.5,40.2,37.2,48.4,41.4,50.4z M25.9,40.6c-6-4-9.2-7.4-9.4-10c0-0.3,0-0.4,0-0.4l0,0
	c0.2-5,13.1-7.9,25.1-9c1.3-0.1,2.6-0.2,3.8-0.2c1.5,0,3,0.1,4.4,0.2c5.2,0.6,22.4,2.8,22.6,9c0.1,2.6-3.1,6.2-9.4,10.4
	C45.4,34.6,28.2,39.9,25.9,40.6z M47,50.9c0.4,0.3,1.8,2.2,0.7,16.4c-0.3,0.1-0.5,0.1-0.7,0.1V50.9z M48.8,67.1
	c0.7-9.6,0.4-15.2-0.9-16.8c4.5-2.1,21.1-10.3,24.9-17.2c0.1,3.2,0.3,9.2,0.4,18.2C65.9,62.3,53.8,66,48.8,67.1z"/>
</svg>
