<?xml version="1.0" encoding="utf-8"?>
<!-- Generator: Adobe Illustrator 20.1.0, SVG Export Plug-In . SVG Version: 6.00 Build 0)  -->
<svg version="1.1" id="Calque_1" xmlns="http://www.w3.org/2000/svg" xmlns:xlink="http://www.w3.org/1999/xlink" x="0px" y="0px"
	 viewBox="0 0 90 90" style="enable-background:new 0 0 90 90;" xml:space="preserve">
<style type="text/css">
	.st0{fill:#FFFFFF;}
	.st1{fill:none;stroke:#1A1A1A;stroke-miterlimit:10;}
</style>
<path class="st0" d="M18.7,19.9v20.5l4.8-2.2v37.3H36l6,5h8.1l6.9-5h8.5V38l5,2.5V19.9c0,0-5.2-5.3-10.5-5.3s-7.9-2-7.9-4.9
	s-0.1-2.2-0.1-2.2h-15l-0.4,4.2c0,0-2.2,3-9,3C22,14.7,18.7,19.9,18.7,19.9z"/>
<title>TG</title>
<rect x="37.1" y="7.5" class="st1" width="15" height="3"/>
<path class="st1" d="M18.4,20.2c2.5-3.4,6.5-5.5,10.7-5.6c7.3-0.3,7.9-3.7,7.9-3.7"/>
<path class="st1" d="M70.8,20.2c-2.5-3.4-6.5-5.5-10.7-5.6c-7.3-0.3-7.9-3.7-7.9-3.7"/>
<path class="st1" d="M26.5,15.1V30c0,3-1.2,5.9-3.4,8c-1,1-3,2.1-4.4,2.4"/>
<path class="st1" d="M62.2,15.1V30c0,3,1.2,5.9,3.4,8c1,1,3.5,2.2,4.9,2.5"/>
<line class="st1" x1="26.6" y1="18.5" x2="62.6" y2="18.5"/>
<polyline class="st1" points="65.7,38.2 65.5,75.5 57,75.5 50.1,80.5 45,80.5 42,80.5 36,75.5 23.5,75.5 23.6,37.5 "/>
</svg>
