<?xml version="1.0" encoding="utf-8"?>
<!-- Generator: Adobe Illustrator 20.1.0, SVG Export Plug-In . SVG Version: 6.00 Build 0)  -->
<svg version="1.1" id="Calque_1" xmlns="http://www.w3.org/2000/svg" xmlns:xlink="http://www.w3.org/1999/xlink" x="0px" y="0px"
	 viewBox="0 0 90 90" style="enable-background:new 0 0 90 90;" xml:space="preserve">
<style type="text/css">
	.st0{fill:#FFFFFF;}
	.st1{fill:#1A1A1A;}
</style>
<path class="st0" d="M5.9,37l17.4-6v-8.2c0,0,2.9-8.4,17.8-8.4s16.9,8.7,16.9,8.7V31c0,0,18.9,5.9,19.9,7.3S81,75,40.7,75
	S5.9,37,5.9,37z"/>
<title>TG</title>
<path class="st1" d="M78.6,38.1c-6.2-3.6-17.9-6.8-20.2-7.4c0-2,0-5.7-0.1-7.3c0-0.2,0-0.4,0-0.6c0-0.1,0-0.2,0-0.2h0
	c-0.1-0.4-0.2-0.9-0.5-1.3C54,14,41.7,14,41.2,14h-1.1c-0.5,0-12.8,0-16.7,7.4c-0.5,0.9-0.6,1.7-0.5,2.6c0,1.8,0,5,0,6.8L5.4,36.6
	l0.3,0.9L23,31.7c1.2,2.9,9.3,9.1,11.1,10.4l0.6,0.5l0.7-3.7h1.2v36h1V39h7.3l0.7,3.6l0.6-0.4c1.9-1.3,10.8-7.5,12.1-10.4
	c2.4,0.7,13.9,3.8,19.8,7.3L78.6,38.1z M23.9,22.7c0.1-0.3,0.2-0.6,0.3-0.9C27.8,15,39.8,15,40.1,15c0,0,0,0,0,0h1.1
	c0.1,0,12.2,0,15.8,6.9c0.2,0.4,0.3,0.8,0.4,1.1c0,0.1,0,0.3,0,0.4c0,0.3-0.1,0.6-0.3,0.9c-0.5,1-1.7,1.8-3.2,2.5
	c-8.3-4.3-18.1-4.2-26.4,0.3c-1.5-0.7-2.8-1.6-3.4-2.7C24,24.2,24,24,23.9,23.8C23.9,23.2,23.9,22.8,23.9,22.7z M43.2,30h-6.1
	l0.1-0.3l-0.5-0.1c-0.1,0-4.3-0.6-7.9-1.9c7.6-3.8,16.3-3.9,24-0.3c-4,1.5-9,2.1-9.1,2.2l-0.5,0.1L43.2,30z M34,40.9
	c-4.4-3.4-10.2-8.3-10.2-9.8c0-1.3,0-3.5,0-5.3c2.7,3.1,10,4.4,12.1,4.7L34,40.9z M35.6,38l1.3-7h6.5l1.3,7H35.6z M46.2,40.9
	l-2-10.5c1.5-0.2,6.1-0.9,9.6-2.5c0,0,0.1,0,0.1,0.1l0.1-0.1c1.3-0.6,2.5-1.3,3.3-2.2c0,1.9,0,4.2,0,5.5
	C57.4,32.5,51.1,37.5,46.2,40.9z"/>
<circle class="st1" cx="40.5" cy="35" r="1.9"/>
<circle class="st1" cx="40.5" cy="45" r="1.9"/>
<circle class="st1" cx="40.5" cy="56" r="1.9"/>
<circle class="st1" cx="40.5" cy="67" r="1.9"/>
</svg>
