<?xml version="1.0" encoding="utf-8"?>
<!-- Generator: Adobe Illustrator 20.1.0, SVG Export Plug-In . SVG Version: 6.00 Build 0)  -->
<svg version="1.1" id="Calque_1" xmlns="http://www.w3.org/2000/svg" xmlns:xlink="http://www.w3.org/1999/xlink" x="0px" y="0px"
	 viewBox="0 0 90 90" style="enable-background:new 0 0 90 90;" xml:space="preserve">
<style type="text/css">
	.st0{fill:#FFFFFF;}
	.st1{fill:#1A1A1A;}
</style>
<path class="st0" d="M8.1,28.9l12.6-4.4v-5.9c0,0,1.6-6.3,12.6-6.3s12.5,6.2,12.5,6.2v5.9c0,0,14,1.6,17.7,4.4
	c3.7,2.9,20.6,25.5,20.6,25.5L71.6,67L61.4,56.7V77H8.1V28.9z"/>
<title>TG</title>
<path class="st1" d="M84.9,54.6l-0.2-0.3c-0.7-0.9-16.4-23.1-21.4-26c-4.5-2.7-14.7-3.8-16.9-4v-4.9c0-0.2,0-0.4,0-0.7v-0.2h0
	c-0.1-0.3-0.2-0.7-0.4-1.1C43.1,12.1,34.1,12,33.7,12h-0.8c-0.4,0-9.4,0.1-12.3,5.5c-0.2,0.4-0.3,0.7-0.4,1.1l0,5.8L7.6,28.6
	l0.3,0.9l12.4-4.2c1.1,2.1,6.9,5.7,8.8,6.8l0.7,0.4l0-2.8l0.9,0.8V77h1V30.2L30,28.5l0.1-5l-0.4-0.1c-1.1-0.1-3.1-0.6-4.9-1.3
	c2.2-1.5,9.2-5.3,17.5-0.1c-1.9,0.8-4.1,1.2-5.3,1.4l-0.4,0.1l0.1,5.2l-1.7,1.4V77h1V30.6l0.7-0.6l0,2.6l0.7-0.4
	c1.9-1.1,7.9-4.8,8.9-6.9c1.3,0.1,5.9,0.6,10.2,1.7l0.2,25.3l0,0.2L61,57h-0.1v20h1V57.9l9.6,9.9L84.9,54.6z M29,30.9
	c-3.9-2.4-7.8-5.3-7.8-6.1v-3.5c2,2,6.5,2.9,7.9,3.1L29,30.9z M45.4,24.7c0,0.9-3.9,3.8-7.8,6.1l-0.1-6.5c1.4-0.2,5.9-1.1,7.9-3.1
	V24.7z M45.4,19.3c0,0.2-0.1,0.4-0.2,0.6c-0.3,0.7-1.1,1.2-1.9,1.7c-9.7-6.4-18.1-1-19.6,0.2c-1-0.5-1.9-1.1-2.3-1.8
	c-0.3-0.6-0.3-1.2,0.1-1.9c2.6-4.9,11.3-5,11.4-5h0.8c0.1,0,8.8,0.1,11.4,5c0.2,0.3,0.2,0.6,0.3,0.8V19.3z M71.5,66.4l-1.8-1.9
	l12.6-11.8c0.6,0.8,1,1.4,1.3,1.8L71.5,66.4z M57.4,27.2c2.1,0.5,4,1.2,5.3,2c3.7,2.2,14.4,16.5,18.9,22.8L69,63.8L57.6,52
	L57.4,27.2z"/>
</svg>
