<?xml version="1.0" encoding="utf-8"?>
<!-- Generator: Adobe Illustrator 20.1.0, SVG Export Plug-In . SVG Version: 6.00 Build 0)  -->
<svg version="1.1" id="Calque_1" xmlns="http://www.w3.org/2000/svg" xmlns:xlink="http://www.w3.org/1999/xlink" x="0px" y="0px"
	 viewBox="0 0 90 90" style="enable-background:new 0 0 90 90;" xml:space="preserve">
<style type="text/css">
	.st0{fill:#FFFFFF;}
	.st1{fill:#1A1A1A;}
</style>
<path class="st0" d="M17.9,18.2c0,0,0.8-4,27.9-4.5s24.9,6.9,24.9,6.9v47.2c0,0-1.9,6.4-10.4,6.4c-0.7,0-0.9,0-0.9,0v1.3H28.4
	c0,0-10.5-1.6-10.5-7.1S17.9,18.2,17.9,18.2z"/>
<title>TG</title>
<path class="st1" d="M46.6,13.1c-11,0-27.8,1.8-29.2,4.6c0,0,0,0.1,0,0.1h-0.1v0.4c0,0,0,0,0,0v49.4c0,1.7,0.7,3.3,2,4.5
	c1.9,1.7,5,3.7,8.6,3.7L60,76v-1.3c3-0.2,5.9-1.2,8.5-2.7c1.5-0.9,2.5-2.6,2.5-4.4V19.4C71,14.5,55.7,13.1,46.6,13.1z M46.6,14.1
	c12.4,0,21.9,1.9,23.3,4.6L50.6,30h-5.3l-13.1-7.8L32,22.1c-4.9-0.7-12.9-2.4-13.6-3.8c0,0,0-0.1,0-0.1v0c0,0,0,0,0,0
	C19.3,16.3,34,14.1,46.6,14.1z M27.9,74.9c-3.3,0-6.1-1.9-7.9-3.5c-1-1-1.6-2.3-1.6-3.7V19.6c2.9,1.8,11.3,3.2,13.4,3.5L45,30.9v0h0
	l14,8.3v35.5l0,0V75L27.9,74.9z M68,71.2c-2.4,1.4-5.2,2.3-8,2.5V73h0V38.7L46.9,31h3.9L70,19.8v47.8C70,69.1,69.2,70.5,68,71.2z"/>
<g>
	<path class="st1" d="M43.5,55.8c-3.5,0-6.3-2.8-6.3-6.3s2.8-6.3,6.3-6.3c3.5,0,6.3,2.8,6.3,6.3S47,55.8,43.5,55.8z M43.5,44.3
		c-2.9,0-5.3,2.4-5.3,5.3s2.4,5.3,5.3,5.3c2.9,0,5.3-2.4,5.3-5.3S46.4,44.3,43.5,44.3z"/>
</g>
<g>
	<path class="st1" d="M43.5,54c-2.4,0-4.4-2-4.4-4.4s2-4.4,4.4-4.4c2.4,0,4.4,2,4.4,4.4S45.9,54,43.5,54z M43.5,46.2
		c-1.9,0-3.4,1.5-3.4,3.4s1.5,3.4,3.4,3.4c1.9,0,3.4-1.5,3.4-3.4S45.4,46.2,43.5,46.2z"/>
</g>
<circle class="st1" cx="43.5" cy="49.6" r="1"/>
</svg>
