<?xml version="1.0" encoding="utf-8"?>
<!-- Generator: Adobe Illustrator 20.1.0, SVG Export Plug-In . SVG Version: 6.00 Build 0)  -->
<svg version="1.1" id="Calque_1" xmlns="http://www.w3.org/2000/svg" xmlns:xlink="http://www.w3.org/1999/xlink" x="0px" y="0px"
	 viewBox="0 0 90 90" style="enable-background:new 0 0 90 90;" xml:space="preserve">
<style type="text/css">
	.st0{fill:#FFFFFF;}
	.st1{fill:#1A1A1A;}
</style>
<path class="st0" d="M18.5,18.5c0,0,0-5.1,25.8-5.1s26.3,5.1,26.3,5.1v51.2c0,0-0.3,3.5-10.2,4.6s-33.1,2.6-41.9-4
	C18.5,61.1,18.5,18.5,18.5,18.5z"/>
<title>TG</title>
<path class="st1" d="M71,70.2c0-0.5-0.1-46.3,0-51.7c0,0,0,0,0,0s0,0,0,0h0c0-0.6-0.2-1.1-0.7-1.6c-3.1-3.1-16.8-3.7-23.8-3.8v0
	c-0.1,0-0.7,0-1.6,0c-1.3,0-2.2,0-2.4,0v0c-6.9,0.1-20.7,0.8-23.8,3.9c-0.4,0.4-0.6,0.8-0.7,1.3l0,0c0,0,0,0.1,0,0.1
	c0,0.1,0,0.2,0,0.2c0.1,5.3,0,51.2,0,51.6l0,0.1c0.1,0.6,2,5.7,27.7,5.7c0,0,0,0,0,0l0.8,0c17.7-0.4,22.6-3,23.9-4.5
	C71,70.7,71,70.2,71,70.2z M44.6,14H45c6.1,0,21.5,0.5,24.6,3.6c0.3,0.3,0.5,0.6,0.4,0.9c0,0,0,0,0,0c0,4.3-8.2,7.1-15.6,9.6
	c-4-3-9.6-5-16.5-5.5c-2.4-0.2-4.5-0.4-6.3-0.5c-9.9-0.7-12.2-1-12.6-3.8c0.1-0.2,0.2-0.5,0.4-0.7C22.6,14.4,39,14,44.6,14z
	 M46.5,75l-0.8,0c-23.8,0-26.5-4.5-26.7-4.9c0-2.1,0.1-39.3,0-49.5c1.6,1.7,5.3,1.9,12.6,2.5c1.8,0.1,3.9,0.3,6.3,0.5
	C51.5,24.7,60,31.4,60,40.9V74C56.7,74.5,52.3,74.8,46.5,75z M61,73.8V40.9c0-4.8-2-8.9-5.7-12.1c6.2-2.1,12.3-4.3,14.6-7.5
	c0,11.5,0,48.4,0,48.8C70,70.2,69.8,72.4,61,73.8z"/>
<g>
	<path class="st1" d="M46.8,59.6c-3.5,0-6.3-2.8-6.3-6.3s2.8-6.3,6.3-6.3c3.5,0,6.3,2.8,6.3,6.3S50.2,59.6,46.8,59.6z M46.8,48.1
		c-2.9,0-5.3,2.4-5.3,5.3s2.4,5.3,5.3,5.3s5.3-2.4,5.3-5.3S49.7,48.1,46.8,48.1z"/>
</g>
<g>
	<path class="st1" d="M46.8,57.7c-2.4,0-4.4-2-4.4-4.4s2-4.4,4.4-4.4c2.4,0,4.4,2,4.4,4.4S49.2,57.7,46.8,57.7z M46.8,50
		c-1.9,0-3.4,1.5-3.4,3.4s1.5,3.4,3.4,3.4s3.4-1.5,3.4-3.4S48.6,50,46.8,50z"/>
</g>
<circle class="st1" cx="46.8" cy="53.3" r="1"/>
<g>
	<path class="st1" d="M65.9,57.5c-2.1,0-3.8-2.5-3.8-5.6s1.7-5.6,3.8-5.6s3.8,2.5,3.8,5.6S68,57.5,65.9,57.5z M65.9,47.1
		c-1.7,0-3.1,2.2-3.1,4.8s1.4,4.8,3.1,4.8s3.1-2.2,3.1-4.8S67.6,47.1,65.9,47.1z"/>
</g>
<g>
	<path class="st1" d="M65.9,55.8c-1.5,0-2.7-1.7-2.7-3.9s1.2-3.9,2.7-3.9s2.7,1.7,2.7,3.9C68.6,54,67.4,55.8,65.9,55.8z M65.9,48.8
		c-1.1,0-2,1.4-2,3.1s0.9,3.1,2,3.1s2-1.4,2-3.1S67,48.8,65.9,48.8z"/>
</g>
<ellipse class="st1" cx="65.9" cy="51.9" rx="0.6" ry="0.9"/>
</svg>
