<?xml version="1.0" encoding="utf-8"?>
<!-- Generator: Adobe Illustrator 20.1.0, SVG Export Plug-In . SVG Version: 6.00 Build 0)  -->
<svg version="1.1" id="Calque_1" xmlns="http://www.w3.org/2000/svg" xmlns:xlink="http://www.w3.org/1999/xlink" x="0px" y="0px"
	 viewBox="0 0 90 90" style="enable-background:new 0 0 90 90;" xml:space="preserve">
<style type="text/css">
	.st0{fill:#FFFFFF;}
	.st1{fill:#1A1A1A;}
</style>
<g>
	<path class="st0" d="M7.2,14v56c0,0,16.2,5.5,31.2,2.2S80.2,70,80.2,70V14"/>
	<path class="st1" d="M28.2,73.8c-11.3,0-21-3.2-21.1-3.3l-0.3-0.1V14h1v55.6c2.4,0.8,17.1,5.1,30.6,2.1c13.7-3,37.6-2.4,41.4-2.2
		V14h1v56.5l-0.5,0c-0.3,0-27-1-41.7,2.2C35.1,73.5,31.6,73.8,28.2,73.8z"/>
</g>
<title>TG</title>
<g>
	<rect x="37.8" y="14" class="st1" width="1" height="58"/>
</g>
</svg>
