<?xml version="1.0" encoding="utf-8"?>
<!-- Generator: Adobe Illustrator 20.1.0, SVG Export Plug-In . SVG Version: 6.00 Build 0)  -->
<svg version="1.1" id="Calque_1" xmlns="http://www.w3.org/2000/svg" xmlns:xlink="http://www.w3.org/1999/xlink" x="0px" y="0px"
	 viewBox="0 0 90 90" style="enable-background:new 0 0 90 90;" xml:space="preserve">
<style type="text/css">
	.st0{fill:#FFFFFF;}
	.st1{fill:#1A1A1A;}
</style>
<path class="st0" d="M7.2,15.6v56.8h27.5l5.6-13.7L46,72.4c0,0,31.2,1.9,34.7-2.4c0.3-10.7,0-54.9,0-54.9S34.5,23.6,7.2,15.6z"/>
<title>TG</title>
<path class="st1" d="M81.1,14.7l-1,0c0,0.5,0.8,51.7,0.1,55.3c-0.4,2-17.8,2.6-33.9,2l-5.6-14.1V19h-1v39.8L34.7,72H7.7V15h-1v58
	h28.6l5.1-13.2L45.7,73l0.3,0c2.7,0.1,7.5,0.2,12.7,0.2c10.2,0,22.1-0.6,22.6-3.1C81.9,66.5,81.1,16.8,81.1,14.7z"/>
</svg>
