<?xml version="1.0" encoding="utf-8"?>
<!-- Generator: Adobe Illustrator 20.1.0, SVG Export Plug-In . SVG Version: 6.00 Build 0)  -->
<svg version="1.1" id="Calque_1" xmlns="http://www.w3.org/2000/svg" xmlns:xlink="http://www.w3.org/1999/xlink" x="0px" y="0px"
	 viewBox="0 0 90 90" style="enable-background:new 0 0 90 90;" xml:space="preserve">
<style type="text/css">
	.st0{fill:#FFFFFF;}
	.st1{fill:#1A1A1A;}
	.st2{fill:none;stroke:#1A1A1A;stroke-miterlimit:10;}
</style>
<g>
	<path class="st0" d="M16.8,14.8C20.1,8.3,40.3,8,43.6,8c0,0,0,0,0,0l0.4,0v0c3.2,0,23.6,0.2,26.9,6.9c2.7,5.3-4,11.9-12.6,18.4
		c-18-2.8-27.5-0.5-29.1,0C20.7,26.7,14.1,20.2,16.8,14.8z"/>
	<path class="st0" d="M12.8,78.4c-4.2-24,0.9-50.4,2.7-58.7c1.6,4.9,7.8,10.4,16.6,16.8C31.3,38.1,27.8,45.4,12.8,78.4z"/>
	<path class="st0" d="M24.7,54.9c6.2-13.5,7.9-17.1,8.4-18c0.7,0.1,1.3,0.2,2,0.3v19.6C31.5,56.6,28,56,24.7,54.9z"/>
	<path class="st0" d="M36,57.5V37.3c3.6,0.4,6.6,0.6,9.2,0.6c5.3,0,8.4-0.7,9.6-1L62.3,54C54.1,59.1,38.8,57.8,36,57.5z"/>
	<path class="st0" d="M74.2,78.5l-18.6-42c8.6-6.2,14.7-11.6,16.5-16.4C78.5,52.4,75.3,73,74.2,78.5z"/>
</g>
<title>TG</title>
<path class="st1" d="M72.6,17.5c0-1-0.2-2.1-0.7-3.1C68.2,7,46.5,7,43.9,7c-2.6,0-24.3,0-28,7.4c-0.4,0.8-0.6,1.7-0.7,2.5
	c-0.4,1.7-8.7,34.5-3.1,63.2l0.3,1.5l0.6-1.4c4.8-10.5,8.4-18.4,11.2-24.5c3.5,1.2,7.1,1.8,10.8,2v0.7l0.4,0.1
	c0.3,0,3.6,0.4,7.9,0.4c6,0,14-0.7,19.3-4l11.8,26.6l0.4-1.4c0-0.1,1.5-5.8,2-16.4C77.3,54,76.9,38.1,72.6,17.5z M16.8,14.8
	C20.1,8.3,40.3,8,43.6,8c0,0,0,0,0,0l0.4,0v0c3.2,0,23.6,0.2,26.9,6.9c2.7,5.3-4,11.9-12.6,18.4c-18-2.8-27.5-0.5-29.1,0
	C20.7,26.7,14.1,20.2,16.8,14.8z M54.8,35.9c-0.8,0.2-8.2,2.2-21.9,0c-0.9-0.6-1.7-1.3-2.6-1.9c2.8-0.6,11.7-2.2,27,0.1
	C56.4,34.7,55.6,35.3,54.8,35.9z M12.8,78.4c-4.2-24,0.9-50.4,2.7-58.7c1.6,4.9,7.8,10.4,16.6,16.8C31.3,38.1,27.8,45.4,12.8,78.4z
	 M24.6,54.9c6.2-13.5,7.9-17.1,8.4-18c0.7,0.1,1.3,0.2,2,0.3v19.6C31.5,56.6,28,56,24.6,54.9z M36,57.5V37.3
	c3.6,0.4,6.6,0.6,9.2,0.6c5.3,0,8.4-0.7,9.6-1L62.3,54C54.1,59.1,38.8,57.8,36,57.5z M74.2,78.5l-18.6-42
	c8.6-6.2,14.7-11.6,16.5-16.4C78.5,52.4,75.3,73,74.2,78.5z"/>
<ellipse class="st2" cx="43.1" cy="44.4" rx="3.2" ry="2.1"/>
<ellipse class="st1" cx="43.1" cy="44.5" rx="0.7" ry="0.4"/>
<rect x="46.4" y="43.6" class="st1" width="1.3" height="1.1"/>
<ellipse class="st2" cx="48.1" cy="52.4" rx="3.2" ry="2.1"/>
<ellipse class="st1" cx="48.1" cy="52.5" rx="0.7" ry="0.4"/>
<rect x="51.4" y="51.6" class="st1" width="1.3" height="1.1"/>
</svg>
