<?xml version="1.0" encoding="utf-8"?>
<!-- Generator: Adobe Illustrator 20.1.0, SVG Export Plug-In . SVG Version: 6.00 Build 0)  -->
<svg version="1.1" id="Calque_1" xmlns="http://www.w3.org/2000/svg" xmlns:xlink="http://www.w3.org/1999/xlink" x="0px" y="0px"
	 viewBox="0 0 90 90" style="enable-background:new 0 0 90 90;" xml:space="preserve">
<style type="text/css">
	.st0{fill:#FFFFFF;}
	.st1{fill:#1A1A1A;}
</style>
<g>
	<path class="st0" d="M42.7,65.1l-2.1-0.9l0.6-12C42.6,59,42.7,63.5,42.7,65.1z"/>
	<path class="st0" d="M39.4,67.4c-12.8-1.9-22.2-12.9-22.9-16.2c-0.8-4.2-0.8-14.3-0.7-18.7c4.2,5.8,21.4,14.7,24.6,16.3L39.4,67.4z
		"/>
	<path class="st0" d="M24.9,38.8c-5-3.3-9-6.5-9-8.5c0-1.3,0.6-2.5,1.8-3.8c4-4.2,13.6-6.7,25.6-6.9h2.1c12,0.1,21.6,2.7,25.6,6.9
		c1.2,1.2,1.8,2.5,1.8,3.8c0,1.9-4.1,5.2-9,8.5C41.5,34.1,26.9,38.2,24.9,38.8z"/>
	<path class="st0" d="M45.8,65.1c0-1.7,0.1-6.1,1.5-12.9l0.6,12L45.8,65.1z"/>
	<path class="st0" d="M71.9,51.3c-0.6,3.2-10,14.3-22.9,16.2l-1-18.5c3.2-1.7,20.3-10.5,24.6-16.3C72.7,37.1,72.7,47.1,71.9,51.3z"
		/>
</g>
<title>TG</title>
<path class="st1" d="M73.6,30.3c0-1.5-0.7-3.1-2-4.5c-4.2-4.3-14-7-26.3-7.2h-2.1c-12.2,0.1-22,2.8-26.3,7.2
	c-1.4,1.4-2.1,2.9-2.1,4.5l0,0c0,0.6-0.4,15.6,0.7,21.1c0.7,3.6,10.5,15.3,24.3,17l0.5,0.1l0.2-3.3l3.1,1.4l0-0.7
	c0-0.3,0.4-6.4-2.3-17.4l0-0.3l-0.3-0.1c-3.5-1.8-9.7-5.2-15.1-8.6c3.7-1,17.1-3.8,36.4,0.1c-5.4,3.4-11.6,6.8-15,8.5L47,48.3l0,0.3
	c-2.7,11-2.3,17.1-2.3,17.4l0,0.7l3.1-1.4l0.2,3.3l0.5-0.1c13.8-1.7,23.6-13.5,24.3-17C74,46,73.6,31.1,73.6,30.3z M42.7,65.1
	l-2.1-0.9l0.6-12C42.6,59,42.7,63.5,42.7,65.1z M39.4,67.4c-12.8-1.9-22.2-12.9-22.9-16.2c-0.8-4.2-0.8-14.3-0.7-18.7
	c4.2,5.8,21.4,14.7,24.6,16.3L39.4,67.4z M24.8,38.8c-5-3.3-9-6.5-9-8.5c0-1.3,0.6-2.5,1.8-3.8c4-4.2,13.6-6.7,25.6-6.9h2.1
	c12,0.1,21.6,2.7,25.6,6.9c1.2,1.2,1.8,2.5,1.8,3.8c0,1.9-4.1,5.2-9,8.5C41.5,34.1,26.9,38.2,24.8,38.8z M45.8,65.1
	c0-1.7,0.1-6.1,1.5-12.9l0.6,12L45.8,65.1z M71.9,51.3c-0.6,3.2-10,14.3-22.9,16.2l-1-18.5c3.2-1.7,20.3-10.5,24.6-16.3
	C72.7,37.1,72.7,47.1,71.9,51.3z"/>
</svg>
