<?xml version="1.0" encoding="utf-8"?>
<!-- Generator: Adobe Illustrator 20.1.0, SVG Export Plug-In . SVG Version: 6.00 Build 0)  -->
<svg version="1.1" id="Calque_1" xmlns="http://www.w3.org/2000/svg" xmlns:xlink="http://www.w3.org/1999/xlink" x="0px" y="0px"
	 viewBox="0 0 90 90" style="enable-background:new 0 0 90 90;" xml:space="preserve">
<style type="text/css">
	.st0{fill:#FFFFFF;}
	.st1{fill:none;stroke:#1A1A1A;stroke-miterlimit:10;}
	.st2{fill:#1A1A1A;}
</style>
<path class="st0" d="M43.9,20h1c8.2,0.1,29.4,1.8,29.6,8.4c0.1,3.1-2.8,6.8-6.7,10.2c-15.3-4.9-31.5-4.8-46.8,0
	c-3.9-3.4-6.8-7.1-6.7-10.2C14.5,21.8,35.8,20.1,43.9,20z"/>
<path class="st0" d="M26.8,68.6C20.3,60.2,10.4,46.7,10.4,45c0-2.1,2-11.3,3.1-14.9c2.2,8.6,20,18.9,25.6,20.5L26.8,68.6z"/>
<path class="st0" d="M33,61.3l5.6-8.2c1-0.4,1.6-0.8,2-1.2h7.6c0.4,0.4,1,0.8,2,1.2l5.7,8.3C47.9,64.1,36.1,62,33,61.3z"/>
<path class="st0" d="M62.1,68.6l-12.4-18c6.1-1.8,23.4-11.9,25.6-20.5c1.1,3.7,3.2,12.8,3.2,14.8C78.5,46.7,68.6,60.2,62.1,68.6z"/>
<title>TG</title>
<ellipse class="st1" cx="44.2" cy="57" rx="3.2" ry="2.1"/>
<ellipse class="st2" cx="44.2" cy="57.1" rx="0.7" ry="0.4"/>
<rect x="47.5" y="56.2" class="st2" width="1.3" height="1.1"/>
<path class="st2" d="M75.5,28.1C74.7,19.4,46.2,19,44.9,19h-1c-1.2,0-29.9,0.5-30.5,9.1C12,30.2,9.4,43.1,9.4,45
	c0,2.6,14.1,21.1,16.9,24.8l0.4,0.5l5.6-8.1c1.5,0.3,7.4,1.5,13.7,1.5c3.6,0,7.2-0.4,10.4-1.5l5.6,8.1l0.4-0.5
	c2.8-3.7,16.9-22.2,16.9-24.8C79.4,43.1,76.8,30.1,75.5,28.1z M43.9,20h1c8.2,0.1,29.4,1.8,29.6,8.4c0.1,3.1-2.8,6.8-6.7,10.2
	c-15.3-4.9-31.5-4.8-46.8,0c-3.9-3.4-6.8-7.1-6.7-10.2C14.5,21.8,35.7,20.1,43.9,20z M49.1,49.8c-0.1,0-1.1,0.4-1.2,1.2H41
	c-0.1-0.8-1.1-1.1-1.3-1.2c-3.6-0.9-11.7-5.3-17.8-10.5c14.7-4.5,30.2-4.6,45,0C60.8,44.4,52.7,48.8,49.1,49.8z M26.7,68.6
	C20.3,60.2,10.4,46.7,10.4,45c0-2.1,2-11.3,3.1-14.9c2.2,8.6,20,18.9,25.6,20.5L26.7,68.6z M33,61.3l5.6-8.2c1-0.4,1.6-0.8,2-1.2
	h7.6c0.4,0.4,1,0.8,2,1.2l5.7,8.3C47.9,64.1,36.1,62,33,61.3z M62.1,68.6l-12.4-18c6.1-1.8,23.4-11.9,25.6-20.5
	c1.1,3.7,3.2,12.8,3.2,14.8C78.4,46.7,68.6,60.2,62.1,68.6z"/>
</svg>
