<?xml version="1.0" encoding="utf-8"?>
<!-- Generator: Adobe Illustrator 20.1.0, SVG Export Plug-In . SVG Version: 6.00 Build 0)  -->
<svg version="1.1" id="Calque_1" xmlns="http://www.w3.org/2000/svg" xmlns:xlink="http://www.w3.org/1999/xlink" x="0px" y="0px"
	 viewBox="0 0 90 90" style="enable-background:new 0 0 90 90;" xml:space="preserve">
<style type="text/css">
	.st0{fill:#FFFFFF;}
	.st1{fill:#1A1A1A;}
</style>
<path class="st0" d="M19.4,78.7c-0.1-0.2-0.2-0.4-0.3-0.6c-3.4-6.3-11.3-20.9-8.7-35.6c1.9-10.8,4-18.4,5.3-22.3
	c1.3,4.5,8.4,10,22.7,17.7C36.4,42.1,22,72.1,19.4,78.7z"/>
<path class="st0" d="M68.5,78c-0.1,0.2-0.2,0.4-0.3,0.6C65.6,72.1,51.3,42,49.3,37.8C63.8,30.1,70.7,24.8,72,20.2
	c1.2,3.9,3.4,11.5,5.3,22.3C79.8,57.1,71.9,71.8,68.5,78z"/>
<path class="st0" d="M33.3,50.8c2.1-4.5,4.1-8.7,5.6-11.8c1.6,0.1,3.3,0.2,4.9,0.2c1.6,0,3.3-0.1,4.9-0.2c1.5,3.1,3.5,7.3,5.6,11.8
	C47.4,52.7,40.2,52.7,33.3,50.8z"/>
<path class="st0" d="M18.7,13.9c5.1-4.6,20.7-5,24.6-5l0.9,0v0c3.9,0,19.5,0.4,24.6,5c2.1,1.8,2.9,3.5,2.7,5.3
	c-0.3,2.6-2.9,5.6-8,9.2c-22.9-4.5-37.7-0.6-39.7,0c-5.1-3.6-7.6-6.6-7.9-9.2C15.7,17.4,16.6,15.7,18.7,13.9z"/>
<title>TG</title>
<g>
	<path class="st1" d="M78.2,42.3C75.5,26.9,72.3,18,72,17c-0.4-1.3-1.3-2.5-2.8-3.8C63.6,8.2,46.9,8,43.8,8c-3,0-19.8,0.1-25.4,5.2
		c-1.4,1.3-2.3,2.5-2.7,3.7c-0.2,0.5-3.5,9.5-6.3,25.4c-2.6,15,5.4,29.9,8.8,36.2c0.3,0.6,0.6,1.2,0.9,1.6l0.6,1.3L20,80
		c0.3-1.3,7-15.8,12.9-28.2c3.6,1,7.3,1.5,10.9,1.5c3.7,0,7.4-0.5,10.9-1.5C60.6,64.2,67.4,78.7,67.6,80l0.3,1.4l0.6-1.3
		c0.2-0.4,0.5-1,0.9-1.6C72.8,72.2,80.9,57.3,78.2,42.3z M19.1,13.9C24.2,9.4,39.5,9,43.4,9l0.9,0v0c3.8,0,19.2,0.4,24.3,4.9
		c2,1.8,2.9,3.5,2.7,5.2c-0.3,2.5-2.8,5.5-7.9,9.1c-22.5-4.4-37.1-0.6-39.1,0c-5-3.6-7.5-6.5-7.8-9.1C16.2,17.4,17.1,15.8,19.1,13.9
		z M48.4,37.2L48,37.4l0.2,0.4c0,0.1,0.1,0.1,0.1,0.2c-2.9,0.2-5.9,0.2-8.9,0c0,0,0-0.1,0.1-0.1l0.2-0.4l-0.4-0.2
		c-5.8-3.1-10.4-5.8-14-8.2c3.6-0.9,17-3.7,36.9,0.1C58.7,31.5,54.1,34.1,48.4,37.2z M19.4,78.7c-0.1-0.2-0.2-0.4-0.3-0.6
		c-3.4-6.3-11.3-20.9-8.7-35.6c1.9-10.8,4-18.4,5.3-22.3c1.3,4.5,8.4,10,22.7,17.7C36.4,42.1,22,72.1,19.4,78.7z M33.3,50.8
		c2.1-4.5,4.1-8.7,5.6-11.8c1.6,0.1,3.3,0.2,4.9,0.2c1.6,0,3.3-0.1,4.9-0.2c1.5,3.1,3.5,7.3,5.6,11.8C47.4,52.7,40.2,52.7,33.3,50.8
		z M68.5,78c-0.1,0.2-0.2,0.4-0.3,0.6C65.6,72.1,51.3,42,49.3,37.8C63.8,30.1,70.7,24.8,72,20.2c1.2,3.9,3.4,11.5,5.3,22.3
		C79.8,57.1,71.9,71.8,68.5,78z"/>
	<ellipse class="st1" cx="42.4" cy="46.2" rx="0.7" ry="0.4"/>
	<path class="st1" d="M47.1,45.3H46c-0.5-1-1.9-1.8-3.5-1.8c-2.1,0-3.7,1.1-3.7,2.6s1.6,2.6,3.7,2.6c2,0,3.5-1,3.7-2.3h0.9V45.3z
		 M42.4,47.7c-1.5,0-2.7-0.7-2.7-1.6s1.3-1.6,2.7-1.6c1.5,0,2.7,0.7,2.7,1.6S43.9,47.7,42.4,47.7z"/>
</g>
</svg>
