<?xml version="1.0" encoding="utf-8"?>
<!-- Generator: Adobe Illustrator 20.1.0, SVG Export Plug-In . SVG Version: 6.00 Build 0)  -->
<svg version="1.1" id="Calque_1" xmlns="http://www.w3.org/2000/svg" xmlns:xlink="http://www.w3.org/1999/xlink" x="0px" y="0px"
	 viewBox="0 0 90 90" style="enable-background:new 0 0 90 90;" xml:space="preserve">
<style type="text/css">
	.st0{fill:#FFFFFF;}
	.st1{fill:#1A1A1A;}
	.st2{fill:#FFFFFF;stroke:#1A1A1A;stroke-miterlimit:10;}
	.st3{fill:#FFFFFF;stroke:#1A1A1A;stroke-width:0.97;stroke-miterlimit:10;}
</style>
<path class="st0" d="M9.9,37l17.4-6v-8.1c0,0,3.2-8.5,17.8-8.5s16.9,8.6,16.9,8.6V31c0,0,18.7,5.7,19.8,7.4
	C81.6,38.7,86.4,75,44.1,75S9.9,37,9.9,37z"/>
<title>TG</title>
<path class="st1" d="M82.6,38.1c-6.2-3.6-17.9-6.8-20.2-7.4c0-2,0-5.7-0.1-7.3c0-0.2,0-0.4,0-0.6c0-0.1,0-0.2,0-0.2h0
	c-0.1-0.4-0.2-0.9-0.5-1.3C58,14,45.7,14,45.2,14h-1.1c-0.5,0-12.8,0-16.7,7.4c-0.5,0.9-0.6,1.7-0.5,2.6c0,1.8,0,5,0,6.8L9.4,36.6
	l0.3,0.9L27,31.7c1.2,2.9,9.3,9.1,11.1,10.4l0.6,0.5l0.7-3.7h1.2v36h1V39h7.3l0.7,3.6l0.6-0.4c1.9-1.3,10.8-7.5,12.1-10.4
	c2.4,0.7,13.9,3.8,19.8,7.3L82.6,38.1z M27.9,22.7c0.1-0.3,0.2-0.6,0.3-0.9C31.8,15,43.8,15,44.1,15c0,0,0,0,0,0h1.1c0,0,0,0,0,0
	c0.2,0,12.2,0.1,15.8,6.9c0.2,0.4,0.3,0.8,0.4,1.1c0,0.1,0,0.3,0,0.4c0,0.3-0.1,0.6-0.3,0.9c-0.5,1-1.7,1.8-3.2,2.5
	c-8.3-4.3-18.1-4.2-26.4,0.3c-1.5-0.7-2.8-1.6-3.4-2.7C28,24.2,28,24,27.9,23.8C27.9,23.2,27.9,22.8,27.9,22.7z M47.2,30h-6.1
	l0.1-0.3l-0.5-0.1c-0.1,0-4.3-0.6-7.9-1.9c7.6-3.8,16.3-3.9,24-0.3c-4,1.5-9,2.1-9.1,2.2l-0.5,0.1L47.2,30z M38,40.9
	c-4.4-3.4-10.2-8.3-10.2-9.8c0-1.3,0-3.5,0-5.3c2.7,3.1,10,4.4,12.1,4.7L38.6,38h0v0L38,40.9z M39.6,38l1.3-7h6.5l1.3,7H39.6z
	 M50.2,40.9l-2-10.5c1.5-0.2,6.1-0.9,9.6-2.5c0,0,0.1,0,0.1,0.1l0.1-0.1c1.3-0.6,2.5-1.3,3.3-2.2c0,1.9,0,4.2,0,5.5
	C61.4,32.5,55.1,37.5,50.2,40.9z"/>
<circle class="st1" cx="44.5" cy="35" r="1.9"/>
<circle class="st1" cx="44.5" cy="45" r="1.9"/>
<circle class="st1" cx="44.5" cy="56" r="1.9"/>
<circle class="st1" cx="44.5" cy="67" r="1.9"/>
<polygon class="st2" points="24.6,29.1 25.9,31.5 14.5,35.4 13.5,33 "/>
<polygon class="st3" points="64.8,29.1 63.5,31.4 74.9,35 75.9,32.8 "/>
</svg>
