<svg id="Calque_1" data-name="Calque 1" xmlns="http://www.w3.org/2000/svg" viewBox="0 0 73.16 61.03"><defs><style>.cls-1{fill:#fff;}.cls-2{fill:#1a1a1a;}</style></defs><title>gorge_C</title><path class="cls-1" d="M8.54,37l17.85-6V23s1.35-8.46,17.23-8.46S60.81,23,60.81,23v8l20.1,7s-.66,37-37.78,37S8.54,37,8.54,37Z" transform="translate(-8.42 -13.97)"/><circle class="cls-2" cx="35.11" cy="21.06" r="1.93"/><path class="cls-2" d="M81.58,38.14A181.77,181.77,0,0,0,61.4,30.72c0-2,0-5.65-.05-7.26a3.25,3.25,0,0,0,0-.57c0-.14,0-.22,0-.22h0a4.27,4.27,0,0,0-.45-1.31C57,14,44.67,14,44.16,14H43.07c-.53,0-12.83,0-16.71,7.4a3.87,3.87,0,0,0-.46,2.56c0,1.76,0,5,0,6.81L8.42,36.61l.32.95L26,31.75c1.16,2.95,9.32,9.14,11.05,10.44l.64.48L38.38,39h2.33V75h1V39h3V75h1V39h2.17l.67,3.6.63-.43c1.9-1.3,10.82-7.51,12.07-10.44,2.44.65,13,4.56,19.83,7.28ZM26.92,22.71a3.66,3.66,0,0,1,.33-.87C30.83,15,42.81,15,43.07,15h1.1c.12,0,12.22,0,15.81,6.86A3.16,3.16,0,0,1,60.34,23c0,.12,0,.26,0,.44a2.37,2.37,0,0,1-.27.91,6.72,6.72,0,0,1-3.16,2.52,28.11,28.11,0,0,0-26.38.3,7.07,7.07,0,0,1-3.4-2.69,2.61,2.61,0,0,1-.23-.63C26.92,23.2,26.92,22.77,26.92,22.71Zm19.72,6.8-.53.06.08.43H40.05l.06-.35-.52-.07a40.29,40.29,0,0,1-7.86-1.94,27.1,27.1,0,0,1,24-.29A44.06,44.06,0,0,1,46.64,29.5ZM37,40.9c-4.42-3.36-10.16-8.32-10.16-9.77,0-1.27,0-3.46,0-5.3,2.71,3.06,10,4.37,12.05,4.68ZM38.57,38l1.3-7h6.51l1.31,7Zm10.68,2.9L48.71,38v0h0l-1.42-7.57a40,40,0,0,0,9.58-2.49L57,28l.08-.14a9.89,9.89,0,0,0,3.31-2.23c0,1.88,0,4.19,0,5.49S54.08,37.54,49.25,40.9Z" transform="translate(-8.42 -13.97)"/></svg>