<?xml version="1.0" encoding="utf-8"?>
<!-- Generator: Adobe Illustrator 20.1.0, SVG Export Plug-In . SVG Version: 6.00 Build 0)  -->
<svg version="1.1" id="Calque_1" xmlns="http://www.w3.org/2000/svg" xmlns:xlink="http://www.w3.org/1999/xlink" x="0px" y="0px"
	 viewBox="0 0 90 90" style="enable-background:new 0 0 90 90;" xml:space="preserve">
<style type="text/css">
	.st0{fill:#FFFFFF;stroke:#1A1A1A;stroke-miterlimit:10;}
	.st1{fill:#1A1A1A;}
</style>
<title>TG</title>
<path class="st0" d="M8,10.3h55l0,0v50.5c0,5.3-4.3,9.7-9.7,9.7H17.7c-5.3,0-9.7-4.3-9.7-9.6c0,0,0,0,0,0V10.3L8,10.3z"/>
<g>
	<path class="st1" d="M23.2,28.9c-8.5,0-15.4-6.7-15.7-15.1h0v-0.6h1c0,8.1,6.6,14.7,14.7,14.7c0,0,0,0,0,0h24.6
		c8.1,0,14.7-6.6,14.7-14.7h1l0,0.6c-0.3,8.4-7.2,15.1-15.7,15.1H23.2C23.2,28.9,23.2,28.9,23.2,28.9z"/>
</g>
<path class="st0" d="M24.4,18.9h55l0,0v50.5c0,5.3-4.3,9.7-9.7,9.7H34.1c-5.3,0-9.7-4.3-9.7-9.7V18.9L24.4,18.9z"/>
<g>
	<path class="st1" d="M64.2,37.5H39.6c-8.5,0-15.4-6.7-15.7-15.1h0v-0.6h1c0,8.1,6.6,14.7,14.7,14.7h24.6c8.1,0,14.7-6.6,14.7-14.7
		h1l0,0.6C79.6,30.8,72.7,37.5,64.2,37.5z"/>
</g>
<g>
	<path class="st1" d="M50.9,34.1c-2,0-3.6-1.6-3.6-3.6s1.6-3.6,3.6-3.6c2,0,3.6,1.6,3.6,3.6S52.9,34.1,50.9,34.1z M50.9,27.6
		c-1.6,0-2.9,1.3-2.9,2.9s1.3,2.9,2.9,2.9s2.9-1.3,2.9-2.9S52.5,27.6,50.9,27.6z"/>
</g>
<g>
	<path class="st1" d="M50.9,33c-1.4,0-2.6-1.2-2.6-2.6s1.2-2.6,2.6-2.6c1.4,0,2.6,1.2,2.6,2.6S52.3,33,50.9,33z M50.9,28.6
		c-1,0-1.8,0.8-1.8,1.8s0.8,1.8,1.8,1.8c1,0,1.8-0.8,1.8-1.8S51.9,28.6,50.9,28.6z"/>
</g>
<circle class="st1" cx="50.9" cy="30.4" r="0.6"/>
</svg>
