<?xml version="1.0" encoding="utf-8"?>
<!-- Generator: Adobe Illustrator 20.1.0, SVG Export Plug-In . SVG Version: 6.00 Build 0)  -->
<svg version="1.1" id="Calque_1" xmlns="http://www.w3.org/2000/svg" xmlns:xlink="http://www.w3.org/1999/xlink" x="0px" y="0px"
	 viewBox="0 0 90 90" style="enable-background:new 0 0 90 90;" xml:space="preserve">
<style type="text/css">
	.st0{fill:#FFFFFF;}
	.st1{fill:#1A1A1A;}
</style>
<path class="st0" d="M17.4,19.1c0,0,5.5-6.1,27.1-4.7s26.9,4.7,26.9,4.7v51.7c0,0-1.2,3.5-5.4,4.1s-37.4,0.4-37.4,0.4v-1.1
	c0,0-6.3,1.4-11.1-3.2C17.4,65.4,17.4,19.1,17.4,19.1z"/>
<title>TG</title>
<g>
	<path class="st1" d="M42.3,61c-3.5,0-6.3-2.8-6.3-6.3s2.8-6.3,6.3-6.3c3.5,0,6.3,2.8,6.3,6.3S45.8,61,42.3,61z M42.3,49.5
		c-2.9,0-5.3,2.4-5.3,5.3s2.4,5.3,5.3,5.3s5.3-2.4,5.3-5.3S45.2,49.5,42.3,49.5z"/>
</g>
<g>
	<path class="st1" d="M42.3,59.1c-2.4,0-4.4-2-4.4-4.4s2-4.4,4.4-4.4s4.4,2,4.4,4.4S44.7,59.1,42.3,59.1z M42.3,51.4
		c-1.9,0-3.4,1.5-3.4,3.4s1.5,3.4,3.4,3.4s3.4-1.5,3.4-3.4S44.2,51.4,42.3,51.4z"/>
</g>
<circle class="st1" cx="42.3" cy="54.8" r="1"/>
<path class="st1" d="M71.9,19.2v-0.5l-0.3-0.1c-0.3-0.1-6.8-3.6-27.5-4.8c-20.8-1.2-26.9,4.6-27.1,4.8l-0.1,0.1v52.4l0.2,0.1
	c3,2.6,6.9,3.9,10.8,3.5V76h32.4c11.1,0,11.6-4.7,11.6-5V19.5c0-0.1,0.1-0.2,0.1-0.3L71.9,19.2z M44.2,14.8
	c18.1,1,25.3,3.8,26.8,4.5c-1.7,2.6-13.4,3.9-14.9,3.6c-0.9-0.2-8.1,4.4-15.7,9.5c-3,0.3-14.9-7.3-22.4-12.7v-0.4
	C19,18.4,25.7,13.8,44.2,14.8z M27.9,40.7v33.1c-3.6,0.4-7.2-0.7-10-3.1V20.9c3.4,2.4,15.8,11,21.1,12.3c-3.9,2.6-7.7,5.2-10.9,7.4
	L27.9,40.7z M60.3,75H28.9V41.3c9.8-6.7,25.6-17.2,26.9-17.4c1.2,0.2,11.5-0.5,15.1-3.2l0,50.3C70.9,71,70.4,75,60.3,75z"/>
<g>
	<path class="st1" d="M23,59.3c-2.1,0-3.8-2.5-3.8-5.6s1.7-5.6,3.8-5.6c2.1,0,3.8,2.5,3.8,5.6S25.1,59.3,23,59.3z M23,48.9
		c-1.7,0-3.1,2.2-3.1,4.8s1.4,4.8,3.1,4.8c1.7,0,3.1-2.2,3.1-4.8S24.7,48.9,23,48.9z"/>
</g>
<g>
	<path class="st1" d="M23,57.6c-1.5,0-2.7-1.7-2.7-3.9s1.2-3.9,2.7-3.9c1.5,0,2.7,1.7,2.7,3.9S24.5,57.6,23,57.6z M23,50.6
		c-1.1,0-2,1.4-2,3.1s0.9,3.1,2,3.1s2-1.4,2-3.1S24,50.6,23,50.6z"/>
</g>
<ellipse class="st1" cx="23" cy="53.7" rx="0.6" ry="0.9"/>
</svg>
